STARTFONT 2.3
FONT -FontForge-STIX Two Math-Book-R-Normal--28-280-72-72-P-192-ISO10646-1
SIZE 28 72 72  2
FONTBOUNDINGBOX 113 121 -27 -47
COMMENT "Generated by fontforge, http://fontforge.sourceforge.net"
COMMENT "Copyright 2001-2021 The STIX Fonts Project Authors (https://github.com/stipub/stixfonts)"
STARTPROPERTIES 41
FOUNDRY "FontForge"
FAMILY_NAME "STIX Two Math"
WEIGHT_NAME "Book"
SLANT "R"
SETWIDTH_NAME "Normal"
ADD_STYLE_NAME ""
PIXEL_SIZE 28
POINT_SIZE 280
RESOLUTION_X 72
RESOLUTION_Y 72
SPACING "P"
AVERAGE_WIDTH 192
CHARSET_REGISTRY "ISO10646"
CHARSET_ENCODING "1"
FONTNAME_REGISTRY ""
CHARSET_COLLECTIONS "ASCII ISOLatin1Encoding ISO8859-2 ISO8859-5 ISO8859-7 ISO8859-9 ISO8859-4 ISO10646-1"
BITS_PER_PIXEL 2
FONT_NAME "STIXTwoMath-Regular"
FACE_NAME "STIX Two Math Regular"
COPYRIGHT "Copyright 2001-2021 The STIX Fonts Project Authors (https://github.com/stipub/stixfonts)"
FONT_VERSION "2.12 b168a"
FONT_ASCENT 21
FONT_DESCENT 7
UNDERLINE_POSITION -3
UNDERLINE_THICKNESS 2
X_HEIGHT 13
CAP_HEIGHT 18
RAW_ASCENT 762
RAW_DESCENT 238
NORM_SPACE 7
RELATIVE_WEIGHT 40
RELATIVE_SETWIDTH 50
SUPERSCRIPT_X 0
SUPERSCRIPT_Y 14
SUPERSCRIPT_SIZE 14
SUBSCRIPT_X 0
SUBSCRIPT_Y 7
SUBSCRIPT_SIZE 14
FIGURE_WIDTH 14
AVG_LOWERCASE_WIDTH 138
AVG_UPPERCASE_WIDTH 190
ENDPROPERTIES
CHARS 6611
STARTCHAR space
ENCODING 32
SWIDTH 235 0
DWIDTH 7 0
BBX 1 1 0 0
BITMAP
00
ENDCHAR
STARTCHAR exclam
ENCODING 33
SWIDTH 283 0
DWIDTH 8 0
BBX 4 19 2 0
BITMAP
3C
7D
BD
7D
7D
7D
7C
3C
3C
3C
38
28
28
24
10
00
7D
BE
7D
ENDCHAR
STARTCHAR quotedbl
ENCODING 34
SWIDTH 334 0
DWIDTH 9 0
BBX 7 6 1 14
BITMAP
BC7C
B878
B478
B474
B070
A060
ENDCHAR
STARTCHAR numbersign
ENCODING 35
SWIDTH 702 0
DWIDTH 20 0
BBX 17 20 1 -1
BITMAP
000E007400
000E007000
001D00B000
001D00A000
002C00E000
002C01E000
2FFFFFFFC0
157956D540
007402C000
007402C000
0070028000
00B0038000
7FFFFFFF40
00E0074000
00D0074000
01D00B0000
01D00B0000
02C00E0000
02C00E0000
0140050000
ENDCHAR
STARTCHAR dollar
ENCODING 36
SWIDTH 495 0
DWIDTH 14 0
BBX 12 23 1 -3
BITMAP
002400
002800
07FFA0
2D24BC
B8242C
B4240C
F82408
BD2400
3FA400
1FF900
02FF80
007FF4
002AFC
0024BE
80242E
C0242F
D0242E
F0243D
FD29F8
1BFE80
002400
002400
001400
ENDCHAR
STARTCHAR percent
ENCODING 37
SWIDTH 692 0
DWIDTH 19 0
BBX 17 19 1 0
BITMAP
02E4001C00
1E0A41B800
3C03AAB000
780301D000
B403028000
B406070000
B40D0E0000
78282C0000
2FE0340000
0000A0AA00
0001C3D180
00038B40C0
00070E00C0
000D1E00C0
00282D00C0
00742D0180
00A01E0340
01C00F5A00
034006E400
ENDCHAR
STARTCHAR ampersand
ENCODING 38
SWIDTH 736 0
DWIDTH 21 0
BBX 19 19 1 0
BITMAP
001FE00000
00B46C0000
01E01D0000
01E00E0000
01E01D0000
01F02C0000
00F8B40000
007F81FFF0
007E006F40
02EF402D00
0E0F802800
3C07D07000
B802F49000
F400FD8000
F8007F0000
F8002F8004
BE00BBE418
7FFFD2FFF0
1BF9006F80
ENDCHAR
STARTCHAR quotesingle
ENCODING 39
SWIDTH 187 0
DWIDTH 5 0
BBX 3 6 1 14
BITMAP
BC
B8
B4
B4
B0
A0
ENDCHAR
STARTCHAR parenleft
ENCODING 40
SWIDTH 357 0
DWIDTH 10 0
BBX 8 27 1 -6
BITMAP
0001
001E
0074
01E0
0380
0B40
1E00
2D00
3C00
7C00
7800
B800
B800
B800
B800
B800
7800
7C00
3C00
2D00
1E00
0B40
0380
01E0
0078
000A
0001
ENDCHAR
STARTCHAR parenright
ENCODING 41
SWIDTH 357 0
DWIDTH 10 0
BBX 8 27 1 -6
BITMAP
4000
B400
1D00
0740
02C0
01E0
00B4
0078
003C
003D
002D
002E
002E
002E
002E
002E
002D
003D
003C
0078
00B4
01E0
02C0
0B40
2D00
A000
4000
ENDCHAR
STARTCHAR asterisk
ENCODING 42
SWIDTH 410 0
DWIDTH 11 0
BBX 10 11 1 9
BITMAP
00E000
01E000
A0E1D0
FC97D0
2AAE40
01E000
1AAE40
F897D0
A0D1D0
01E000
00E000
ENDCHAR
STARTCHAR plus
ENCODING 43
SWIDTH 720 0
DWIDTH 20 0
BBX 18 18 1 -2
BITMAP
0000600000
0000F00000
0000F00000
0000F00000
0000F00000
0000F00000
0000F00000
0000F00000
7FFFFFFFD0
7FFFFFFFD0
0000F00000
0000F00000
0000F00000
0000F00000
0000F00000
0000F00000
0000F00000
0000500000
ENDCHAR
STARTCHAR comma
ENCODING 44
SWIDTH 245 0
DWIDTH 7 0
BBX 5 7 1 -4
BITMAP
2E00
7F40
3F40
0340
0700
1D00
6000
ENDCHAR
STARTCHAR hyphen
ENCODING 45
SWIDTH 315 0
DWIDTH 9 0
BBX 7 2 1 6
BITMAP
BFF4
BFF8
ENDCHAR
STARTCHAR period
ENCODING 46
SWIDTH 245 0
DWIDTH 7 0
BBX 4 3 1 0
BITMAP
2E
7F
2E
ENDCHAR
STARTCHAR slash
ENCODING 47
SWIDTH 386 0
DWIDTH 11 0
BBX 9 23 1 -3
BITMAP
000380
000740
000B00
000A00
000D00
001C00
002800
003400
007000
00A000
00E000
01D000
02C000
038000
074000
0B0000
0E0000
1D0000
2C0000
380000
740000
B00000
E00000
ENDCHAR
STARTCHAR zero
ENCODING 48
SWIDTH 495 0
DWIDTH 14 0
BBX 13 19 0 0
BITMAP
006F9000
02E1B400
0B803D00
0F401F00
2F000F40
2E000F80
3E000BC0
3E000BC0
7D000BC0
7D000BC0
7D000BC0
3D000BC0
3E000B80
2E000F80
2F000F40
0F401F00
0B803D00
02E1B800
006F9000
ENDCHAR
STARTCHAR one
ENCODING 49
SWIDTH 495 0
DWIDTH 14 0
BBX 10 19 2 0
BITMAP
005000
1BF400
EAF400
01F400
00F400
00F400
00F400
00F400
00F400
00F400
00F400
00F400
00F400
00F400
00F400
00F400
01F400
07FD40
BFFFF0
ENDCHAR
STARTCHAR two
ENCODING 50
SWIDTH 495 0
DWIDTH 14 0
BBX 12 19 1 0
BITMAP
02FE40
0FFFE0
2806F4
6000F8
4000BC
0000BC
0000BC
0000B8
0000F4
0002E0
000780
000F00
002C00
00B400
02D002
0B4006
1D001E
7FFFFD
FFFFFD
ENDCHAR
STARTCHAR three
ENCODING 51
SWIDTH 495 0
DWIDTH 14 0
BBX 12 19 1 0
BITMAP
01BE40
0BFFD0
1D07F0
3001F4
1000F4
0000F0
0001E0
000380
001E00
01FF90
005BF4
0001FC
00007D
00003D
00003D
00003C
140074
7E46D0
2FF900
ENDCHAR
STARTCHAR four
ENCODING 52
SWIDTH 495 0
DWIDTH 14 0
BBX 14 19 0 0
BITMAP
00007800
0001F800
0002F800
000AF800
001CF800
0034F800
00A0F800
01C0F800
0340F800
0A00F800
1C00F800
7400F800
BFFFFFD0
BFFFFFD0
0000F800
0000F800
0000F800
0000F800
0000F800
ENDCHAR
STARTCHAR five
ENCODING 53
SWIDTH 495 0
DWIDTH 14 0
BBX 12 18 1 0
BITMAP
02FFFC
03FFF8
070000
060000
090000
0FF900
1FFFD0
015BF4
0000FC
00007D
00003D
00002D
00002D
00002C
000038
2800B0
7F9B80
2FF900
ENDCHAR
STARTCHAR six
ENCODING 54
SWIDTH 495 0
DWIDTH 14 0
BBX 12 19 1 0
BITMAP
0006B8
002F40
01F800
07D000
0F8000
2F0000
3D0000
7D6F90
7F56F4
BD00BC
BC003D
B8002E
B8002E
BC002E
7C002E
3D003D
1F007C
0B91F4
01BF80
ENDCHAR
STARTCHAR seven
ENCODING 55
SWIDTH 495 0
DWIDTH 14 0
BBX 12 18 1 0
BITMAP
3FFFFF
3FFFFE
70001D
90002C
400078
0000B0
0000E0
0001D0
0003C0
000780
000B40
000F00
001E00
003C00
007800
00B400
00F000
02E000
ENDCHAR
STARTCHAR eight
ENCODING 56
SWIDTH 495 0
DWIDTH 14 0
BBX 12 19 1 0
BITMAP
02FE40
1F46E0
3D00B4
7C0078
7C0078
7D0078
3F40B0
1FD280
07FE00
01FF40
075FE0
1D02F8
7800BD
B8007D
B8003E
B8003D
7C007C
2F51F4
06FF80
ENDCHAR
STARTCHAR nine
ENCODING 57
SWIDTH 495 0
DWIDTH 14 0
BBX 12 19 1 0
BITMAP
02FE40
1F46D0
3D00F4
7C00B8
B8007C
F8003D
F8003D
B8003E
BC003E
7D007E
2F41FD
07FE7D
00007C
0000B8
0001F0
0007D0
001F40
01BD00
2E9000
ENDCHAR
STARTCHAR colon
ENCODING 58
SWIDTH 245 0
DWIDTH 7 0
BBX 4 13 1 0
BITMAP
2E
7F
2E
00
00
00
00
00
00
00
2E
7F
2E
ENDCHAR
STARTCHAR semicolon
ENCODING 59
SWIDTH 245 0
DWIDTH 7 0
BBX 5 17 1 -4
BITMAP
2E00
7F00
2E00
0000
0000
0000
0000
0000
0000
0000
2E00
7F40
3F40
0340
0700
1D00
6000
ENDCHAR
STARTCHAR less
ENCODING 60
SWIDTH 720 0
DWIDTH 20 0
BBX 17 16 2 -1
BITMAP
0000000740
000000BF00
00000BF400
0000BF4000
000BF40000
00BF400000
0BF4000000
BF40000000
2FD0000000
02FD000000
002FD00000
0001FD0000
00001FE000
000001FE00
0000001F40
0000000100
ENDCHAR
STARTCHAR equal
ENCODING 61
SWIDTH 720 0
DWIDTH 20 0
BBX 18 8 1 4
BITMAP
7FFFFFFFD0
7FFFFFFFD0
0000000000
0000000000
0000000000
0000000000
7FFFFFFFD0
7FFFFFFFD0
ENDCHAR
STARTCHAR greater
ENCODING 62
SWIDTH 720 0
DWIDTH 20 0
BBX 16 16 2 -1
BITMAP
E0000000
FE000000
1FE00000
01FE4000
001BE400
0001BE40
00001BE4
000001FE
000007F9
00007F90
0007F800
007F8000
07F80000
7F800000
F4000000
40000000
ENDCHAR
STARTCHAR question
ENCODING 63
SWIDTH 411 0
DWIDTH 12 0
BBX 10 19 1 0
BITMAP
0BF900
791F80
F007D0
F403E0
F802E0
B402E0
0003D0
000780
000F40
002D00
003800
00B000
00A000
00D000
000000
000000
01E000
03F400
01E000
ENDCHAR
STARTCHAR at
ENCODING 64
SWIDTH 905 0
DWIDTH 25 0
BBX 23 23 1 -5
BITMAP
00006BFA4000
000B9516E400
007900007D00
01E000000B40
0780000003C0
0B002B9381E0
1E00F57B80F0
2D02D01F80B4
3C07800B8078
3C0B400B8078
780F400B4078
780F400B4078
780F400B4074
780F400B4074
3C0F400F40B0
2D0BC01F40D0
1E03E5678780
0F00BE42F900
078000000000
02E000000000
00B800000400
001F90016C00
0001BFFE9000
ENDCHAR
STARTCHAR A
ENCODING 65
SWIDTH 718 0
DWIDTH 20 0
BBX 20 19 0 0
BITMAP
0000380000
00007C0000
0000BE0000
0000FF0000
0002DF4000
00038FC000
00074BD000
000A07E000
001D03F000
002C02F800
003800FC00
007400BD00
00FFFFFF00
01E0007F40
02C0002F80
0780000FD0
0B40000BE0
2F40001BF8
FFF000BFFF
ENDCHAR
STARTCHAR B
ENCODING 66
SWIDTH 618 0
DWIDTH 17 0
BBX 16 19 1 0
BITMAP
FFFFF900
0BD46FD0
07D007F0
07D002F4
07D001F4
07D001F4
07D002F0
07D003D0
07D01900
07FFFE40
07D05BE0
07D002F8
07D000FC
07D000BD
07D000BD
07D000BC
07D001F8
0BD01BE0
FFFFFE40
ENDCHAR
STARTCHAR C
ENCODING 67
SWIDTH 670 0
DWIDTH 19 0
BBX 17 19 1 0
BITMAP
001AFF9700
00BD45FF00
03E0002F00
0B80000F00
1F40000B00
3F00000700
7E00000300
7D00000000
BD00000000
BD00000000
BD00000000
7E00000000
7E00000000
3F00000000
2F80000000
0FE0000740
07F9006E00
00BFFFF400
001BFE4000
ENDCHAR
STARTCHAR D
ENCODING 68
SWIDTH 730 0
DWIDTH 20 0
BBX 18 19 1 0
BITMAP
FFFFFA4000
0BD55BF400
07D001FD00
07D0002F40
07D0000FC0
07D0000BD0
07D00007E0
07D00003F0
07D00003F0
07D00003F0
07D00003F0
07D00003F0
07D00003E0
07D00007D0
07D0000BC0
07D0001F40
07D0007D00
0BD05BF400
FFFFFA4000
ENDCHAR
STARTCHAR E
ENCODING 69
SWIDTH 626 0
DWIDTH 18 0
BBX 16 19 1 0
BITMAP
FFFFFFF8
0BD555B8
07D00028
07D0001C
07D00000
07D00180
07D00180
07D00280
07D00780
07FFFF80
07D01680
07D00180
07D00000
07D00006
07D0000A
07D0000D
07D0002D
0BD555BC
FFFFFFFC
ENDCHAR
STARTCHAR F
ENCODING 70
SWIDTH 588 0
DWIDTH 16 0
BBX 15 19 1 0
BITMAP
FFFFFFFC
0BD555BC
07D0001C
07D0000C
07D00000
07D00180
07D00280
07D00280
07D00780
07FFFF80
07D01780
07D00180
07D00000
07D00000
07D00000
07D00000
07D00000
1BF40000
FFFF4000
ENDCHAR
STARTCHAR G
ENCODING 71
SWIDTH 720 0
DWIDTH 20 0
BBX 19 19 1 0
BITMAP
001AFF9700
00BD45FF00
03E0002F00
0B80000F00
1F40000B00
3F00000700
7E00000300
7D00000000
BD00000000
BD00000000
BD0002FFF4
7D00006F90
7E00001F40
3F00001F40
2F40001F40
0FC0001F40
07E0001F40
01FD41BE00
001BFF9000
ENDCHAR
STARTCHAR H
ENCODING 72
SWIDTH 777 0
DWIDTH 22 0
BBX 21 19 1 0
BITMAP
BFFF40FFFF40
1BF4001BF400
03E00007E000
03E00003D000
03E00003D000
03E00003D000
03E00003D000
03E00003D000
03E00003D000
03FFFFFFD000
03E00007D000
03E00003D000
03E00003D000
03E00003D000
03E00003D000
03E00003D000
03E00007E000
0BF4001BF400
BFFF40FFFF40
ENDCHAR
STARTCHAR I
ENCODING 73
SWIDTH 357 0
DWIDTH 10 0
BBX 8 19 1 0
BITMAP
FFFF
1FE4
07D0
07D0
07D0
07D0
07D0
07D0
07D0
07D0
07D0
07D0
07D0
07D0
07D0
07D0
07D0
1BE4
FFFF
ENDCHAR
STARTCHAR J
ENCODING 74
SWIDTH 396 0
DWIDTH 11 0
BBX 11 19 0 0
BITMAP
07FFF8
007F90
002F00
002F00
002F00
002F00
002F00
002F00
002F00
002F00
002F00
002F00
002F00
002F00
002F00
602E00
F82E00
BD7C00
2FE400
ENDCHAR
STARTCHAR K
ENCODING 75
SWIDTH 702 0
DWIDTH 20 0
BBX 19 19 1 0
BITMAP
FFFF0BFFD0
1FE401FE40
07D001F400
07D002D000
07D00B0000
07D02C0000
07D0B00000
07D2800000
07DA000000
07FF400000
07DFD00000
07D3F40000
07D0FD0000
07D03F4000
07D00FD000
07D003F400
07D001FD00
1BE401FF90
FFFF0BFFF4
ENDCHAR
STARTCHAR L
ENCODING 76
SWIDTH 585 0
DWIDTH 16 0
BBX 15 19 1 0
BITMAP
BFFF0000
1FF40000
07D00000
07D00000
07D00000
07D00000
07D00000
07D00000
07D00000
07D00000
07D00000
07D00000
07D00000
07D00004
07D00018
07D00028
07D00074
0BE406F4
BFFFFFF0
ENDCHAR
STARTCHAR M
ENCODING 77
SWIDTH 895 0
DWIDTH 25 0
BBX 24 19 0 0
BITMAP
3FF800000BFE
07FC00000FF4
02FE00002FD0
02FF00003FD0
02AF400077D0
029F8000B3D0
028BD001D3D0
0287E002C3D0
0283F00383D0
0281F40743D0
0280FC0A03D0
0280BD1D03D0
02807E2C03D0
02802F3403D0
02801FF003D0
02C00FE003D0
02C00BD007D0
07E003801BF4
7FFD0240BFFE
ENDCHAR
STARTCHAR N
ENCODING 78
SWIDTH 742 0
DWIDTH 21 0
BBX 20 19 0 0
BITMAP
7FF0002FFF
1BF80006F4
02FD0000E0
02FF4000E0
02AFC000D0
028FE000D0
0287F400D0
0281FD00D0
0280BF00D0
02802F80D0
02800FD0D0
028007F4D0
028001FCD0
028000BED0
0280003FD0
02C0001FD0
02C00007D0
07E40002D0
7FFD000090
ENDCHAR
STARTCHAR O
ENCODING 79
SWIDTH 738 0
DWIDTH 21 0
BBX 19 19 1 0
BITMAP
001AFE8000
00BD46F800
03E0007E00
0B80001F80
1F40000BD0
3F000007E0
7E000003F0
7D000002F0
BD000002F4
BD000002F4
BD000002F4
7E000002F0
7E000003F0
3F000007E0
2F40000BC0
0F80000F40
07E0002E00
00B945F400
001BFE8000
ENDCHAR
STARTCHAR P
ENCODING 80
SWIDTH 569 0
DWIDTH 16 0
BBX 15 19 1 0
BITMAP
BFFFE900
0BD16F80
07D007E0
07D003F0
07D002F4
07D002F4
07D002F0
07D002E0
07D007D0
07D02F40
07FFF800
07D00000
07D00000
07D00000
07D00000
07D00000
07D00000
1BF40000
BFFF0000
ENDCHAR
STARTCHAR Q
ENCODING 81
SWIDTH 737 0
DWIDTH 21 0
BBX 19 24 1 -5
BITMAP
001BFE8000
00B946F800
03E0007E00
0B80001F80
1F40000BD0
3F000007E0
7E000003F0
7D000003F0
BD000002F4
BD000002F4
BD000002F0
7D000003F0
7E000003E0
3F000007E0
2F40000BC0
0F80000F40
07E0002E00
01F945F800
001BFF8000
00003F4000
00002FD000
00000FF400
000002FE40
0000006FFC
ENDCHAR
STARTCHAR R
ENCODING 82
SWIDTH 659 0
DWIDTH 18 0
BBX 18 19 1 0
BITMAP
BFFFE90000
0BD06F8000
07D007E000
07D002F000
07D002F400
07D002F400
07D002F000
07D007D000
07D06F4000
07FFF40000
07D6F40000
07D0BD0000
07D07F0000
07D02F8000
07D00FD000
07D007F000
07D002F800
1BE400FE40
BFFF007FE0
ENDCHAR
STARTCHAR S
ENCODING 83
SWIDTH 504 0
DWIDTH 14 0
BBX 12 19 1 0
BITMAP
06FE5C
1F41FD
3C003D
7C001D
BC000D
BD0009
7F4000
2FE400
0BFE00
01FFD0
002FF8
0002FD
0000BF
C0002F
D0002F
E0002F
F4003E
BE41B8
A6FF90
ENDCHAR
STARTCHAR T
ENCODING 84
SWIDTH 603 0
DWIDTH 17 0
BBX 17 19 0 0
BITMAP
7FFFFFFF40
7903E01F40
7003E00340
6003E00240
9003E00240
0003E00000
0003E00000
0003E00000
0003E00000
0003E00000
0003E00000
0003E00000
0003E00000
0003E00000
0003E00000
0003E00000
0003F00000
000BF40000
00BFFF8000
ENDCHAR
STARTCHAR U
ENCODING 85
SWIDTH 752 0
DWIDTH 21 0
BBX 21 19 0 0
BITMAP
7FFF801FFF80
07F90002F900
03F00000F000
02F00000B000
02F00000B000
02F00000B000
02F00000B000
02F00000B000
02F00000B000
02F00000B000
02F00000B000
02F00000B000
02F00000B000
02F00000E000
01F40000E000
00FC0002C000
00BE401B8000
002FFFFE0000
0006FFA40000
ENDCHAR
STARTCHAR V
ENCODING 86
SWIDTH 680 0
DWIDTH 19 0
BBX 21 19 -1 0
BITMAP
7FFF400BFF40
1BF90001F900
03F40000B000
01F80000E000
00FC0001C000
00BD00038000
003F00074000
002F400B0000
001F800D0000
000FC01C0000
0007D0280000
0003F0740000
0002F4A00000
0001F8D00000
0000BDC00000
00007F800000
00003F400000
00002E000000
00000D000000
ENDCHAR
STARTCHAR W
ENCODING 87
SWIDTH 944 0
DWIDTH 26 0
BBX 28 19 -1 0
BITMAP
7FFF0BFFD01FFD
1BF401FE4006F4
03F4007D0002D0
01F4003E0002C0
00FC002F000380
00BD001F800740
007E001FC00B00
003F002FD00E00
002F4037E01D00
000F8072F02C00
000BD0A1F43400
0007E1D0F87000
0003F280BCA000
0002F7407DD000
0000FF003FC000
0000BE001F8000
00007D000F4000
00003C000B0000
00002800060000
ENDCHAR
STARTCHAR X
ENCODING 88
SWIDTH 664 0
DWIDTH 19 0
BBX 19 19 0 0
BITMAP
BFFF41FFF4
1BF8002F40
02F8002D00
00FD007400
007E00E000
002F42C000
000FC74000
0007ED0000
0002F80000
0000FC0000
0002FE0000
00072F4000
001D0FC000
003807E000
00B002F400
01D001FC00
078000BE00
1F8000BF90
FFF407FFF4
ENDCHAR
STARTCHAR Y
ENCODING 89
SWIDTH 647 0
DWIDTH 18 0
BBX 19 19 0 0
BITMAP
FFFD00FFF4
6FE0001F90
0BE0001D00
02F4002800
01FC007400
00BE00E000
003F01C000
001F834000
000BDA0000
0003FD0000
0001F80000
0000F40000
0000F40000
0000F40000
0000F40000
0001F40000
0001F80000
0006FD0000
003FFFD000
ENDCHAR
STARTCHAR Z
ENCODING 90
SWIDTH 594 0
DWIDTH 17 0
BBX 16 19 0 0
BITMAP
0FFFFFFE
0F9001FC
1D0002F4
1C0007E0
18000FC0
00002F40
00007E00
0000FD00
0002F800
0007E000
000FD000
002F8000
007F0000
00FD0001
02F80006
07F0000A
0FD0001D
2F80017D
7FFFFFFC
ENDCHAR
STARTCHAR bracketleft
ENCODING 91
SWIDTH 349 0
DWIDTH 10 0
BBX 7 27 2 -6
BITMAP
7FF4
7800
7800
7800
7800
7800
7800
7800
7800
7800
7800
7800
7800
7800
7800
7800
7800
7800
7800
7800
7800
7800
7800
7800
7800
7800
7FF4
ENDCHAR
STARTCHAR backslash
ENCODING 92
SWIDTH 385 0
DWIDTH 11 0
BBX 9 23 1 -3
BITMAP
E00000
B00000
740000
380000
2C0000
1D0000
0E0000
0B0000
074000
038000
02C000
01C000
00D000
00A000
007000
003400
002800
001C00
000D00
000E00
000B00
000740
000380
ENDCHAR
STARTCHAR bracketright
ENCODING 93
SWIDTH 349 0
DWIDTH 10 0
BBX 7 27 1 -6
BITMAP
BFF4
00F4
00F4
00F4
00F4
00F4
00F4
00F4
00F4
00F4
00F4
00F4
00F4
00F4
00F4
00F4
00F4
00F4
00F4
00F4
00F4
00F4
00F4
00F4
00F4
00F4
BFF4
ENDCHAR
STARTCHAR asciicircum
ENCODING 94
SWIDTH 480 0
DWIDTH 13 0
BBX 12 11 1 9
BITMAP
002400
00BC00
00ED00
02CB00
038740
0702C0
0E01D0
1D00B0
380074
74002C
E0001D
ENDCHAR
STARTCHAR underscore
ENCODING 95
SWIDTH 512 0
DWIDTH 14 0
BBX 15 1 0 -3
BITMAP
FFFFFFF4
ENDCHAR
STARTCHAR grave
ENCODING 96
SWIDTH 222 0
DWIDTH 6 0
BBX 4 5 1 15
BITMAP
A4
BC
3D
0E
07
ENDCHAR
STARTCHAR a
ENCODING 97
SWIDTH 480 0
DWIDTH 13 0
BBX 12 14 1 0
BITMAP
06FE40
2E1BC0
7C03E0
7C02E0
2402E0
0002E0
006FE0
0B92E0
3D02E0
B802E0
F802E0
B803F1
7D19FF
1FE0B8
ENDCHAR
STARTCHAR b
ENCODING 98
SWIDTH 522 0
DWIDTH 15 0
BBX 14 20 0 0
BITMAP
1B800000
AF800000
0B800000
0B800000
0B800000
0B800000
0B86F800
0B9FFF00
0BA42F80
0B800BD0
0B8007D0
0B8003E0
0B8003E0
0B8003E0
0B8003D0
0B8003C0
0B800780
0B800F00
0BE46D00
01BF9000
ENDCHAR
STARTCHAR c
ENCODING 99
SWIDTH 446 0
DWIDTH 12 0
BBX 11 14 1 0
BITMAP
01BF80
0B47F0
2C01F4
7800F4
B40010
F00000
F00000
F40000
F40000
B80004
7D0018
3F91B0
1FFFD0
02FE40
ENDCHAR
STARTCHAR d
ENCODING 100
SWIDTH 539 0
DWIDTH 15 0
BBX 13 20 1 0
BITMAP
00006D00
0002BD00
00003D00
00003D00
00003D00
00003D00
01BFBD00
0B91FD00
2D007D00
7C003D00
B8003D00
F4003D00
F4003D00
F4003D00
F8003D00
F8003D00
BD003D00
7F41BD00
2FFF7F40
06F93E80
ENDCHAR
STARTCHAR e
ENCODING 101
SWIDTH 464 0
DWIDTH 13 0
BBX 11 14 1 0
BITMAP
01BE40
0E47D0
2C01F0
7800B8
B400BC
FFFFFC
F40000
F40000
F80000
BC0000
7E0018
2F91B4
0FFFE0
01BE40
ENDCHAR
STARTCHAR f
ENCODING 102
SWIDTH 307 0
DWIDTH 9 0
BBX 11 21 0 0
BITMAP
002FD0
00A6F4
01D0B4
02D010
03D000
03D000
03D000
7FFF80
07D000
03D000
03D000
03D000
03D000
03D000
03D000
03D000
03D000
03D000
07D000
1BE400
BFFF00
ENDCHAR
STARTCHAR g
ENCODING 103
SWIDTH 484 0
DWIDTH 14 0
BBX 14 20 0 -6
BITMAP
01BFFFD0
07D1F800
0F407D00
1F003D00
2F003E00
1F003D00
1F403D00
07D0B800
02BFD000
0A000000
1E000000
2F500000
1FFFFE00
0BFFFF80
090007C0
2C0002C0
78000280
7C000340
3F506900
0BFE9000
ENDCHAR
STARTCHAR h
ENCODING 104
SWIDTH 577 0
DWIDTH 16 0
BBX 16 20 0 0
BITMAP
1AC00000
6FC00000
07C00000
07C00000
07C00000
07C00000
07C1BE00
07CBFF80
07F80BC0
07D003D0
07C003D0
07C003D0
07C002E0
07C002E0
07C002E0
07C002E0
07C002E0
07C003E0
0BE007F4
3FFD3FFE
ENDCHAR
STARTCHAR i
ENCODING 105
SWIDTH 285 0
DWIDTH 8 0
BBX 7 19 1 0
BITMAP
0F40
1F80
0F40
0000
0000
6B40
AF40
1F40
0F40
0F40
0F40
0F40
0F40
0F40
0F40
0F40
1F40
2F80
FFF4
ENDCHAR
STARTCHAR j
ENCODING 106
SWIDTH 263 0
DWIDTH 7 0
BBX 9 25 -3 -6
BITMAP
001F00
002F40
001F00
000000
000000
006B00
00AF00
001F00
001F00
001F00
001F00
001F00
001F00
001F00
001F00
001F00
001F00
001F00
001F00
001F00
001F00
101E00
B81D00
BE7800
2FE000
ENDCHAR
STARTCHAR k
ENCODING 107
SWIDTH 542 0
DWIDTH 15 0
BBX 14 20 1 0
BITMAP
6B000000
AF000000
1F000000
1F000000
1F000000
1F000000
1F03FFC0
1F00BD00
1F00E000
1F038000
1F0E0000
1F740000
1FFC0000
1F7E0000
1F1F8000
1F07E000
1F02F400
1F00BD00
2F807F40
FFF4FFF0
ENDCHAR
STARTCHAR l
ENCODING 108
SWIDTH 283 0
DWIDTH 8 0
BBX 8 20 0 0
BITMAP
16C0
6FC0
07C0
07C0
07C0
07C0
07C0
07C0
07C0
07C0
07C0
07C0
07C0
07C0
07C0
07C0
07C0
07C0
0BE0
3FFD
ENDCHAR
STARTCHAR m
ENCODING 109
SWIDTH 852 0
DWIDTH 24 0
BBX 23 14 1 0
BITMAP
AF06F80BF400
1F647E747E00
0F801F801F00
0F400F401F00
0F400F400F40
0F400F400F40
0F400F400F40
0F400F400F40
0F400F400F40
0F400F400F40
0F400F400F40
1F400F401F40
2F902F902F80
FFF5FFF4FFF4
ENDCHAR
STARTCHAR n
ENCODING 110
SWIDTH 576 0
DWIDTH 16 0
BBX 15 14 1 0
BITMAP
6B06F800
FF2FFE00
1FA02F00
0F401F40
0F400F40
0F400F40
0F400F40
0F400F40
0F400F40
0F400F40
0F400F40
1F400F80
2F801F90
FFF4FFF8
ENDCHAR
STARTCHAR o
ENCODING 111
SWIDTH 514 0
DWIDTH 14 0
BBX 13 14 1 0
BITMAP
01BF9000
0B91F400
2E007D00
7C002E00
B8001F00
F8001F40
F8001F40
F8001F40
F8001F40
BC001F00
7C002E00
2E003C00
0F91B400
01BF8000
ENDCHAR
STARTCHAR p
ENCODING 112
SWIDTH 537 0
DWIDTH 15 0
BBX 14 20 0 -6
BITMAP
1AC2F900
6FCFFF40
07E41FC0
07D007E0
07C002F0
07C002F0
07C002F0
07C002F0
07C002F0
07C002E0
07C003D0
07D00B80
07F92E00
07DBE400
07C00000
07C00000
07C00000
07C00000
1BE40000
7FFE0000
ENDCHAR
STARTCHAR q
ENCODING 113
SWIDTH 521 0
DWIDTH 15 0
BBX 14 20 1 -6
BITMAP
01BF9D00
0B91FD00
2D007D00
78003D00
B8003D00
F4003D00
F4003D00
F4003D00
F8003D00
F8003D00
BD003D00
7F41BD00
2FFF7D00
06F83D00
00003D00
00003D00
00003D00
00003D00
0001BE40
000BFFD0
ENDCHAR
STARTCHAR r
ENCODING 114
SWIDTH 380 0
DWIDTH 11 0
BBX 11 14 0 0
BITMAP
16C2F0
2FCBF4
07E9B0
03E000
03D000
03D000
03D000
03D000
03D000
03D000
03D000
07D000
0BE400
7FFE00
ENDCHAR
STARTCHAR s
ENCODING 115
SWIDTH 395 0
DWIDTH 11 0
BBX 10 14 1 0
BITMAP
0BFA40
791F40
B40340
F40240
BD0140
7F8000
1FF400
06FE00
006F80
800BD0
D007D0
E003C0
F91B80
9BF900
ENDCHAR
STARTCHAR t
ENCODING 116
SWIDTH 315 0
DWIDTH 9 0
BBX 8 18 1 0
BITMAP
0300
0B00
0F00
2F00
BFFC
1F00
1F00
1F00
1F00
1F00
1F00
1F00
1F00
1F00
1F00
1F00
0F49
07E4
ENDCHAR
STARTCHAR u
ENCODING 117
SWIDTH 570 0
DWIDTH 16 0
BBX 15 14 0 0
BITMAP
6BC06BC0
1FC01BC0
0BC007C0
07C003C0
07C003C0
07C003C0
07C003C0
07C003C0
07C003C0
07C003C0
07C003C0
03D00BD0
02F46BD0
00BF83E8
ENDCHAR
STARTCHAR v
ENCODING 118
SWIDTH 481 0
DWIDTH 13 0
BBX 15 14 -1 0
BITMAP
7FF80FFC
1FD002E0
07D001C0
03E00280
02F00740
01F40A00
00B80D00
007C1C00
003D2800
002E3400
001F6000
000FD000
000BC000
00038000
ENDCHAR
STARTCHAR w
ENCODING 119
SWIDTH 749 0
DWIDTH 21 0
BBX 23 14 -1 0
BITMAP
7FF8BFF42FF4
1FD01FD007D0
07D00BC00340
03E003D00700
02F003E00A00
01F407F00D00
00B809F41C00
007C1CB82800
003D287C3400
002F343E6000
001F602E9000
000FD00FC000
0007C00B8000
000380074000
ENDCHAR
STARTCHAR x
ENCODING 120
SWIDTH 479 0
DWIDTH 13 0
BBX 14 14 0 0
BITMAP
BFF4BFC0
1FD02E40
07D02800
02F07000
00F4D000
007E4000
002F0000
002F8000
0077D000
01D2F000
0380F800
0B007D00
6E007F40
FF81FFE0
ENDCHAR
STARTCHAR y
ENCODING 121
SWIDTH 483 0
DWIDTH 14 0
BBX 15 20 -1 -6
BITMAP
7FF80FF8
1FD002E0
07D002C0
03E00380
02F00700
00F80A00
00BC0D00
003D1C00
002F2800
001F7400
000BF000
0007D000
0003C000
00028000
00034000
000B0000
000D0000
1A6C0000
2FF40000
1F900000
ENDCHAR
STARTCHAR z
ENCODING 122
SWIDTH 458 0
DWIDTH 13 0
BBX 11 14 1 0
BITMAP
BFFFF8
B502F4
A007E0
900BC0
001F40
003E00
00BC00
01F400
03E000
0BC008
1F4018
3E0028
BD55B8
FFFFF8
ENDCHAR
STARTCHAR braceleft
ENCODING 123
SWIDTH 327 0
DWIDTH 9 0
BBX 8 27 0 -6
BITMAP
006A
01F5
03C0
0780
0780
07C0
07C0
03C0
03C0
03C0
02C0
0380
0B40
7C00
2E00
0380
02C0
03C0
03C0
03C0
03C0
07C0
0780
0780
03C0
02E0
006F
ENDCHAR
STARTCHAR bar
ENCODING 124
SWIDTH 267 0
DWIDTH 7 0
BBX 2 26 3 -6
BITMAP
E0
E0
E0
E0
E0
E0
E0
E0
E0
E0
E0
E0
E0
E0
E0
E0
E0
E0
E0
E0
E0
E0
E0
E0
E0
E0
ENDCHAR
STARTCHAR braceright
ENCODING 125
SWIDTH 327 0
DWIDTH 9 0
BBX 8 27 1 -6
BITMAP
B900
1B40
03C0
02D0
02D0
02D0
02D0
03D0
03C0
03C0
03C0
02C0
00E4
002D
00B9
01D0
03C0
03C0
03C0
03D0
02D0
02D0
02D0
02D0
03D0
0B80
BD00
ENDCHAR
STARTCHAR asciitilde
ENCODING 126
SWIDTH 557 0
DWIDTH 16 0
BBX 14 4 1 6
BITMAP
0AA000E0
3FFE46D0
B81FFF80
E001BE00
ENDCHAR
STARTCHAR uni00A0
ENCODING 160
SWIDTH 235 0
DWIDTH 7 0
BBX 1 1 0 0
BITMAP
00
ENDCHAR
STARTCHAR exclamdown
ENCODING 161
SWIDTH 282 0
DWIDTH 8 0
BBX 4 19 2 -5
BITMAP
7D
BE
7D
00
00
28
28
28
38
3C
3C
3C
7C
7D
7D
7D
7D
7D
3C
ENDCHAR
STARTCHAR cent
ENCODING 162
SWIDTH 495 0
DWIDTH 14 0
BBX 12 20 1 -1
BITMAP
000D00
000C00
000D00
01BFE0
0B5DF8
1D1CBC
3C1C7C
781C00
B81C00
B81C00
B81800
BC1800
7D1800
3F1809
2FE868
0BFFF0
01BF80
002800
002800
001400
ENDCHAR
STARTCHAR sterling
ENCODING 163
SWIDTH 495 0
DWIDTH 14 0
BBX 14 19 0 0
BITMAP
0006F900
001D2F40
00740BC0
00B40280
00F00000
00F40000
01F40000
00F40000
00F40000
2FFFF400
00F80000
00B80000
00B80000
00B80000
00740000
2FF40050
65BD06C0
A1EFFF40
2E46F900
ENDCHAR
STARTCHAR currency
ENCODING 164
SWIDTH 617 0
DWIDTH 17 0
BBX 15 16 1 0
BITMAP
10000004
B400007C
2E6FE5F4
0BE46FC0
07800780
0B0002C0
0D0001D0
1D0000E0
1D0000E0
0D0000D0
0E0002D0
07800780
0BE01F80
2E6FF9F0
B800007C
10000014
ENDCHAR
STARTCHAR yen
ENCODING 165
SWIDTH 495 0
DWIDTH 14 0
BBX 14 18 0 0
BITMAP
FFF03FE0
7F900B80
1FC00A00
0BD00D00
03F01800
02F43400
00FC6000
007D9000
002FC000
0FFFFF00
001F4000
001F4000
001F4000
0FFFFF00
001F4000
001F4000
006FD000
02FFF800
ENDCHAR
STARTCHAR brokenbar
ENCODING 166
SWIDTH 267 0
DWIDTH 7 0
BBX 2 20 3 0
BITMAP
E0
E0
E0
E0
E0
E0
E0
E0
00
00
00
00
E0
E0
E0
E0
E0
E0
E0
E0
ENDCHAR
STARTCHAR section
ENCODING 167
SWIDTH 491 0
DWIDTH 14 0
BBX 10 25 2 -6
BITMAP
02F900
1E4780
2802C0
3802D0
3C03C0
2E0000
1F8000
07F000
06FD00
247F00
701F80
B007D0
B401E0
7C00E0
3F00D0
1FC1C0
07FA00
01FC00
007F00
100F80
B40780
F00380
B00380
781B00
1BE800
ENDCHAR
STARTCHAR dieresis
ENCODING 168
SWIDTH 392 0
DWIDTH 11 0
BBX 9 3 1 16
BITMAP
B80B80
FC0FC0
B80B80
ENDCHAR
STARTCHAR copyright
ENCODING 169
SWIDTH 781 0
DWIDTH 22 0
BBX 20 20 1 0
BITMAP
0006FE9000
007945B800
01D0000740
07400001C0
0D00000060
2802FE7024
340F45F018
702D00700C
603C00300D
603C000009
603C000009
603C000009
702E00000C
300F40641C
2802FF8024
0D00000070
06000000D0
02D0000740
0079006D00
000BFF9000
ENDCHAR
STARTCHAR ordfeminine
ENCODING 170
SWIDTH 410 0
DWIDTH 11 0
BBX 10 11 1 7
BITMAP
1AF800
782E00
B80F00
640F00
000F00
06EF00
2D0F00
B40F00
F00F00
B41B40
2E87E0
ENDCHAR
STARTCHAR guillemotleft
ENCODING 171
SWIDTH 517 0
DWIDTH 14 0
BBX 12 11 1 1
BITMAP
00600A
01C02C
0740B4
1E02D0
B80B80
F40F40
7D07C0
1F01E0
078078
00D01D
002006
ENDCHAR
STARTCHAR logicalnot
ENCODING 172
SWIDTH 720 0
DWIDTH 20 0
BBX 17 10 1 2
BITMAP
7FFFFFFF80
7FFFFFFFC0
00000003C0
00000003C0
00000003C0
00000003C0
00000003C0
00000003C0
00000003C0
0000000140
ENDCHAR
STARTCHAR uni00AD
ENCODING 173
SWIDTH 315 0
DWIDTH 9 0
BBX 7 2 1 6
BITMAP
BFF4
BFF8
ENDCHAR
STARTCHAR registered
ENCODING 174
SWIDTH 413 0
DWIDTH 12 0
BBX 10 11 1 11
BITMAP
02A400
140600
500080
865450
831C50
83A420
833450
831850
568980
140600
06A400
ENDCHAR
STARTCHAR macron
ENCODING 175
SWIDTH 350 0
DWIDTH 10 0
BBX 8 1 1 16
BITMAP
FFFF
ENDCHAR
STARTCHAR degree
ENCODING 176
SWIDTH 409 0
DWIDTH 11 0
BBX 9 9 1 12
BITMAP
06F800
2E5E00
380380
7002C0
B002C0
7002C0
740380
2D0B00
0BF900
ENDCHAR
STARTCHAR plusminus
ENCODING 177
SWIDTH 720 0
DWIDTH 20 0
BBX 18 18 1 -1
BITMAP
0000600000
0000F00000
0000F00000
0000F00000
0000F00000
0000F00000
7FFFFFFFD0
7FFFFFFFD0
0000F00000
0000F00000
0000F00000
0000F00000
0000F00000
0000F00000
0000500000
0000000000
7FFFFFFFD0
7FFFFFFFD0
ENDCHAR
STARTCHAR twosuperior
ENCODING 178
SWIDTH 373 0
DWIDTH 10 0
BBX 10 13 0 7
BITMAP
06F900
1FFF80
240BC0
1003D0
0003C0
000780
000A00
002800
00A000
028010
0A0060
2FFFE0
7FFFD0
ENDCHAR
STARTCHAR threesuperior
ENCODING 179
SWIDTH 374 0
DWIDTH 10 0
BBX 9 13 1 7
BITMAP
1BE400
7FFD00
902E00
002D00
006400
0BE400
007E00
000F40
000B40
000B40
000B00
E41D00
BE9000
ENDCHAR
STARTCHAR acute
ENCODING 180
SWIDTH 222 0
DWIDTH 6 0
BBX 5 5 1 15
BITMAP
0A40
2F00
3D00
B400
D000
ENDCHAR
STARTCHAR uni00B5
ENCODING 181
SWIDTH 556 0
DWIDTH 16 0
BBX 15 20 1 -6
BITMAP
3E002E00
3E002E00
3D002D00
3D002D00
3C002C00
3C003C00
3C003800
38007800
3800B800
3C00A800
3D02AC00
7F5B6E24
77FE1FF0
75F80B80
B4000000
B4000000
B8000000
B8000000
B8000000
A4000000
ENDCHAR
STARTCHAR paragraph
ENCODING 182
SWIDTH 605 0
DWIDTH 17 0
BBX 15 23 1 -4
BITMAP
01BFFFF4
0F9B5F40
2D0B0E00
3C0B0E00
7C0B0E00
7C0B0E00
7C0B0E00
7C0B0E00
3D0B0E00
1E0B0E00
079B0E00
005F0E00
000B0E00
000B0E00
000B0E00
000B0E00
000B0E00
000B0E00
000B0E00
000B0E00
000B0E00
001F0F40
01BF0FF4
ENDCHAR
STARTCHAR periodcentered
ENCODING 183
SWIDTH 282 0
DWIDTH 8 0
BBX 4 3 2 6
BITMAP
7D
BE
7D
ENDCHAR
STARTCHAR cedilla
ENCODING 184
SWIDTH 247 0
DWIDTH 7 0
BBX 5 6 1 -6
BITMAP
2400
2000
3F40
02C0
42C0
BF40
ENDCHAR
STARTCHAR onesuperior
ENCODING 185
SWIDTH 343 0
DWIDTH 10 0
BBX 8 13 1 7
BITMAP
1BC0
ABC0
03C0
03C0
03C0
03C0
03C0
03C0
03C0
03C0
03C0
07D0
BFFD
ENDCHAR
STARTCHAR ordmasculine
ENCODING 186
SWIDTH 432 0
DWIDTH 12 0
BBX 11 11 1 7
BITMAP
06F900
2D0780
7802E0
F401F0
F000F4
F000F4
F000F0
F400F0
7801E0
2D0780
06F900
ENDCHAR
STARTCHAR guillemotright
ENCODING 187
SWIDTH 517 0
DWIDTH 14 0
BBX 13 11 1 1
BITMAP
70060000
2C028000
0B00A000
03D03C00
01F41F00
00F80F40
02E02E00
07807800
0E01E000
28038000
60060000
ENDCHAR
STARTCHAR onequarter
ENCODING 188
SWIDTH 861 0
DWIDTH 24 0
BBX 23 21 1 -1
BITMAP
014000009000
6F800002C000
AF8000074000
0780000A0000
0780001C0000
078000380000
078000700000
078000D00000
078002800740
078007400F40
07800A002F40
0BC01C00AB40
BFFC3401CB40
0000B0034B40
0000D00A0B40
0002802C0B40
0007403FFFF4
000E00000B40
001C00000B40
003400000B40
006000000000
ENDCHAR
STARTCHAR onehalf
ENCODING 189
SWIDTH 889 0
DWIDTH 25 0
BBX 23 21 1 -1
BITMAP
00000000D000
1B8000028000
AF8000074000
0780000A0000
0780001C0000
078000340000
078000B00000
078000D00000
078002807F80
07800702ABF0
07800E0500F4
0BC01C0000B8
BFFC340000B4
0000A00000F0
0001D00002C0
000280000A00
000700002804
000D0001D00C
002C0007FFFC
0034000BFFF8
005000000000
ENDCHAR
STARTCHAR threequarters
ENCODING 190
SWIDTH 861 0
DWIDTH 24 0
BBX 23 21 1 -1
BITMAP
000000009000
1BE40002C000
657D00074000
801E000A0000
002D001C0000
00A400380000
0FE400700000
017E00D00000
001F02800740
000F47400F40
000F0A002F40
F41D1C00AB40
BFE43401CB40
0000B0034B40
0000D00A0B40
0002802C0B40
0007403FFFF4
000E00000B40
001C00000B40
003400000B40
006000000000
ENDCHAR
STARTCHAR questiondown
ENCODING 191
SWIDTH 411 0
DWIDTH 12 0
BBX 10 19 1 -5
BITMAP
01F400
02F400
01F000
000000
000000
009000
00D000
01C000
038000
0B0000
2E0000
3C0000
B80000
F40190
F403E0
F402E0
B801E0
7E02C0
0BFE00
ENDCHAR
STARTCHAR Agrave
ENCODING 192
SWIDTH 718 0
DWIDTH 20 0
BBX 20 24 0 0
BITMAP
0002900000
0001F80000
00006D0000
0000074000
0000000000
0000380000
00007C0000
0000BE0000
0000FF0000
0002DF4000
00038FC000
00074BD000
000A07E000
001D03F000
002C02F800
003800FC00
007400BD00
00FFFFFF00
01E0007F40
02C0002F80
0780000FD0
0B40000BE0
2F40001BF8
FFF000BFFF
ENDCHAR
STARTCHAR Aacute
ENCODING 193
SWIDTH 718 0
DWIDTH 20 0
BBX 20 24 0 0
BITMAP
0000064000
00002F4000
0000B80000
0001D00000
0000000000
0000380000
00007C0000
0000BE0000
0000FF0000
0002DF4000
00038FC000
00074BD000
000A07E000
001D03F000
002C02F800
003800FC00
007400BD00
00FFFFFF00
01E0007F40
02C0002F80
0780000FD0
0B40000BE0
2F40001BF8
FFF000BFFF
ENDCHAR
STARTCHAR Acircumflex
ENCODING 194
SWIDTH 718 0
DWIDTH 20 0
BBX 20 24 0 0
BITMAP
00007D0000
0001FF0000
000383C000
000A00A000
0000000000
0000380000
00007C0000
0000BE0000
0000FF0000
0002DF4000
00038FC000
00074BD000
000A07E000
001D03F000
002C02F800
003800FC00
007400BD00
00FFFFFF00
01E0007F40
02C0002F80
0780000FD0
0B40000BE0
2F40001BF8
FFF000BFFF
ENDCHAR
STARTCHAR Atilde
ENCODING 195
SWIDTH 718 0
DWIDTH 20 0
BBX 20 24 0 0
BITMAP
0006E41400
000FFFF000
00181BD000
0000000000
0000000000
0000380000
00007C0000
0000BE0000
0000FF0000
0002DF4000
00038FC000
00074BD000
000A07E000
001D03F000
002C02F800
003800FC00
007400BD00
00FFFFFF00
01E0007F40
02C0002F80
0780000FD0
0B40000BE0
2F40001BF8
FFF000BFFF
ENDCHAR
STARTCHAR Adieresis
ENCODING 196
SWIDTH 718 0
DWIDTH 20 0
BBX 20 23 0 0
BITMAP
001E01F400
002F42F800
001E01F400
0000000000
0000380000
00007C0000
0000BE0000
0000FF0000
0002DF4000
00038FC000
00074BD000
000A07E000
001D03F000
002C02F800
003800FC00
007400BD00
00FFFFFF00
01E0007F40
02C0002F80
0780000FD0
0B40000BE0
2F40001BF8
FFF000BFFF
ENDCHAR
STARTCHAR Aring
ENCODING 197
SWIDTH 718 0
DWIDTH 20 0
BBX 20 25 0 0
BITMAP
0000BE0000
0002974000
0003428000
0002828000
0000BE0000
0000000000
0000380000
00007C0000
0000BE0000
0000FF0000
0002DF4000
00038FC000
00074BD000
000A07E000
001D03F000
002C02F800
003800FC00
007400BD00
00FFFFFF00
01E0007F40
02C0002F80
0780000FD0
0B40000BE0
2F40001BF8
FFF000BFFF
ENDCHAR
STARTCHAR AE
ENCODING 198
SWIDTH 894 0
DWIDTH 25 0
BBX 25 19 -1 0
BITMAP
00003FFFFFFF40
000007BD556F40
00000A7C000740
00000D7C000240
0000287C000140
0000707C000000
0000A07C003000
0001C07C003000
0002807C00B000
0007FFFFFFF000
000E00BD01B000
001C007C003000
0038007C003000
00B0007C000040
00D0007C0000C0
02C0007C0001C0
078000BC000380
1F9001FD556F80
BFF40FFFFFFF40
ENDCHAR
STARTCHAR Ccedilla
ENCODING 199
SWIDTH 670 0
DWIDTH 19 0
BBX 17 25 1 -6
BITMAP
001AFF9700
00BD45FF00
03E0002F00
0B80000F00
1F40000B00
3F00000700
7E00000300
7D00000000
BD00000000
BD00000000
BD00000000
7E00000000
7E00000000
3F00000000
2F80000000
0FE0000740
07F9006E00
00BFFFF400
001BFE4000
0000800000
0001800000
0001F80000
00001E0000
00001D0000
0007F80000
ENDCHAR
STARTCHAR Egrave
ENCODING 200
SWIDTH 626 0
DWIDTH 18 0
BBX 16 24 1 0
BITMAP
00290000
001F8000
0002D000
00007400
00000000
FFFFFFF8
0BD555B8
07D00028
07D0001C
07D00000
07D00180
07D00180
07D00280
07D00780
07FFFF80
07D01680
07D00180
07D00000
07D00006
07D0000A
07D0000D
07D0002D
0BD555BC
FFFFFFFC
ENDCHAR
STARTCHAR Eacute
ENCODING 201
SWIDTH 626 0
DWIDTH 18 0
BBX 16 24 1 0
BITMAP
00006800
0002F400
00078000
001D0000
00000000
FFFFFFF8
0BD555B8
07D00028
07D0001C
07D00000
07D00180
07D00180
07D00280
07D00780
07FFFF80
07D01680
07D00180
07D00000
07D00006
07D0000A
07D0000D
07D0002D
0BD555BC
FFFFFFFC
ENDCHAR
STARTCHAR Ecircumflex
ENCODING 202
SWIDTH 626 0
DWIDTH 18 0
BBX 16 24 1 0
BITMAP
0007D000
001FF400
00382C00
00A00A00
00000000
FFFFFFF8
0BD555B8
07D00028
07D0001C
07D00000
07D00180
07D00180
07D00280
07D00780
07FFFF80
07D01680
07D00180
07D00000
07D00006
07D0000A
07D0000D
07D0002D
0BD555BC
FFFFFFFC
ENDCHAR
STARTCHAR Edieresis
ENCODING 203
SWIDTH 626 0
DWIDTH 18 0
BBX 16 23 1 0
BITMAP
01E00F40
02F41F80
01E00F40
00000000
FFFFFFF8
0BD555B8
07D00028
07D0001C
07D00000
07D00180
07D00180
07D00280
07D00780
07FFFF80
07D01680
07D00180
07D00000
07D00006
07D0000A
07D0000D
07D0002D
0BD555BC
FFFFFFFC
ENDCHAR
STARTCHAR Igrave
ENCODING 204
SWIDTH 357 0
DWIDTH 10 0
BBX 8 24 1 0
BITMAP
2900
1F80
02D0
0074
0000
FFFF
1FE4
07D0
07D0
07D0
07D0
07D0
07D0
07D0
07D0
07D0
07D0
07D0
07D0
07D0
07D0
07D0
1BE4
FFFF
ENDCHAR
STARTCHAR Iacute
ENCODING 205
SWIDTH 357 0
DWIDTH 10 0
BBX 8 24 1 0
BITMAP
0068
02F4
0780
1D00
0000
FFFF
1FE4
07D0
07D0
07D0
07D0
07D0
07D0
07D0
07D0
07D0
07D0
07D0
07D0
07D0
07D0
07D0
1BE4
FFFF
ENDCHAR
STARTCHAR Icircumflex
ENCODING 206
SWIDTH 357 0
DWIDTH 10 0
BBX 8 24 1 0
BITMAP
07D0
1FF4
382C
A00A
0000
FFFF
1FE4
07D0
07D0
07D0
07D0
07D0
07D0
07D0
07D0
07D0
07D0
07D0
07D0
07D0
07D0
07D0
1BE4
FFFF
ENDCHAR
STARTCHAR Idieresis
ENCODING 207
SWIDTH 357 0
DWIDTH 10 0
BBX 10 23 0 0
BITMAP
7C03D0
BD07E0
7C03D0
000000
3FFFC0
07F900
01F400
01F400
01F400
01F400
01F400
01F400
01F400
01F400
01F400
01F400
01F400
01F400
01F400
01F400
01F400
06F900
3FFFC0
ENDCHAR
STARTCHAR Eth
ENCODING 208
SWIDTH 737 0
DWIDTH 21 0
BBX 19 19 1 0
BITMAP
BFFFFA4000
0BE55BF400
07D000BE00
03D0002F40
03D0000FC0
03D0000BE0
03D00007F0
03D00003F0
03D00003F0
FFFFF403F4
07E00003F0
03D00003F0
03D00003F0
03D00007E0
03D0000BC0
03D0001F80
07D0007E00
0BE05BF400
BFFFFA4000
ENDCHAR
STARTCHAR Ntilde
ENCODING 209
SWIDTH 742 0
DWIDTH 21 0
BBX 20 24 0 0
BITMAP
0001F90800
0007FFF800
00090BE000
0000000000
0000000000
7FF0002FFF
1BF80006F4
02FD0000E0
02FF4000E0
02AFC000D0
028FE000D0
0287F400D0
0281FD00D0
0280BF00D0
02802F80D0
02800FD0D0
028007F4D0
028001FCD0
028000BED0
0280003FD0
02C0001FD0
02C00007D0
07E40002D0
7FFD000090
ENDCHAR
STARTCHAR Ograve
ENCODING 210
SWIDTH 738 0
DWIDTH 21 0
BBX 19 24 1 0
BITMAP
0006800000
0007F00000
0000B80000
00001A0000
0000000000
001AFE8000
00BD46F800
03E0007E00
0B80001F80
1F40000BD0
3F000007E0
7E000003F0
7D000002F0
BD000002F4
BD000002F4
BD000002F4
7E000002F0
7E000003F0
3F000007E0
2F40000BC0
0F80000F40
07E0002E00
00B945F400
001BFE8000
ENDCHAR
STARTCHAR Oacute
ENCODING 211
SWIDTH 738 0
DWIDTH 21 0
BBX 19 24 1 0
BITMAP
00001A4000
00007E0000
0000F40000
0003800000
0000000000
001AFE8000
00BD46F800
03E0007E00
0B80001F80
1F40000BD0
3F000007E0
7E000003F0
7D000002F0
BD000002F4
BD000002F4
BD000002F4
7E000002F0
7E000003F0
3F000007E0
2F40000BC0
0F80000F40
07E0002E00
00B945F400
001BFE8000
ENDCHAR
STARTCHAR Ocircumflex
ENCODING 212
SWIDTH 738 0
DWIDTH 21 0
BBX 19 24 1 0
BITMAP
0000F80000
0002FE0000
000B4B4000
001C01C000
0000000000
001AFE8000
00BD46F800
03E0007E00
0B80001F80
1F40000BD0
3F000007E0
7E000003F0
7D000002F0
BD000002F4
BD000002F4
BD000002F4
7E000002F0
7E000003F0
3F000007E0
2F40000BC0
0F80000F40
07E0002E00
00B945F400
001BFE8000
ENDCHAR
STARTCHAR Otilde
ENCODING 213
SWIDTH 738 0
DWIDTH 21 0
BBX 19 24 1 0
BITMAP
000BE02000
002FFFD000
00206F8000
0000000000
0000000000
001AFE8000
00BD46F800
03E0007E00
0B80001F80
1F40000BD0
3F000007E0
7E000003F0
7D000002F0
BD000002F4
BD000002F4
BD000002F4
7E000002F0
7E000003F0
3F000007E0
2F40000BC0
0F80000F40
07E0002E00
00B945F400
001BFE8000
ENDCHAR
STARTCHAR Odieresis
ENCODING 214
SWIDTH 738 0
DWIDTH 21 0
BBX 19 23 1 0
BITMAP
002D02E000
007E03F000
002D02E000
0000000000
001AFE8000
00BD46F800
03E0007E00
0B80001F80
1F40000BD0
3F000007E0
7E000003F0
7D000002F0
BD000002F4
BD000002F4
BD000002F4
7E000002F0
7E000003F0
3F000007E0
2F40000BC0
0F80000F40
07E0002E00
00B945F400
001BFE8000
ENDCHAR
STARTCHAR multiply
ENCODING 215
SWIDTH 720 0
DWIDTH 20 0
BBX 16 16 2 -1
BITMAP
74000009
7D00003E
2F4000F8
0BD003E0
02F40F80
00BD3E00
002FF800
000BE000
000FF400
003EBD00
00F82F40
03E00BD0
0F8002F4
3E0000BD
B800002E
10000004
ENDCHAR
STARTCHAR Oslash
ENCODING 216
SWIDTH 737 0
DWIDTH 21 0
BBX 19 19 1 0
BITMAP
001BFE8240
00B946FB00
03E0007E00
0B80003F80
1F40009BC0
3F000287E0
7E000703F0
7D001D03F0
BD003402F4
BD00A002F4
BD028002F0
7D070002F0
7E0D0003E0
3F280007E0
2FA0000BC0
0FC0000F40
07E0002E00
0EB945F400
281BFE8000
ENDCHAR
STARTCHAR Ugrave
ENCODING 217
SWIDTH 752 0
DWIDTH 21 0
BBX 21 24 0 0
BITMAP
000064000000
00007E000000
00000B800000
000001D00000
000000000000
7FFF801FFF80
07F90002F900
03F00000F000
02F00000B000
02F00000B000
02F00000B000
02F00000B000
02F00000B000
02F00000B000
02F00000B000
02F00000B000
02F00000B000
02F00000B000
02F00000E000
01F40000E000
00FC0002C000
00BE401B8000
002FFFFE0000
0006FFA40000
ENDCHAR
STARTCHAR Uacute
ENCODING 218
SWIDTH 752 0
DWIDTH 21 0
BBX 21 24 0 0
BITMAP
000001A00000
000007E00000
00001F400000
000038000000
000000000000
7FFF801FFF80
07F90002F900
03F00000F000
02F00000B000
02F00000B000
02F00000B000
02F00000B000
02F00000B000
02F00000B000
02F00000B000
02F00000B000
02F00000B000
02F00000B000
02F00000E000
01F40000E000
00FC0002C000
00BE401B8000
002FFFFE0000
0006FFA40000
ENDCHAR
STARTCHAR Ucircumflex
ENCODING 219
SWIDTH 752 0
DWIDTH 21 0
BBX 21 24 0 0
BITMAP
00001F800000
00003FD00000
0000B4B40000
0002801C0000
000000000000
7FFF801FFF80
07F90002F900
03F00000F000
02F00000B000
02F00000B000
02F00000B000
02F00000B000
02F00000B000
02F00000B000
02F00000B000
02F00000B000
02F00000B000
02F00000B000
02F00000E000
01F40000E000
00FC0002C000
00BE401B8000
002FFFFE0000
0006FFA40000
ENDCHAR
STARTCHAR Udieresis
ENCODING 220
SWIDTH 752 0
DWIDTH 21 0
BBX 21 23 0 0
BITMAP
0003D02D0000
0007E07E0000
0003D02D0000
000000000000
7FFF801FFF80
07F90002F900
03F00000F000
02F00000B000
02F00000B000
02F00000B000
02F00000B000
02F00000B000
02F00000B000
02F00000B000
02F00000B000
02F00000B000
02F00000B000
02F00000E000
01F40000E000
00FC0002C000
00BE401B8000
002FFFFE0000
0006FFA40000
ENDCHAR
STARTCHAR Yacute
ENCODING 221
SWIDTH 647 0
DWIDTH 18 0
BBX 19 24 0 0
BITMAP
00001A4000
00003E0000
0000F40000
0002800000
0000000000
FFFD00FFF4
6FE0001F90
0BE0001D00
02F4002800
01FC007400
00BE00E000
003F01C000
001F834000
000BDA0000
0003FD0000
0001F80000
0000F40000
0000F40000
0000F40000
0000F40000
0001F40000
0001F80000
0006FD0000
003FFFD000
ENDCHAR
STARTCHAR Thorn
ENCODING 222
SWIDTH 572 0
DWIDTH 16 0
BBX 14 19 1 0
BITMAP
FFFF4000
1FF40000
07D00000
07D00000
07FFE900
07D16F80
07D007E0
07D003F0
07D002F0
07D002F0
07D003F0
07D007D0
07D01F40
07FFF800
07D00000
07D00000
07D00000
1BF40000
FFFF4000
ENDCHAR
STARTCHAR germandbls
ENCODING 223
SWIDTH 563 0
DWIDTH 16 0
BBX 15 21 0 0
BITMAP
001BF900
00B41F40
01D007C0
02D007C0
03D007C0
03D007C0
03D00B40
3FD06D00
07D2D000
03D1B900
03D01F80
03D003E0
03D001F4
03D000F8
03D000F8
03D000BC
03D000B8
03D240F8
07D7C0F0
0BD7E2D0
7FD1BE40
ENDCHAR
STARTCHAR agrave
ENCODING 224
SWIDTH 480 0
DWIDTH 13 0
BBX 12 20 1 0
BITMAP
068000
07D000
01F000
007400
002800
000000
06FE40
2E1BC0
7C03E0
7C02E0
2402E0
0002E0
006FE0
0B92E0
3D02E0
B802E0
F802E0
B803F1
7D19FF
1FE0B8
ENDCHAR
STARTCHAR aacute
ENCODING 225
SWIDTH 480 0
DWIDTH 13 0
BBX 12 20 1 0
BITMAP
000A40
002F40
003D00
007400
009000
000000
06FE40
2E1BC0
7C03E0
7C02E0
2402E0
0002E0
006FE0
0B92E0
3D02E0
B802E0
F802E0
B803F1
7D19FF
1FE0B8
ENDCHAR
STARTCHAR acircumflex
ENCODING 226
SWIDTH 480 0
DWIDTH 13 0
BBX 12 20 1 0
BITMAP
006400
00FC00
02DE00
074740
1D01C0
000000
06FE40
2E1BC0
7C03E0
7C02E0
2402E0
0002E0
006FE0
0B92E0
3D02E0
B802E0
F802E0
B803F1
7D19FF
1FE0B8
ENDCHAR
STARTCHAR atilde
ENCODING 227
SWIDTH 480 0
DWIDTH 13 0
BBX 12 19 1 0
BITMAP
07D020
1FF960
242F80
000000
000000
06FE40
2E1BC0
7C03E0
7C02E0
2402E0
0002E0
006FE0
0B92E0
3D02E0
B802E0
F802E0
B803F1
7D19FF
1FE0B8
ENDCHAR
STARTCHAR adieresis
ENCODING 228
SWIDTH 480 0
DWIDTH 13 0
BBX 12 19 1 0
BITMAP
2D02E0
3F03F0
2D02E0
000000
000000
06FE40
2E1BC0
7C03E0
7C02E0
2402E0
0002E0
006FE0
0B92E0
3D02E0
B802E0
F802E0
B803F1
7D19FF
1FE0B8
ENDCHAR
STARTCHAR aring
ENCODING 229
SWIDTH 480 0
DWIDTH 13 0
BBX 12 21 1 0
BITMAP
01B800
039B00
070340
070340
034700
01FD00
000000
06FE40
2E1BC0
7C03E0
7C02E0
2402E0
0002E0
006FE0
0B92E0
3D02E0
B802E0
F802E0
B803F1
7D19FF
1FE0B8
ENDCHAR
STARTCHAR ae
ENCODING 230
SWIDTH 709 0
DWIDTH 20 0
BBX 18 14 1 0
BITMAP
06FD07F900
2D1BA91F40
7C03F007C0
7C03E003D0
1003E002E0
0007FFFFF0
01BBE00000
1F42E00000
7D02E00000
B802F00000
F802F80060
B806FE46D0
7D187FFF40
1FD00BF900
ENDCHAR
STARTCHAR ccedilla
ENCODING 231
SWIDTH 446 0
DWIDTH 12 0
BBX 11 20 1 -6
BITMAP
01BF80
0B47F0
2C01F4
7800F4
B40010
F00000
F00000
F40000
F40000
F80004
BD0018
3F91B0
1FFFD0
06FE40
002000
007E00
001740
000380
014740
00BD00
ENDCHAR
STARTCHAR egrave
ENCODING 232
SWIDTH 464 0
DWIDTH 13 0
BBX 11 20 1 0
BITMAP
029000
02E000
00F400
007800
001C00
000000
01BE40
0E47D0
2C01F0
7800B8
B400BC
FFFFFC
F40000
F40000
F80000
BC0000
7E0018
2F91B4
0FFFE0
01BE40
ENDCHAR
STARTCHAR eacute
ENCODING 233
SWIDTH 464 0
DWIDTH 13 0
BBX 11 20 1 0
BITMAP
000640
001F40
002E00
003800
00A000
000000
01BE40
0E47D0
2C01F0
7800B8
B400BC
FFFFFC
F40000
F40000
F80000
BC0000
7E0018
2F91B4
0FFFE0
01BE40
ENDCHAR
STARTCHAR ecircumflex
ENCODING 234
SWIDTH 464 0
DWIDTH 13 0
BBX 11 20 1 0
BITMAP
002400
00BD00
01DB00
074280
090090
000000
01BE40
0E47D0
2C01F0
7800B8
B400BC
FFFFFC
F40000
F40000
F80000
BC0000
7E0018
2F91B4
0FFFE0
01BE40
ENDCHAR
STARTCHAR edieresis
ENCODING 235
SWIDTH 464 0
DWIDTH 13 0
BBX 11 19 1 0
BITMAP
1E01E0
2F42F4
1E01E0
000000
000000
01BE40
0E47D0
2C01F0
7800B8
B400BC
FFFFFC
F40000
F40000
F80000
BC0000
7E0018
2F91B4
0FFFE0
01BE40
ENDCHAR
STARTCHAR igrave
ENCODING 236
SWIDTH 285 0
DWIDTH 8 0
BBX 8 20 0 0
BITMAP
6800
7D00
1F00
0740
0280
0000
1AD0
2BD0
07D0
03D0
03D0
03D0
03D0
03D0
03D0
03D0
03D0
07D0
0BE0
3FFD
ENDCHAR
STARTCHAR iacute
ENCODING 237
SWIDTH 285 0
DWIDTH 8 0
BBX 7 20 1 0
BITMAP
0290
07D0
0F40
1D00
2800
0000
6B40
AF40
1F40
0F40
0F40
0F40
0F40
0F40
0F40
0F40
0F40
1F40
2F80
FFF4
ENDCHAR
STARTCHAR icircumflex
ENCODING 238
SWIDTH 285 0
DWIDTH 8 0
BBX 8 20 0 0
BITMAP
0B80
1FD0
38B0
7034
9018
0000
1AD0
2BD0
07D0
03D0
03D0
03D0
03D0
03D0
03D0
03D0
03D0
07D0
0BE0
3FFD
ENDCHAR
STARTCHAR idieresis
ENCODING 239
SWIDTH 285 0
DWIDTH 8 0
BBX 9 19 -1 0
BITMAP
780B40
BD1F80
780B40
000000
000000
06B400
0AF400
01F400
00F400
00F400
00F400
00F400
00F400
00F400
00F400
00F400
01F400
02F800
0FFF40
ENDCHAR
STARTCHAR eth
ENCODING 240
SWIDTH 532 0
DWIDTH 15 0
BBX 13 21 1 0
BITMAP
0AF90000
155F9B40
0003F400
001BF400
00A47C00
00003D00
00002E00
01BE5F00
0B81EF40
2D003F40
7C002F40
B8001F80
F8001F80
F8001F40
F8001F40
F8001F40
BC001F00
7C002E00
3E007C00
1F91F400
02BE4000
ENDCHAR
STARTCHAR ntilde
ENCODING 241
SWIDTH 576 0
DWIDTH 16 0
BBX 15 19 1 0
BITMAP
007D0200
01FF9A00
0242F800
00000000
00000000
6B06F800
FF2FFE00
1FA02F00
0F401F40
0F400F40
0F400F40
0F400F40
0F400F40
0F400F40
0F400F40
0F400F40
1F400F80
2F801F90
FFF4FFF8
ENDCHAR
STARTCHAR ograve
ENCODING 242
SWIDTH 514 0
DWIDTH 14 0
BBX 13 20 1 0
BITMAP
01900000
01F40000
00780000
002D0000
000A0000
00000000
01BF9000
0B91F400
2E007D00
7C002E00
B8001F00
F8001F40
F8001F40
F8001F40
F8001F40
BC001F00
7C002E00
2E003C00
0F91B400
01BF8000
ENDCHAR
STARTCHAR oacute
ENCODING 243
SWIDTH 514 0
DWIDTH 14 0
BBX 13 20 1 0
BITMAP
00069000
000BC000
000F0000
002D0000
00340000
00000000
01BF9000
0B91F400
2E007D00
7C002E00
B8001F00
F8001F40
F8001F40
F8001F40
F8001F40
BC001F00
7C002E00
2E003C00
0F91B400
01BF8000
ENDCHAR
STARTCHAR ocircumflex
ENCODING 244
SWIDTH 514 0
DWIDTH 14 0
BBX 13 20 1 0
BITMAP
00190000
007F0000
00F78000
02C1D000
07007000
00000000
01BF9000
0B91F400
2E007D00
7C002E00
B8001F00
F8001F40
F8001F40
F8001F40
F8001F40
BC001F00
7C002E00
2E003C00
0F91B400
01BF8000
ENDCHAR
STARTCHAR otilde
ENCODING 245
SWIDTH 514 0
DWIDTH 14 0
BBX 13 19 1 0
BITMAP
02F40800
07FE6400
081BE000
00000000
00000000
01BF9000
0B91F400
2E007D00
7C002E00
B8001F00
F8001F40
F8001F40
F8001F40
F8001F40
BC001F00
7C002E00
2E003C00
0F91B400
01BF8000
ENDCHAR
STARTCHAR odieresis
ENCODING 246
SWIDTH 514 0
DWIDTH 14 0
BBX 13 19 1 0
BITMAP
0B40B400
1F80FC00
0B40B400
00000000
00000000
01BF9000
0B91F400
2E007D00
7C002E00
B8001F00
F8001F40
F8001F40
F8001F40
F8001F40
BC001F00
7C002E00
2E003C00
0F91B400
01BF8000
ENDCHAR
STARTCHAR divide
ENCODING 247
SWIDTH 720 0
DWIDTH 20 0
BBX 18 15 1 0
BITMAP
0000F40000
0001F80000
0000F40000
0000000000
0000000000
0000000000
7FFFFFFFD0
7FFFFFFFD0
0000000000
0000000000
0000000000
0000000000
0000F40000
0001F80000
0000F40000
ENDCHAR
STARTCHAR oslash
ENCODING 248
SWIDTH 514 0
DWIDTH 14 0
BBX 13 14 1 0
BITMAP
01BF9C00
0B91F800
2E00BD00
7C01FE00
B8035F00
F80A1F40
F8281F40
F8700F40
F8D01F40
BE401F00
7E002E00
3E003D00
7F91B400
91BF8000
ENDCHAR
STARTCHAR ugrave
ENCODING 249
SWIDTH 570 0
DWIDTH 16 0
BBX 15 20 0 0
BITMAP
00290000
003E0000
000F0000
00078000
0001C000
00000000
6BC06BC0
1FC01BC0
0BC007C0
07C003C0
07C003C0
07C003C0
07C003C0
07C003C0
07C003C0
07C003C0
07C003C0
03D00BD0
02F46BD0
00BF83E8
ENDCHAR
STARTCHAR uacute
ENCODING 250
SWIDTH 570 0
DWIDTH 16 0
BBX 15 20 0 0
BITMAP
00006400
0001F400
0002D000
00038000
000A0000
00000000
6BC06BC0
1FC01BC0
0BC007C0
07C003C0
07C003C0
07C003C0
07C003C0
07C003C0
07C003C0
07C003C0
07C003C0
03D00BD0
02F46BD0
00BF83E8
ENDCHAR
STARTCHAR ucircumflex
ENCODING 251
SWIDTH 570 0
DWIDTH 16 0
BBX 15 20 0 0
BITMAP
00064000
000FD000
002DF000
00743800
00D00D00
00000000
6BC06BC0
1FC01BC0
0BC007C0
07C003C0
07C003C0
07C003C0
07C003C0
07C003C0
07C003C0
07C003C0
07C003C0
03D00BD0
02F46BD0
00BF83E8
ENDCHAR
STARTCHAR udieresis
ENCODING 252
SWIDTH 570 0
DWIDTH 16 0
BBX 15 19 0 0
BITMAP
01E01E00
03F42F40
01E01E00
00000000
00000000
6BC06BC0
1FC01BC0
0BC007C0
07C003C0
07C003C0
07C003C0
07C003C0
07C003C0
07C003C0
07C003C0
07C003C0
03D00BD0
02F46BD0
00BF83E8
ENDCHAR
STARTCHAR yacute
ENCODING 253
SWIDTH 483 0
DWIDTH 14 0
BBX 15 26 -1 -6
BITMAP
00006900
0000BC00
0000F000
0002D000
00034000
00000000
7FF80FF8
1FD002E0
07D002C0
03E00380
02F00700
00F80A00
00BC0D00
003D1C00
002F2800
001F7400
000BF000
0007D000
0003C000
00028000
00034000
000B0000
000D0000
1A6C0000
2FF40000
1F900000
ENDCHAR
STARTCHAR thorn
ENCODING 254
SWIDTH 524 0
DWIDTH 15 0
BBX 14 26 0 -6
BITMAP
1B800000
AF800000
0F800000
0B800000
0B800000
0B800000
0B86F800
0B9FFF40
0BA42F80
0B800BD0
0B8007D0
0B8003E0
0B8003E0
0B8003E0
0B8003D0
0B8003C0
0B800780
0BC00F40
0BF46D00
0BAFE000
0B800000
0B800000
0B800000
0B800000
1FD00000
BFFD0000
ENDCHAR
STARTCHAR ydieresis
ENCODING 255
SWIDTH 483 0
DWIDTH 14 0
BBX 15 25 -1 -6
BITMAP
00B40B40
01F80FC0
00B40B40
00000000
00000000
7FF80FF8
1FD002E0
07D002C0
03E00380
02F00700
00F80A00
00BC0D00
003D1C00
002F2800
001F7400
000BF000
0007D000
0003C000
00028000
00034000
000B0000
000D0000
1A6C0000
2FF40000
1F900000
ENDCHAR
STARTCHAR Amacron
ENCODING 256
SWIDTH 718 0
DWIDTH 20 0
BBX 20 22 0 0
BITMAP
001FFFF000
0000000000
0000000000
0000380000
00007C0000
0000BE0000
0000FF0000
0002DF4000
00038FC000
00074BD000
000A07E000
001D03F000
002C02F800
003800FC00
007400BD00
00FFFFFF00
01E0007F40
02C0002F80
0780000FD0
0B40000BE0
2F40001BF8
FFF000BFFF
ENDCHAR
STARTCHAR amacron
ENCODING 257
SWIDTH 480 0
DWIDTH 13 0
BBX 12 17 1 0
BITMAP
2FFFE0
000000
000000
06FE40
2E1BC0
7C03E0
7C02E0
2402E0
0002E0
006FE0
0B92E0
3D02E0
B802E0
F802E0
B803F1
7D19FF
1FE0B8
ENDCHAR
STARTCHAR Abreve
ENCODING 258
SWIDTH 718 0
DWIDTH 20 0
BBX 20 26 0 0
BITMAP
0004001000
000C007000
000E00A000
0007FFC000
0001BE4000
0000000000
0000000000
0000380000
00007C0000
0000BE0000
0000FF0000
0002DF4000
00038FC000
00074BD000
000A07E000
001D03F000
002C02F800
003800FC00
007400BD00
00FFFFFF00
01E0007F40
02C0002F80
0780000FD0
0B40000BE0
2F40001BF8
FFF000BFFF
ENDCHAR
STARTCHAR abreve
ENCODING 259
SWIDTH 480 0
DWIDTH 13 0
BBX 12 20 1 0
BITMAP
100050
280090
1D01C0
0BFF80
02FE00
000000
06FE40
2E1BC0
7C03E0
7C02E0
2402E0
0002E0
006FE0
0B92E0
3D02E0
B802E0
F802E0
B803F1
7D19FF
1FE0B8
ENDCHAR
STARTCHAR Aogonek
ENCODING 260
SWIDTH 719 0
DWIDTH 20 0
BBX 20 25 0 -6
BITMAP
0000380000
00007C0000
0000BE0000
0000EF0000
00029F4000
00034BC000
000707D000
000A03E000
001D02F400
002801F800
003400BC00
007FFFFD00
00E0003F00
01C0002F40
0280001F80
0340000BD0
0B00000BE0
1F40001FF8
FFF000BFFF
000003D000
00000B4000
00000E0000
00001E0000
00000F4500
000007F400
ENDCHAR
STARTCHAR aogonek
ENCODING 261
SWIDTH 480 0
DWIDTH 13 0
BBX 13 20 1 -6
BITMAP
06FE4000
2E1BC000
7C03D000
7C02E000
2802E000
0002E000
006BE000
07D2E000
2E02E000
B802E000
F802E000
F802E000
7D19F600
1FE0BD00
0000B400
0002C000
00078000
000B4000
00078640
0002F900
ENDCHAR
STARTCHAR Cacute
ENCODING 262
SWIDTH 670 0
DWIDTH 19 0
BBX 17 24 1 0
BITMAP
00001A4000
00003E4000
0000B40000
0002800000
0000000000
001AFF9700
00BD45FF00
03E0002F00
0B80000F00
1F40000B00
3F00000700
7E00000300
7D00000000
BD00000000
BD00000000
BD00000000
7E00000000
7E00000000
3F00000000
2F80000000
0FE0000740
07F9006E00
00BFFFF400
001BFE4000
ENDCHAR
STARTCHAR cacute
ENCODING 263
SWIDTH 446 0
DWIDTH 12 0
BBX 11 20 1 0
BITMAP
000640
001F40
002E00
003800
00A000
000000
01BF80
0B47F0
2C01F4
7800F4
B40010
F00000
F00000
F40000
F40000
B80004
7D0018
3F91B0
1FFFD0
02FE40
ENDCHAR
STARTCHAR Ccircumflex
ENCODING 264
SWIDTH 670 0
DWIDTH 19 0
BBX 17 24 1 0
BITMAP
0000BC0000
0002FE0000
0007878000
001D01D000
0000000000
001AFF9700
00BD45FF00
03E0002F00
0B80000F00
1F40000B00
3F00000700
7E00000300
7D00000000
BD00000000
BD00000000
BD00000000
7E00000000
7E00000000
3F00000000
2F80000000
0FE0000740
07F9006E00
00BFFFF400
001BFE4000
ENDCHAR
STARTCHAR ccircumflex
ENCODING 265
SWIDTH 446 0
DWIDTH 12 0
BBX 11 20 1 0
BITMAP
006400
00BD00
02DB00
074280
090090
000000
01BF80
0B47F0
2C01F4
7800F4
B40010
F00000
F00000
F40000
F40000
B80004
7D0018
3F91B0
1FFFD0
02FE40
ENDCHAR
STARTCHAR Cdotaccent
ENCODING 266
SWIDTH 670 0
DWIDTH 19 0
BBX 17 23 1 0
BITMAP
0000B80000
0000FC0000
0000B80000
0000000000
001AFF9700
00BD45FF00
03E0002F00
0B80000F00
1F40000B00
3F00000700
7E00000300
7D00000000
BD00000000
BD00000000
BD00000000
7E00000000
7E00000000
3F00000000
2F80000000
0FE0000740
07F9006E00
00BFFFF400
001BFE4000
ENDCHAR
STARTCHAR cdotaccent
ENCODING 267
SWIDTH 446 0
DWIDTH 12 0
BBX 11 19 1 0
BITMAP
007800
00BD00
007800
000000
000000
01BF80
0B47F0
2C01F4
7800F4
B40010
F00000
F00000
F40000
F40000
B80004
7D0018
3F91B0
1FFFD0
02FE40
ENDCHAR
STARTCHAR Ccaron
ENCODING 268
SWIDTH 670 0
DWIDTH 19 0
BBX 17 24 1 0
BITMAP
001D01D000
0007878000
0002FE0000
0000BC0000
0000000000
001AFF9700
00BD45FF00
03E0002F00
0B80000F00
1F40000B00
3F00000700
7E00000300
7D00000000
BD00000000
BD00000000
BD00000000
7E00000000
7E00000000
3F00000000
2F80000000
0FE0000740
07F9006E00
00BFFFF400
001BFE4000
ENDCHAR
STARTCHAR ccaron
ENCODING 269
SWIDTH 446 0
DWIDTH 12 0
BBX 11 20 1 0
BITMAP
040050
0A01C0
028740
01FE00
00BC00
000000
01BF80
0B47F0
2C01F4
7800F4
B40010
F00000
F00000
F40000
F40000
B80004
7D0018
3F91B0
1FFFD0
02FE40
ENDCHAR
STARTCHAR Dcaron
ENCODING 270
SWIDTH 730 0
DWIDTH 20 0
BBX 18 24 1 0
BITMAP
0074074000
001E1E0000
000BF80000
0002F00000
0000000000
FFFFFA4000
0BD55BF400
07D001FD00
07D0002F40
07D0000FC0
07D0000BD0
07D00007E0
07D00003F0
07D00003F0
07D00003F0
07D00003F0
07D00003F0
07D00003E0
07D00007D0
07D0000BC0
07D0001F40
07D0007D00
0BD05BF400
FFFFFA4000
ENDCHAR
STARTCHAR dcaron
ENCODING 271
SWIDTH 626 0
DWIDTH 18 0
BBX 16 20 1 0
BITMAP
00006D1F
0002BD1E
00003D1E
00003D2D
00003D28
00003D14
01BFBD00
0B91FD00
2D007D00
7C003D00
B8003D00
F4003D00
F4003D00
F4003D00
F8003D00
F8003D00
BD003D00
7F41BD00
2FFF7F40
06F93E80
ENDCHAR
STARTCHAR Dcroat
ENCODING 272
SWIDTH 733 0
DWIDTH 21 0
BBX 18 19 1 0
BITMAP
FFFFFA4000
0BD56BF400
07D001FD00
07D0003F40
07D0001FC0
07D0000BD0
07D00007E0
07D00007F0
07D00003F0
FFFFF003F0
07D00003F0
07D00003F0
07D00007E0
07D0000BD0
07D0000FC0
07D0002F40
07D000BD00
0BD05BF400
FFFFFA4000
ENDCHAR
STARTCHAR dcroat
ENCODING 273
SWIDTH 540 0
DWIDTH 15 0
BBX 14 20 1 0
BITMAP
00016D00
0001BD00
00003D00
003FFFD0
00003E00
00003D00
01BFBD00
0B91FD00
2D007D00
7C003D00
B8003D00
F4003D00
F4003D00
F4003D00
F8003D00
F8003D00
BD003D00
7F41BE00
2FFF7F50
06F83E90
ENDCHAR
STARTCHAR Emacron
ENCODING 274
SWIDTH 626 0
DWIDTH 18 0
BBX 16 22 1 0
BITMAP
00FFFF00
00000000
00000000
FFFFFFF8
0BD555B8
07D00028
07D0001C
07D00000
07D00180
07D00180
07D00280
07D00780
07FFFF80
07D01680
07D00180
07D00000
07D00006
07D0000A
07D0000D
07D0002D
0BD555BC
FFFFFFFC
ENDCHAR
STARTCHAR emacron
ENCODING 275
SWIDTH 464 0
DWIDTH 13 0
BBX 11 17 1 0
BITMAP
1FFFE0
000000
000000
01BE40
0E47D0
2C01F0
7800B8
B400BC
FFFFFC
F40000
F40000
F80000
BC0000
7E0018
2F91B4
0FFFE0
01BE40
ENDCHAR
STARTCHAR Ebreve
ENCODING 276
SWIDTH 626 0
DWIDTH 18 0
BBX 16 26 1 0
BITMAP
00400100
00C00300
00A00A00
007FFD00
001BE400
00000000
00000000
FFFFFFF8
0BD555B8
07D00028
07D0001C
07D00000
07D00180
07D00180
07D00280
07D00780
07FFFF80
07D01680
07D00180
07D00000
07D00006
07D0000A
07D0000D
07D0002D
0BD555BC
FFFFFFFC
ENDCHAR
STARTCHAR ebreve
ENCODING 277
SWIDTH 464 0
DWIDTH 13 0
BBX 11 20 1 0
BITMAP
040010
180060
0E00D0
0BFFC0
01FE00
000000
01BE40
0E47D0
2C01F0
7800B8
B400BC
FFFFFC
F40000
F40000
F80000
BC0000
7E0018
2F91B4
0FFFE0
01BE40
ENDCHAR
STARTCHAR Edotaccent
ENCODING 278
SWIDTH 626 0
DWIDTH 18 0
BBX 16 23 1 0
BITMAP
0007D000
000BE000
0007D000
00000000
FFFFFFF8
0BD555B8
07D00028
07D0001C
07D00000
07D00180
07D00180
07D00280
07D00780
07FFFF80
07D01680
07D00180
07D00000
07D00006
07D0000A
07D0000D
07D0002D
0BD555BC
FFFFFFFC
ENDCHAR
STARTCHAR edotaccent
ENCODING 279
SWIDTH 464 0
DWIDTH 13 0
BBX 11 19 1 0
BITMAP
007800
00BD00
007800
000000
000000
01BE40
0E47D0
2C01F0
7800B8
B400BC
FFFFFC
F40000
F40000
F80000
BC0000
7E0018
2F91B4
0FFFE0
01BE40
ENDCHAR
STARTCHAR Eogonek
ENCODING 280
SWIDTH 625 0
DWIDTH 18 0
BBX 16 25 1 -6
BITMAP
BFFFFFF8
0BD001B8
07D00028
07D00018
07D00000
07D00180
07D00180
07D00780
07FFFF80
07D01780
07D00180
07D00180
07D00000
07D00000
07D00006
07D00009
07D0001D
0BD001BD
AFFFFFFC
000001D0
00000740
00000E00
00001E00
00001F49
000007E4
ENDCHAR
STARTCHAR eogonek
ENCODING 281
SWIDTH 464 0
DWIDTH 13 0
BBX 11 20 1 -6
BITMAP
01BE40
0E47D0
2C01F0
7800B8
B400BC
FFFFFC
F40000
F40000
F80000
BC0000
7E001C
2F91B4
0FFFE0
01BF80
001D00
007400
00F000
00E000
00F460
007F40
ENDCHAR
STARTCHAR Ecaron
ENCODING 282
SWIDTH 626 0
DWIDTH 18 0
BBX 16 24 1 0
BITMAP
00A00A00
00382C00
001FF400
0007D000
00000000
FFFFFFF8
0BD555B8
07D00028
07D0001C
07D00000
07D00180
07D00180
07D00280
07D00780
07FFFF80
07D01680
07D00180
07D00000
07D00006
07D0000A
07D0000D
07D0002D
0BD555BC
FFFFFFFC
ENDCHAR
STARTCHAR ecaron
ENCODING 283
SWIDTH 464 0
DWIDTH 13 0
BBX 11 20 1 0
BITMAP
040050
0A01C0
028740
01FE00
007C00
000000
01BE40
0E47D0
2C01F0
7800B8
B400BC
FFFFFC
F40000
F40000
F80000
BC0000
7E0018
2F91B4
0FFFE0
01BE40
ENDCHAR
STARTCHAR Gcircumflex
ENCODING 284
SWIDTH 720 0
DWIDTH 20 0
BBX 19 24 1 0
BITMAP
0000BC0000
0002FE0000
0007474000
001D01D000
0000000000
001AFF9700
00BD45FF00
03E0002F00
0B80000F00
1F40000B00
3F00000700
7E00000300
7D00000000
BD00000000
BD00000000
BD0002FFF4
7D00006F90
7E00001F40
3F00001F40
2F40001F40
0FC0001F40
07E0001F40
01FD41BE00
001BFF9000
ENDCHAR
STARTCHAR gcircumflex
ENCODING 285
SWIDTH 484 0
DWIDTH 14 0
BBX 14 26 0 -6
BITMAP
00090000
002F4000
0076C000
01D0A000
02402400
00000000
01BFFFD0
07D1F800
0F407D00
1F003D00
2F003E00
1F003D00
1F403D00
07D0B800
02BFD000
0A000000
1E000000
2F500000
1FFFFE00
0BFFFF80
090007C0
2C0002C0
78000280
7C000340
3F506900
0BFE9000
ENDCHAR
STARTCHAR Gbreve
ENCODING 286
SWIDTH 720 0
DWIDTH 20 0
BBX 19 26 1 0
BITMAP
0010001000
002800A000
001D01D000
000BFF8000
0002FE0000
0000000000
0000000000
001AFF9700
00BD45FF00
03E0002F00
0B80000F00
1F40000B00
3F00000700
7E00000300
7D00000000
BD00000000
BD00000000
BD0002FFF4
7D00006F90
7E00001F40
3F00001F40
2F40001F40
0FC0001F40
07E0001F40
01FD41BE00
001BFF9000
ENDCHAR
STARTCHAR gbreve
ENCODING 287
SWIDTH 484 0
DWIDTH 14 0
BBX 14 26 0 -6
BITMAP
01000400
06001800
03803400
02FFF000
007F8000
00000000
01BFFFD0
07D1F800
0F407D00
1F003D00
2F003E00
1F003D00
1F403D00
07D0B800
02BFD000
0A000000
1E000000
2F500000
1FFFFE00
0BFFFF80
090007C0
2C0002C0
78000280
7C000340
3F506900
0BFE9000
ENDCHAR
STARTCHAR Gdotaccent
ENCODING 288
SWIDTH 720 0
DWIDTH 20 0
BBX 19 23 1 0
BITMAP
0000B80000
0000FC0000
0000B80000
0000000000
001AFF9700
00BD45FF00
03E0002F00
0B80000F00
1F40000B00
3F00000700
7E00000300
7D00000000
BD00000000
BD00000000
BD0002FFF4
7D00006F90
7E00001F40
3F00001F40
2F40001F40
0FC0001F40
07E0001F40
01FD41BE00
001BFF9000
ENDCHAR
STARTCHAR gdotaccent
ENCODING 289
SWIDTH 484 0
DWIDTH 14 0
BBX 14 25 0 -6
BITMAP
001E0000
002F4000
001E0000
00000000
00000000
01BFFFD0
07D1F800
0F407D00
1F003D00
2F003E00
1F003D00
1F403D00
07D0B800
02BFD000
0A000000
1E000000
2F500000
1FFFFE00
0BFFFF80
090007C0
2C0002C0
78000280
7C000340
3F506900
0BFE9000
ENDCHAR
STARTCHAR Gcommaaccent
ENCODING 290
SWIDTH 720 0
DWIDTH 20 0
BBX 19 27 1 -8
BITMAP
001AFF9700
00BD45FF00
03E0002F00
0B80000F00
1F40000B00
3F00000700
7E00000300
7D00000000
BD00000000
BD00000000
BD0002FFF4
7D00006F90
7E00001F40
3F00001F40
2F40001F40
0FC0001F40
07E0001F40
01FD41BE00
001BFF9000
0000000000
0000000000
0001F40000
0002FC0000
0001FC0000
0000280000
0000340000
0001D00000
ENDCHAR
STARTCHAR gcommaaccent
ENCODING 291
SWIDTH 484 0
DWIDTH 14 0
BBX 14 27 0 -6
BITMAP
000A4000
00280000
00340000
003F4000
003F4000
001F0000
00000000
01BFFFD0
07D1F800
0F407D00
1F003D00
2F003E00
1F003D00
1F403D00
07D0B800
02BFD000
0A000000
1E000000
2F500000
1FFFFE00
0BFFFF80
090007C0
2C0002C0
78000280
7C000340
3F506900
0BFE9000
ENDCHAR
STARTCHAR Hcircumflex
ENCODING 292
SWIDTH 777 0
DWIDTH 22 0
BBX 20 24 1 0
BITMAP
00007D0000
0001FF0000
000383C000
000A00A000
0000000000
FFFF01FFFE
1BF4001FE4
07D0000BC0
07D0000BC0
07D0000BC0
07D0000BC0
07D0000BC0
07D0000BC0
07D0000BC0
07FFFFFFC0
07D0000BC0
07D0000BC0
07D0000BC0
07D0000BC0
07D0000BC0
07D0000BC0
07D0000BC0
1BE4001FE4
FFFF01FFFE
ENDCHAR
STARTCHAR hcircumflex
ENCODING 293
SWIDTH 577 0
DWIDTH 16 0
BBX 16 25 0 0
BITMAP
000BC000
002FE000
00787800
01D01D00
00000000
1AC00000
6FC00000
07C00000
07C00000
07C00000
07C00000
07C1BE00
07CBFF80
07F80BC0
07D003D0
07C003D0
07C003D0
07C002E0
07C002E0
07C002E0
07C002E0
07C002E0
07C003E0
0BE007F4
3FFD3FFE
ENDCHAR
STARTCHAR Hbar
ENCODING 294
SWIDTH 788 0
DWIDTH 22 0
BBX 20 19 1 0
BITMAP
FFFF40FFFF
1BF4001FE4
07E0000BD0
03D00007D0
03D00007D0
BFFFFFFFFF
07E00007D0
03D00007D0
03D00007D0
03FFFFFFD0
03E00007D0
03D00007D0
03D00007D0
03D00007D0
03D00007D0
03D00007D0
07E00007D0
1BF4001FE4
FFFF40FFFF
ENDCHAR
STARTCHAR hbar
ENCODING 295
SWIDTH 579 0
DWIDTH 16 0
BBX 16 20 0 0
BITMAP
1AD00000
1BD00000
03D00000
7FFFE000
07D00000
03D00000
03D1BE00
03DBFF80
03E80BC0
03E003D0
03D003D0
03D002E0
03D002E0
03D002E0
03D002E0
03D002E0
03D002E0
07D002E0
0BE007F4
3FFD2FFE
ENDCHAR
STARTCHAR Itilde
ENCODING 296
SWIDTH 357 0
DWIDTH 10 0
BBX 10 24 0 0
BITMAP
0B9060
3FFFD0
606F40
000000
000000
3FFFC0
07F900
01F400
01F400
01F400
01F400
01F400
01F400
01F400
01F400
01F400
01F400
01F400
01F400
01F400
01F400
01F400
06F900
3FFFC0
ENDCHAR
STARTCHAR itilde
ENCODING 297
SWIDTH 285 0
DWIDTH 8 0
BBX 9 19 -1 0
BITMAP
1B4080
3FD240
60BE00
000000
000000
06B400
0AF400
01F400
00F400
00F400
00F400
00F400
00F400
00F400
00F400
00F400
01F400
02F800
0FFF40
ENDCHAR
STARTCHAR Imacron
ENCODING 298
SWIDTH 357 0
DWIDTH 10 0
BBX 8 22 1 0
BITMAP
FFFF
0000
0000
FFFF
1FE4
07D0
07D0
07D0
07D0
07D0
07D0
07D0
07D0
07D0
07D0
07D0
07D0
07D0
07D0
07D0
1BE4
FFFF
ENDCHAR
STARTCHAR imacron
ENCODING 299
SWIDTH 285 0
DWIDTH 8 0
BBX 8 17 0 0
BITMAP
FFFC
0000
0000
1AD0
2BD0
07D0
03D0
03D0
03D0
03D0
03D0
03D0
03D0
03D0
07D0
0BE0
3FFD
ENDCHAR
STARTCHAR Ibreve
ENCODING 300
SWIDTH 357 0
DWIDTH 10 0
BBX 8 26 1 0
BITMAP
4001
C003
A00A
7FFD
1BE4
0000
0000
FFFF
1FE4
07D0
07D0
07D0
07D0
07D0
07D0
07D0
07D0
07D0
07D0
07D0
07D0
07D0
07D0
07D0
1BE4
FFFF
ENDCHAR
STARTCHAR ibreve
ENCODING 301
SWIDTH 285 0
DWIDTH 8 0
BBX 8 20 0 0
BITMAP
8008
C01C
A024
2FE0
0000
0000
1AD0
2BD0
07D0
03D0
03D0
03D0
03D0
03D0
03D0
03D0
03D0
07D0
0BE0
3FFD
ENDCHAR
STARTCHAR Iogonek
ENCODING 302
SWIDTH 357 0
DWIDTH 10 0
BBX 8 25 1 -6
BITMAP
FFFF
1FE4
07D0
07D0
07D0
07D0
07D0
07D0
07D0
07D0
07D0
07D0
07D0
07D0
07D0
07D0
07D0
1BE4
FFFF
0180
0B00
1D00
2D00
1E19
0BE4
ENDCHAR
STARTCHAR iogonek
ENCODING 303
SWIDTH 285 0
DWIDTH 8 0
BBX 7 26 1 -6
BITMAP
0F40
1F80
0F40
0000
0000
0000
6B40
AF40
1F40
0F40
0F40
0F40
0F40
0F40
0F40
0F40
0F40
1F40
2F80
FFF4
0A00
2800
7400
B000
B860
2F80
ENDCHAR
STARTCHAR Idotaccent
ENCODING 304
SWIDTH 357 0
DWIDTH 10 0
BBX 8 23 1 0
BITMAP
07D0
0BE0
07D0
0000
FFFF
1FE4
07D0
07D0
07D0
07D0
07D0
07D0
07D0
07D0
07D0
07D0
07D0
07D0
07D0
07D0
07D0
1BE4
FFFF
ENDCHAR
STARTCHAR dotlessi
ENCODING 305
SWIDTH 285 0
DWIDTH 8 0
BBX 7 14 1 0
BITMAP
6B40
AF40
1F40
0F40
0F40
0F40
0F40
0F40
0F40
0F40
0F40
1F40
2F80
FFF4
ENDCHAR
STARTCHAR IJ
ENCODING 306
SWIDTH 753 0
DWIDTH 21 0
BBX 20 19 1 0
BITMAP
FFFF01FFFE
1FE4001FE4
07D0000BC0
07D0000BC0
07D0000BC0
07D0000BC0
07D0000BC0
07D0000BC0
07D0000BC0
07D0000BC0
07D0000BC0
07D0000BC0
07D0000BC0
07D0000BC0
07D0000BC0
07D0180B80
07D03E0B80
1BE42F5F00
FFFF0BF900
ENDCHAR
STARTCHAR ij
ENCODING 307
SWIDTH 548 0
DWIDTH 15 0
BBX 13 25 1 -6
BITMAP
0F401F00
1F802F40
0F401F00
00000000
00000000
6B406B00
AF40AF00
1F401F00
0F401F00
0F401F00
0F401F00
0F401F00
0F401F00
0F401F00
0F401F00
0F401F00
1F401F00
2F801F00
FFF41F00
00001F00
00001F00
00101E00
00B81D00
00BE7800
002FE000
ENDCHAR
STARTCHAR Jcircumflex
ENCODING 308
SWIDTH 396 0
DWIDTH 11 0
BBX 11 24 0 0
BITMAP
002F00
007F80
01E1E0
034024
000000
07FFF8
007F90
002F00
002F00
002F00
002F00
002F00
002F00
002F00
002F00
002F00
002F00
002F00
002F00
002F00
602E00
F82E00
BD7C00
2FE400
ENDCHAR
STARTCHAR jcircumflex
ENCODING 309
SWIDTH 263 0
DWIDTH 7 0
BBX 11 26 -3 -6
BITMAP
001900
003F40
00B7C0
01D0E0
034034
000000
006B00
00AF00
001F00
001F00
001F00
001F00
001F00
001F00
001F00
001F00
001F00
001F00
001F00
001F00
001F00
001F00
101E00
B81D00
BE7800
2FE000
ENDCHAR
STARTCHAR Kcommaaccent
ENCODING 310
SWIDTH 702 0
DWIDTH 20 0
BBX 19 27 1 -8
BITMAP
FFFF0BFFD0
1FE401FE40
07D001F400
07D002D000
07D00B0000
07D02C0000
07D0B00000
07D2800000
07DA000000
07FF400000
07DFD00000
07D3F40000
07D0FD0000
07D03F4000
07D00FD000
07D003F400
07D001FD00
1BE401FF90
FFFF0BFFF4
0000000000
0000000000
0001F40000
0003F80000
0001F80000
0000280000
0000740000
0001D00000
ENDCHAR
STARTCHAR kcommaaccent
ENCODING 311
SWIDTH 542 0
DWIDTH 15 0
BBX 14 28 1 -8
BITMAP
6B000000
AF000000
1F000000
1F000000
1F000000
1F000000
1F03FFC0
1F00BD00
1F00E000
1F038000
1F0E0000
1F740000
1FFC0000
1F7E0000
1F1F8000
1F07E000
1F02F400
1F00BD00
2F807F40
FFF4FFF0
00000000
00000000
002E0000
003F4000
002F8000
00034000
00070000
00280000
ENDCHAR
STARTCHAR kgreenlandic
ENCODING 312
SWIDTH 542 0
DWIDTH 15 0
BBX 14 14 1 0
BITMAP
6B42FFC0
BF407D40
1F40B400
0F42C000
0F4B0000
0F680000
0FB80000
0FBE0000
0F5F8000
0F47E000
0F42F400
1F40BD00
2F807F80
FFF4FFF0
ENDCHAR
STARTCHAR Lacute
ENCODING 313
SWIDTH 585 0
DWIDTH 16 0
BBX 15 24 1 0
BITMAP
001A0000
007E0000
01E40000
07800000
00000000
BFFF0000
1FF40000
07D00000
07D00000
07D00000
07D00000
07D00000
07D00000
07D00000
07D00000
07D00000
07D00000
07D00000
07D00004
07D00018
07D00028
07D00074
0BE406F4
BFFFFFF0
ENDCHAR
STARTCHAR lacute
ENCODING 314
SWIDTH 283 0
DWIDTH 8 0
BBX 8 25 0 0
BITMAP
0068
01F8
07D0
0E00
0000
16C0
6FC0
07C0
07C0
07C0
07C0
07C0
07C0
07C0
07C0
07C0
07C0
07C0
07C0
07C0
07C0
07C0
07C0
0BE0
3FFD
ENDCHAR
STARTCHAR Lcommaaccent
ENCODING 315
SWIDTH 585 0
DWIDTH 16 0
BBX 15 27 1 -8
BITMAP
BFFF0000
1FF40000
07D00000
07D00000
07D00000
07D00000
07D00000
07D00000
07D00000
07D00000
07D00000
07D00000
07D00000
07D00004
07D00018
07D00028
07D00074
0BE406F4
BFFFFFF0
00000000
00000000
001F4000
002FC000
001FC000
0001C000
00034000
001D0000
ENDCHAR
STARTCHAR lcommaaccent
ENCODING 316
SWIDTH 283 0
DWIDTH 8 0
BBX 8 28 0 -8
BITMAP
16C0
6FC0
07C0
07C0
07C0
07C0
07C0
07C0
07C0
07C0
07C0
07C0
07C0
07C0
07C0
07C0
07C0
07C0
0BE0
3FFD
0000
0000
07D0
0BE0
07E0
00A0
01D0
0740
ENDCHAR
STARTCHAR Lcaron
ENCODING 317
SWIDTH 585 0
DWIDTH 16 0
BBX 15 19 1 0
BITMAP
BFFF03D0
1FF403C0
07D007C0
07D00780
07D00700
07D00500
07D00000
07D00000
07D00000
07D00000
07D00000
07D00000
07D00000
07D00004
07D00018
07D00028
07D00074
0BE406F4
BFFFFFF0
ENDCHAR
STARTCHAR lcaron
ENCODING 318
SWIDTH 366 0
DWIDTH 10 0
BBX 10 20 0 0
BITMAP
16C2E0
6FC2E0
07C2D0
07C2C0
07C380
07C200
07C000
07C000
07C000
07C000
07C000
07C000
07C000
07C000
07C000
07C000
07C000
07C000
0BE000
3FFD00
ENDCHAR
STARTCHAR Ldot
ENCODING 319
SWIDTH 605 0
DWIDTH 17 0
BBX 15 19 1 0
BITMAP
BFFF0000
1FF40000
07D00000
07D00000
07D00000
07D00000
07D00000
07D002E0
07D003F0
07D002E0
07D00000
07D00000
07D00000
07D00004
07D00018
07D00028
07D00074
0BE406F4
BFFFFFF0
ENDCHAR
STARTCHAR ldot
ENCODING 320
SWIDTH 357 0
DWIDTH 10 0
BBX 11 20 0 0
BITMAP
16C000
6FC000
07C000
07C000
07C000
07C000
07C000
07C000
07C1F4
07C2F8
07C1F4
07C000
07C000
07C000
07C000
07C000
07C000
07C000
0BE000
3FFD00
ENDCHAR
STARTCHAR Lslash
ENCODING 321
SWIDTH 590 0
DWIDTH 17 0
BBX 15 19 1 0
BITMAP
BFFF4000
1BF40000
07E00000
03D00000
03D00000
03D01000
03D0B000
03D78000
03F90000
07E00000
1FD00000
B7D00000
43D00000
03D00004
03D0001C
03D00028
07D00078
07E405F4
BFFFFFF4
ENDCHAR
STARTCHAR lslash
ENCODING 322
SWIDTH 290 0
DWIDTH 8 0
BBX 8 20 0 0
BITMAP
16D0
2FD0
03D0
03D0
03D0
03D0
03D1
03EE
03F4
07D0
1FD0
B7D0
03D0
03D0
03D0
03D0
03D0
03D0
07E0
3FFD
ENDCHAR
STARTCHAR Nacute
ENCODING 323
SWIDTH 742 0
DWIDTH 21 0
BBX 20 24 0 0
BITMAP
0000069000
00000F9000
00002E0000
0000A40000
0000000000
7FF0002FFF
1BF80006F4
02FD0000E0
02FF4000E0
02AFC000D0
028FE000D0
0287F400D0
0281FD00D0
0280BF00D0
02802F80D0
02800FD0D0
028007F4D0
028001FCD0
028000BED0
0280003FD0
02C0001FD0
02C00007D0
07E40002D0
7FFD000090
ENDCHAR
STARTCHAR nacute
ENCODING 324
SWIDTH 576 0
DWIDTH 16 0
BBX 15 20 1 0
BITMAP
0000A400
0002F000
0003D000
00074000
000D0000
00000000
6B06F800
FF2FFE00
1FA02F00
0F401F40
0F400F40
0F400F40
0F400F40
0F400F40
0F400F40
0F400F40
0F400F40
1F400F80
2F801F90
FFF4FFF8
ENDCHAR
STARTCHAR Ncommaaccent
ENCODING 325
SWIDTH 742 0
DWIDTH 21 0
BBX 20 27 0 -8
BITMAP
7FF0002FFF
1BF80006F4
02FD0000E0
02FF4000E0
02AFC000D0
028FE000D0
0287F400D0
0281FD00D0
0280BF00D0
02802F80D0
02800FD0D0
028007F4D0
028001FCD0
028000BED0
0280003FD0
02C0001FD0
02C00007D0
07E40002D0
7FFD000090
0000000000
0000000000
00007D0000
0000BF0000
00007F0000
00000A0000
00000D0000
0000740000
ENDCHAR
STARTCHAR ncommaaccent
ENCODING 326
SWIDTH 576 0
DWIDTH 16 0
BBX 15 22 1 -8
BITMAP
6B06F800
FF2FFE00
1FA02F00
0F401F40
0F400F40
0F400F40
0F400F40
0F400F40
0F400F40
0F400F40
0F400F40
1F400F80
2F801F90
FFF4FFF8
00000000
00000000
001F0000
003F8000
002F8000
00028000
00074000
001D0000
ENDCHAR
STARTCHAR Ncaron
ENCODING 327
SWIDTH 742 0
DWIDTH 21 0
BBX 20 24 0 0
BITMAP
0007407400
0001E1E000
0000BF8000
00002F0000
0000000000
7FF0002FFF
1BF80006F4
02FD0000E0
02FF4000E0
02AFC000D0
028FE000D0
0287F400D0
0281FD00D0
0280BF00D0
02802F80D0
02800FD0D0
028007F4D0
028001FCD0
028000BED0
0280003FD0
02C0001FD0
02C00007D0
07E40002D0
7FFD000090
ENDCHAR
STARTCHAR ncaron
ENCODING 328
SWIDTH 576 0
DWIDTH 16 0
BBX 15 20 1 0
BITMAP
01400400
00A02800
0078B000
001FD000
000B8000
00000000
6B06F800
FF2FFE00
1FA02F00
0F401F40
0F400F40
0F400F40
0F400F40
0F400F40
0F400F40
0F400F40
0F400F40
1F400F80
2F801F90
FFF4FFF8
ENDCHAR
STARTCHAR napostrophe
ENCODING 329
SWIDTH 576 0
DWIDTH 16 0
BBX 20 20 -4 0
BITMAP
B800000000
FE00000000
BE00000000
0E00000000
1C00000000
7400000000
801AC1BE00
003FCBFF80
0007E80BC0
0003D007D0
0003D003D0
0003D003D0
0003D003D0
0003D003D0
0003D003D0
0003D003D0
0003D003D0
0007D003E0
000BE007E4
003FFD3FFE
ENDCHAR
STARTCHAR Eng
ENCODING 330
SWIDTH 742 0
DWIDTH 21 0
BBX 20 25 0 -6
BITMAP
7FF0002FFF
1BF80006F4
02FD0000E0
02FF4000E0
02EF8000D0
028FE000D0
0287F400D0
0281FC00D0
0280BE00D0
02803F80D0
02801FD0D0
028007F0D0
028002F8D0
028000FED0
0280007FD0
02C0002FD0
02C0000BD0
07E40003D0
7FFD0001D0
00000000D0
00000000D0
00000000D0
00001F41C0
00001FDB40
00000BF900
ENDCHAR
STARTCHAR eng
ENCODING 331
SWIDTH 559 0
DWIDTH 16 0
BBX 13 20 1 -6
BITMAP
6B06F800
FF2FFE00
1FA02F00
0F400F40
0F400F40
0F400F40
0F400F40
0F400F40
0F400F40
0F400F40
0F400F40
1F400F40
2F800F40
FFF40F40
00000F40
00000F40
00000F00
003C0E00
007F6D00
001FE400
ENDCHAR
STARTCHAR Omacron
ENCODING 332
SWIDTH 738 0
DWIDTH 21 0
BBX 19 22 1 0
BITMAP
002FFFD000
0000000000
0000000000
001AFE8000
00BD46F800
03E0007E00
0B80001F80
1F40000BD0
3F000007E0
7E000003F0
7D000002F0
BD000002F4
BD000002F4
BD000002F4
7E000002F0
7E000003F0
3F000007E0
2F40000BC0
0F80000F40
07E0002E00
00B945F400
001BFE8000
ENDCHAR
STARTCHAR omacron
ENCODING 333
SWIDTH 514 0
DWIDTH 14 0
BBX 13 17 1 0
BITMAP
0BFFF400
00000000
00000000
01BF9000
0B91F400
2E007D00
7C002E00
B8001F00
F8001F40
F8001F40
F8001F40
F8001F40
BC001F00
7C002E00
2E003C00
0F91B400
01BF8000
ENDCHAR
STARTCHAR Obreve
ENCODING 334
SWIDTH 738 0
DWIDTH 21 0
BBX 19 26 1 0
BITMAP
0010005000
0024009000
001D02C000
000FFF8000
0002FD0000
0000000000
0000000000
001AFE8000
00BD46F800
03E0007E00
0B80001F80
1F40000BD0
3F000007E0
7E000003F0
7D000002F0
BD000002F4
BD000002F4
BD000002F4
7E000002F0
7E000003F0
3F000007E0
2F40000BC0
0F80000F40
07E0002E00
00B945F400
001BFE8000
ENDCHAR
STARTCHAR obreve
ENCODING 335
SWIDTH 514 0
DWIDTH 14 0
BBX 13 20 1 0
BITMAP
04001400
09002400
07407000
03FFD000
00BF4000
00000000
01BF9000
0B91F400
2E007D00
7C002E00
B8001F00
F8001F40
F8001F40
F8001F40
F8001F40
BC001F00
7C002E00
2E003C00
0F91B400
01BF8000
ENDCHAR
STARTCHAR Ohungarumlaut
ENCODING 336
SWIDTH 738 0
DWIDTH 21 0
BBX 19 24 1 0
BITMAP
0000BDBD00
0000F4F400
0002D2D000
0007474000
0000000000
001AFE8000
00BD46F800
03E0007E00
0B80001F80
1F40000BD0
3F000007E0
7E000003F0
7D000002F0
BD000002F4
BD000002F4
BD000002F4
7E000002F0
7E000003F0
3F000007E0
2F40000BC0
0F80000F40
07E0002E00
00B945F400
001BFE8000
ENDCHAR
STARTCHAR ohungarumlaut
ENCODING 337
SWIDTH 514 0
DWIDTH 14 0
BBX 13 19 1 0
BITMAP
002F3E00
007C7800
00B4E000
00D1C000
00000000
01BF9000
0B91F400
2E007D00
7C002E00
B8001F00
F8001F40
F8001F40
F8001F40
F8001F40
BC001F00
7C002E00
2E003C00
0F91B400
01BF8000
ENDCHAR
STARTCHAR OE
ENCODING 338
SWIDTH 945 0
DWIDTH 26 0
BBX 25 19 1 0
BITMAP
001BFFFFFFFE00
00BD07F9556E00
03E001F8000A00
0BC000F8000600
1F4000F8000000
3F0000F8006000
7E0000F800A000
7D0000F801E000
BD0000FFFFE000
BD0000F805E000
BD0000F800A000
7E0000F8006000
7E0000F8000000
3F0000F8000140
2F4000F8000240
0F8000F8000340
07E001F8000B40
00B946F9556F00
001BFFFFFFFF00
ENDCHAR
STARTCHAR oe
ENCODING 339
SWIDTH 807 0
DWIDTH 23 0
BBX 21 14 1 0
BITMAP
01BE402FE000
0B81F1E4BC00
2E007F802E00
7C003F401F40
B8002F000F40
F8001FFFFF80
F8001F400000
F8001F000000
F8001F400000
B8002F800000
7C002FD00240
2E007BF91B00
0F91E1FFFD00
01BE402FE000
ENDCHAR
STARTCHAR Racute
ENCODING 340
SWIDTH 659 0
DWIDTH 18 0
BBX 18 24 1 0
BITMAP
0000A40000
0002F40000
000B800000
002D000000
0000000000
BFFFE90000
0BD06F8000
07D007E000
07D002F000
07D002F400
07D002F400
07D002F000
07D007D000
07D06F4000
07FFF40000
07D6F40000
07D0BD0000
07D07F0000
07D02F8000
07D00FD000
07D007F000
07D002F800
1BE400FE40
BFFF007FE0
ENDCHAR
STARTCHAR racute
ENCODING 341
SWIDTH 380 0
DWIDTH 11 0
BBX 11 20 0 0
BITMAP
000A40
001F40
003D00
007400
00A000
000000
16C2F0
2FCBF4
07E9B0
03E000
03D000
03D000
03D000
03D000
03D000
03D000
03D000
07D000
0BE400
7FFE00
ENDCHAR
STARTCHAR Rcommaaccent
ENCODING 342
SWIDTH 659 0
DWIDTH 18 0
BBX 18 27 1 -8
BITMAP
BFFFE90000
0BD06F8000
07D007E000
07D002F000
07D002F400
07D002F400
07D002F000
07D007D000
07D06F4000
07FFF40000
07D6F40000
07D0BD0000
07D07F0000
07D02F8000
07D00FD000
07D007F000
07D002F800
1BE400FE40
BFFF007FE0
0000000000
0000000000
0002D00000
0007F00000
0007F40000
0000700000
0000A00000
0002800000
ENDCHAR
STARTCHAR rcommaaccent
ENCODING 343
SWIDTH 380 0
DWIDTH 11 0
BBX 11 22 0 -8
BITMAP
16C2F0
2FCBF4
07E9B0
03E000
03D000
03D000
03D000
03D000
03D000
03D000
03D000
07D000
0BE400
7FFE00
000000
000000
02E000
07F400
03F400
007000
00A000
028000
ENDCHAR
STARTCHAR Rcaron
ENCODING 344
SWIDTH 659 0
DWIDTH 18 0
BBX 18 24 1 0
BITMAP
00D0090000
0078780000
001FF00000
000BD00000
0000000000
BFFFE90000
0BD06F8000
07D007E000
07D002F000
07D002F400
07D002F400
07D002F000
07D007D000
07D06F4000
07FFF40000
07D6F40000
07D0BD0000
07D07F0000
07D02F8000
07D00FD000
07D007F000
07D002F800
1BE400FE40
BFFF007FE0
ENDCHAR
STARTCHAR rcaron
ENCODING 345
SWIDTH 380 0
DWIDTH 11 0
BBX 11 20 0 0
BITMAP
040040
0A0280
038B00
01FD00
00B800
000000
16C2F0
2FCBF4
07E9B0
03E000
03D000
03D000
03D000
03D000
03D000
03D000
03D000
07D000
0BE400
7FFE00
ENDCHAR
STARTCHAR Sacute
ENCODING 346
SWIDTH 504 0
DWIDTH 14 0
BBX 12 24 1 0
BITMAP
000680
002F40
007800
01D000
000000
06FE5C
1F41FD
3C003D
7C001D
BC000D
BD0009
7F4000
2FE400
0BFE00
01FFD0
002FF8
0002FD
0000BF
C0002F
D0002F
E0002F
F4003E
BE41B8
A6FF90
ENDCHAR
STARTCHAR sacute
ENCODING 347
SWIDTH 394 0
DWIDTH 11 0
BBX 10 20 1 0
BITMAP
001900
007D00
00B400
01E000
028000
000000
0BFA40
791F40
B40340
F40240
BD0140
7F8000
1FF400
06FE00
006F80
800BD0
D007D0
E003C0
F91B80
9BF900
ENDCHAR
STARTCHAR Scircumflex
ENCODING 348
SWIDTH 504 0
DWIDTH 14 0
BBX 12 24 1 0
BITMAP
007D00
01FF40
0382C0
0A00A0
000000
06FE5C
1F41FD
3C003D
7C001D
BC000D
BD0009
7F4000
2FE400
0BFE00
01FFD0
002FF8
0002FD
0000BF
C0002F
D0002F
E0002F
F4003E
BE41B8
A6FF90
ENDCHAR
STARTCHAR scircumflex
ENCODING 349
SWIDTH 394 0
DWIDTH 11 0
BBX 10 20 1 0
BITMAP
019000
03F400
0B7C00
1D0E00
340340
000000
0BFA40
791F40
B40340
F40240
BD0140
7F8000
1FF400
06FE00
006F80
800BD0
D007D0
E003C0
F91B80
9BF900
ENDCHAR
STARTCHAR uni015E
ENCODING 350
SWIDTH 504 0
DWIDTH 14 0
BBX 12 25 1 -6
BITMAP
06FE5C
1F41FD
3C003D
7C001D
BC000D
BD0009
7F4000
2FE400
0BFE00
01FFD0
002FF8
0002FD
0000BF
C0002F
D0002F
E0002F
F4003E
BE41B8
A6FF90
002000
006000
007E00
000780
000780
01FE00
ENDCHAR
STARTCHAR uni015F
ENCODING 351
SWIDTH 394 0
DWIDTH 11 0
BBX 10 20 1 -6
BITMAP
0BFA40
791F40
B40340
F40240
BD0140
7F8000
1FF400
06FE00
006F80
800BD0
D007D0
E003C0
F91B80
9BF900
014000
024000
02F400
002C00
042C00
0BF400
ENDCHAR
STARTCHAR Scaron
ENCODING 352
SWIDTH 504 0
DWIDTH 14 0
BBX 12 24 1 0
BITMAP
0A00A0
02D2C0
00FF40
007D00
000000
06FE5C
1F41FD
3C003D
7C001D
BC000D
BD0009
7F4000
2FE400
0BFE00
01FFD0
002FF8
0002FD
0000BF
C0002F
D0002F
E0002F
F4003E
BE41B8
A6FF90
ENDCHAR
STARTCHAR scaron
ENCODING 353
SWIDTH 394 0
DWIDTH 11 0
BBX 10 20 1 0
BITMAP
100140
280A00
0E2D00
07F800
02E000
000000
0BFA40
791F40
B40340
F40240
BD0140
7F8000
1FF400
06FE00
006F80
800BD0
D007D0
E003C0
F91B80
9BF900
ENDCHAR
STARTCHAR uni0162
ENCODING 354
SWIDTH 603 0
DWIDTH 17 0
BBX 17 25 0 -6
BITMAP
7FFFFFFF40
7903E01F40
7003E00340
6003E00240
9003E00240
0003E00000
0003E00000
0003E00000
0003E00000
0003E00000
0003E00000
0003E00000
0003E00000
0003E00000
0003E00000
0003E00000
0003F00000
000BF40000
00BFFF8000
0001400000
0002400000
0002F80000
00002D0000
00042C0000
000BF40000
ENDCHAR
STARTCHAR uni0163
ENCODING 355
SWIDTH 315 0
DWIDTH 9 0
BBX 8 24 1 -6
BITMAP
0300
0B00
0F00
2F00
BFFC
1F00
1F00
1F00
1F00
1F00
1F00
1F00
1F00
1F00
1F00
1F00
0F49
07E4
0240
0300
03F4
002C
042C
0BF4
ENDCHAR
STARTCHAR Tcaron
ENCODING 356
SWIDTH 603 0
DWIDTH 17 0
BBX 17 24 0 0
BITMAP
0074074000
001D1D0000
000BF80000
0003E00000
0000000000
7FFFFFFF40
7903E01F40
7003E00340
6003E00240
9003E00240
0003E00000
0003E00000
0003E00000
0003E00000
0003E00000
0003E00000
0003E00000
0003E00000
0003E00000
0003E00000
0003E00000
0003F00000
000BF40000
00BFFF8000
ENDCHAR
STARTCHAR tcaron
ENCODING 357
SWIDTH 353 0
DWIDTH 10 0
BBX 9 20 1 0
BITMAP
000B80
000B40
030F40
0B0F00
0F0D00
2F0800
BFFC00
1F0000
1F0000
1F0000
1F0000
1F0000
1F0000
1F0000
1F0000
1F0000
1F0000
1F0000
0F4900
07E400
ENDCHAR
STARTCHAR Tbar
ENCODING 358
SWIDTH 603 0
DWIDTH 17 0
BBX 17 19 0 0
BITMAP
7FFFFFFF40
7903E01F40
7003E00340
6003E00240
5003E00140
0003E00000
0003E00000
0003E00000
01FFFFD000
0003E00000
0003E00000
0003E00000
0003E00000
0003E00000
0003E00000
0003E00000
0003F00000
000BF40000
00BFFF8000
ENDCHAR
STARTCHAR tbar
ENCODING 359
SWIDTH 328 0
DWIDTH 9 0
BBX 8 18 1 0
BITMAP
0300
0700
0F00
2F00
BFFC
1F00
1F00
1F00
FFFC
1F00
1F00
1F00
1F00
1F00
1F00
1F01
0F89
07F4
ENDCHAR
STARTCHAR Utilde
ENCODING 360
SWIDTH 752 0
DWIDTH 21 0
BBX 21 24 0 0
BITMAP
0000BD060000
0002FFFD0000
000206F40000
000000000000
000000000000
7FFF801FFF80
07F90002F900
03F00000F000
02F00000B000
02F00000B000
02F00000B000
02F00000B000
02F00000B000
02F00000B000
02F00000B000
02F00000B000
02F00000B000
02F00000B000
02F00000E000
01F40000E000
00FC0002C000
00BE401B8000
002FFFFE0000
0006FFA40000
ENDCHAR
STARTCHAR utilde
ENCODING 361
SWIDTH 570 0
DWIDTH 16 0
BBX 15 19 0 0
BITMAP
007E0240
00FF9600
0142FD00
00000000
00000000
6BC06BC0
1FC01BC0
0BC007C0
07C003C0
07C003C0
07C003C0
07C003C0
07C003C0
07C003C0
07C003C0
07C003C0
03D00BD0
02F46BD0
00BF83E8
ENDCHAR
STARTCHAR Umacron
ENCODING 362
SWIDTH 752 0
DWIDTH 21 0
BBX 21 22 0 0
BITMAP
0003FFFD0000
000000000000
000000000000
7FFF801FFF80
07F90002F900
03F00000F000
02F00000B000
02F00000B000
02F00000B000
02F00000B000
02F00000B000
02F00000B000
02F00000B000
02F00000B000
02F00000B000
02F00000B000
02F00000E000
01F40000E000
00FC0002C000
00BE401B8000
002FFFFE0000
0006FFA40000
ENDCHAR
STARTCHAR umacron
ENCODING 363
SWIDTH 570 0
DWIDTH 16 0
BBX 15 17 0 0
BITMAP
01FFFE00
00000000
00000000
6BC06BC0
1FC01BC0
0BC007C0
07C003C0
07C003C0
07C003C0
07C003C0
07C003C0
07C003C0
07C003C0
07C003C0
03D00BD0
02F46BD0
00BF83E8
ENDCHAR
STARTCHAR Ubreve
ENCODING 364
SWIDTH 752 0
DWIDTH 21 0
BBX 21 26 0 0
BITMAP
000100040000
0003400C0000
0002902C0000
0000FFF40000
00006F900000
000000000000
000000000000
7FFF801FFF80
07F90002F900
03F00000F000
02F00000B000
02F00000B000
02F00000B000
02F00000B000
02F00000B000
02F00000B000
02F00000B000
02F00000B000
02F00000B000
02F00000B000
02F00000E000
01F40000E000
00FC0002C000
00BE401B8000
002FFFFE0000
0006FFA40000
ENDCHAR
STARTCHAR ubreve
ENCODING 365
SWIDTH 570 0
DWIDTH 16 0
BBX 15 20 0 0
BITMAP
01400100
01800600
00D01D00
00BFFC00
001FE000
00000000
6BC06BC0
1FC01BC0
0BC007C0
07C003C0
07C003C0
07C003C0
07C003C0
07C003C0
07C003C0
07C003C0
07C003C0
03D00BD0
02F46BD0
00BF83E8
ENDCHAR
STARTCHAR Uring
ENCODING 366
SWIDTH 752 0
DWIDTH 21 0
BBX 21 25 0 0
BITMAP
00001F800000
000075A00000
0000A0700000
0000A0B00000
00002FD00000
000000000000
7FFF801FFF80
07F90002F900
03F00000F000
02F00000B000
02F00000B000
02F00000B000
02F00000B000
02F00000B000
02F00000B000
02F00000B000
02F00000B000
02F00000B000
02F00000B000
02F00000E000
01F40000E000
00FC0002C000
00BE401B8000
002FFFFE0000
0006FFA40000
ENDCHAR
STARTCHAR uring
ENCODING 367
SWIDTH 570 0
DWIDTH 16 0
BBX 15 21 0 0
BITMAP
000B9000
00297000
00302400
00302400
00387400
001FD000
00000000
6BC06BC0
1FC01BC0
0BC007C0
07C003C0
07C003C0
07C003C0
07C003C0
07C003C0
07C003C0
07C003C0
07C003C0
03D00BD0
02F46BD0
00BF83E8
ENDCHAR
STARTCHAR Uhungarumlaut
ENCODING 368
SWIDTH 752 0
DWIDTH 21 0
BBX 21 24 0 0
BITMAP
00000BCBC000
00001F5F4000
00002D2D0000
000060600000
000000000000
7FFF801FFF80
07F90002F900
03F00000F000
02F00000B000
02F00000B000
02F00000B000
02F00000B000
02F00000B000
02F00000B000
02F00000B000
02F00000B000
02F00000B000
02F00000B000
02F00000E000
01F40000E000
00FC0002C000
00BE401B8000
002FFFFE0000
0006FFA40000
ENDCHAR
STARTCHAR uhungarumlaut
ENCODING 369
SWIDTH 570 0
DWIDTH 16 0
BBX 15 19 0 0
BITMAP
0007DBC0
000B4F40
001E2D00
00283400
00000000
6BC06BC0
1FC01BC0
0BC007C0
07C003C0
07C003C0
07C003C0
07C003C0
07C003C0
07C003C0
07C003C0
07C003C0
03D00BD0
02F46BD0
00BF83E8
ENDCHAR
STARTCHAR Uogonek
ENCODING 370
SWIDTH 753 0
DWIDTH 21 0
BBX 21 25 0 -6
BITMAP
7FFF801FFF80
07F90002F900
03F00000F000
02F00000B000
02F00000B000
02F00000B000
02F00000B000
02F00000B000
02F00000B000
02F00000B000
02F00000B000
02F00000B000
02F00000B000
02F00000E000
01F40000E000
00FC0002D000
00BE401BC000
002FFFFF4000
0006FFF80000
000002800000
00000A000000
00001D000000
00002D000000
00002E180000
00000BE00000
ENDCHAR
STARTCHAR uogonek
ENCODING 371
SWIDTH 570 0
DWIDTH 16 0
BBX 15 20 0 -6
BITMAP
6BC06BC0
1BC01BC0
07C007C0
07C003C0
07C003C0
07C003C0
07C003C0
07C003C0
07C003C0
07C003C0
07C007C0
03E02FD0
02FFE3F8
00BE43A4
00000A00
00002800
00007400
0000B400
0000B860
00002F80
ENDCHAR
STARTCHAR Wcircumflex
ENCODING 372
SWIDTH 944 0
DWIDTH 26 0
BBX 28 24 -1 0
BITMAP
000000BD000000
000001FF000000
00000387800000
00000A00A00000
00000000000000
7FFF0BFFD01FFD
1BF401FE4006F4
03F4007D0002D0
01F4003E0002C0
00FC002F000380
00BD001F800740
007E001FC00B00
003F002FD00E00
002F4037E01D00
000F8072F02C00
000BD0A1F43400
0007E1D0F87000
0003F280BCA000
0002F7407DD000
0000FF003FC000
0000BE001F8000
00007D000F4000
00003C000B0000
00002800060000
ENDCHAR
STARTCHAR wcircumflex
ENCODING 373
SWIDTH 749 0
DWIDTH 21 0
BBX 23 20 -1 0
BITMAP
000006400000
00000FC00000
00002DE00000
000074740000
0001D01C0000
000000000000
7FF8BFF42FF4
1FD01FD007D0
07D00BC00340
03E003D00700
02F003E00A00
01F407F00D00
00B809F41C00
007C1CB82800
003D287C3400
002F343E6000
001F602E9000
000FD00FC000
0007C00B8000
000380074000
ENDCHAR
STARTCHAR Ycircumflex
ENCODING 374
SWIDTH 647 0
DWIDTH 18 0
BBX 19 24 0 0
BITMAP
0000BC0000
0002FE0000
0007474000
001D01D000
0000000000
FFFD00FFF4
6FE0001F90
0BE0001D00
02F4002800
01FC007400
00BE00E000
003F01C000
001F834000
000BDA0000
0003FD0000
0001F80000
0000F40000
0000F40000
0000F40000
0000F40000
0001F40000
0001F80000
0006FD0000
003FFFD000
ENDCHAR
STARTCHAR ycircumflex
ENCODING 375
SWIDTH 483 0
DWIDTH 14 0
BBX 15 26 -1 -6
BITMAP
00019000
0007F000
000F7800
002C1D00
00700700
00000000
7FF80FF8
1FD002E0
07D002C0
03E00380
02F00700
00F80A00
00BC0D00
003D1C00
002F2800
001F7400
000BF000
0007D000
0003C000
00028000
00034000
000B0000
000D0000
1A6C0000
2FF40000
1F900000
ENDCHAR
STARTCHAR Ydieresis
ENCODING 376
SWIDTH 647 0
DWIDTH 18 0
BBX 19 23 0 0
BITMAP
002E01E000
003F03F000
002E01E000
0000000000
FFFD00FFF4
6FE0001F90
0BE0001D00
02F4002800
01FC007400
00BE00E000
003F01C000
001F834000
000BDA0000
0003FD0000
0001F80000
0000F40000
0000F40000
0000F40000
0000F40000
0001F40000
0001F80000
0006FD0000
003FFFD000
ENDCHAR
STARTCHAR Zacute
ENCODING 377
SWIDTH 594 0
DWIDTH 17 0
BBX 16 24 0 0
BITMAP
00001900
0000BD00
0002E000
00074000
00000000
0FFFFFFE
0F9001FC
1D0002F4
1C0007E0
18000FC0
00002F40
00007E00
0000FD00
0002F800
0007E000
000FD000
002F8000
007F0000
00FD0001
02F80006
07F0000A
0FD0001D
2F80017D
7FFFFFFC
ENDCHAR
STARTCHAR zacute
ENCODING 378
SWIDTH 458 0
DWIDTH 13 0
BBX 11 20 1 0
BITMAP
000640
001F40
002D00
003800
00A000
000000
BFFFF8
B502F4
A007E0
900BC0
001F40
003E00
00BC00
01F400
03E000
0BC008
1F4018
3E0028
BD55B8
FFFFF8
ENDCHAR
STARTCHAR Zdotaccent
ENCODING 379
SWIDTH 594 0
DWIDTH 17 0
BBX 16 23 0 0
BITMAP
0001E000
0002F400
0001E000
00000000
0FFFFFFE
0F9001FC
1D0002F4
1C0007E0
18000FC0
00002F40
00007E00
0000FD00
0002F800
0007E000
000FD000
002F8000
007F0000
00FD0001
02F80006
07F0000A
0FD0001D
2F80017D
7FFFFFFC
ENDCHAR
STARTCHAR zdotaccent
ENCODING 380
SWIDTH 458 0
DWIDTH 13 0
BBX 11 19 1 0
BITMAP
007800
00BD00
007800
000000
000000
BFFFF8
B502F4
A007E0
900BC0
001F40
003E00
00BC00
01F400
03E000
0BC008
1F4018
3E0028
BD55B8
FFFFF8
ENDCHAR
STARTCHAR Zcaron
ENCODING 381
SWIDTH 594 0
DWIDTH 17 0
BBX 16 24 0 0
BITMAP
00340280
001E1E00
0007FC00
0002F400
00000000
0FFFFFFE
0F9001FC
1D0002F4
1C0007E0
18000FC0
00002F40
00007E00
0000FD00
0002F800
0007E000
000FD000
002F8000
007F0000
00FD0001
02F80006
07F0000A
0FD0001D
2F80017D
7FFFFFFC
ENDCHAR
STARTCHAR zcaron
ENCODING 382
SWIDTH 458 0
DWIDTH 13 0
BBX 11 20 1 0
BITMAP
040050
0A01C0
038740
01FE00
00BC00
000000
BFFFF8
B502F4
A007E0
900BC0
001F40
003E00
00BC00
01F400
03E000
0BC008
1F4018
3E0028
BD55B8
FFFFF8
ENDCHAR
STARTCHAR longs
ENCODING 383
SWIDTH 285 0
DWIDTH 8 0
BBX 11 21 0 0
BITMAP
002FD0
00A6F4
01D0B4
02D010
03D000
03D000
03D000
7FD000
07D000
03D000
03D000
03D000
03D000
03D000
03D000
03D000
03D000
03D000
07D000
1BE400
BFFF00
ENDCHAR
STARTCHAR uni0180
ENCODING 384
SWIDTH 522 0
DWIDTH 15 0
BBX 14 20 0 0
BITMAP
5B800000
5F800000
0B800000
BFFFF000
0B800000
0B800000
0B86F800
0B9FFF00
0BA42F80
0B800BD0
0B8007D0
0B8003E0
0B8003E0
0B8003E0
0B8003D0
0B8003C0
0B800780
0B800F00
0BE46D00
01BF9000
ENDCHAR
STARTCHAR uni0188
ENCODING 392
SWIDTH 446 0
DWIDTH 12 0
BBX 14 19 1 0
BITMAP
00001BD0
000035F0
0000A0A0
00009000
0000D000
01BFD000
0B47F000
2C01F400
7800F400
B4001000
F0000000
F0000000
F4000000
F4000000
B8000400
7D001800
3F91B000
1FFFD000
02FE4000
ENDCHAR
STARTCHAR uni0190
ENCODING 400
SWIDTH 518 0
DWIDTH 15 0
BBX 13 19 1 0
BITMAP
01BFE400
1F91BE00
3E003F40
7C001F40
BC000500
7D000000
2E000000
07900000
01FFC000
0BD40000
2E000000
7D000000
BC000000
FC000000
BC000000
BD000280
7F801E00
1FFFF800
06BF9000
ENDCHAR
STARTCHAR uni0192
ENCODING 402
SWIDTH 301 0
DWIDTH 8 0
BBX 14 27 -3 -6
BITMAP
0000BE40
00029BD0
000742D0
000F0040
000F0000
001F0000
001F0000
01FFFE00
001F4000
001F0000
001F0000
001F0000
001F0000
001F0000
001F0000
001F0000
001F0000
001F0000
001F0000
001F0000
001F0000
001F0000
001F0000
101E0000
781E0000
7D2C0000
1FE00000
ENDCHAR
STARTCHAR uni0195
ENCODING 405
SWIDTH 798 0
DWIDTH 22 0
BBX 21 20 0 0
BITMAP
1AC000000000
6FC000000000
07C000000000
07C000000000
07C000000000
07C000000000
07C1FD002D00
07CBFF402F00
07E80F801F80
07D007C00780
07C007D003C0
07C003D001C0
07C003D001C0
07C003D001C0
07C003D00180
07C003D00180
07C003D00240
07C002D00200
0BE001F45800
3FFD006FE000
ENDCHAR
STARTCHAR uni0199
ENCODING 409
SWIDTH 538 0
DWIDTH 15 0
BBX 15 21 0 0
BITMAP
001BE400
00A5FD00
01D07D00
03C00400
03C00000
07C00000
07C00000
07C0FFF0
07C02F40
07C07800
07C1E000
07C74000
07DD0000
07FE0000
07DF8000
07C7E000
07C1F400
07C0BD00
07C02F40
1BD01FD0
7FFC7FFC
ENDCHAR
STARTCHAR uni019A
ENCODING 410
SWIDTH 287 0
DWIDTH 8 0
BBX 7 20 1 0
BITMAP
5B40
BF40
1F40
0F40
0F40
0F40
0F40
0F40
0F40
FFF4
1F40
0F40
0F40
0F40
0F40
0F40
0F40
1F40
2F80
FFF4
ENDCHAR
STARTCHAR uni019B
ENCODING 411
SWIDTH 495 0
DWIDTH 14 0
BBX 15 20 -1 0
BITMAP
0BE00000
0FF80800
0A5E7800
000B9000
006F8000
01D1C000
0000D000
0001E000
0002F000
0007E400
000B9800
001F4C00
002E0900
007D0600
00B80340
01F40280
03E001C0
07D000D0
1FD001F4
7FF80BFC
ENDCHAR
STARTCHAR uni019E
ENCODING 414
SWIDTH 559 0
DWIDTH 16 0
BBX 15 20 1 -6
BITMAP
6B06F800
FF2FFE00
1FA02F00
0F401F40
0F400F40
0F400F40
0F400F40
0F400F40
0F400F40
0F400F40
0F400F40
1F400F40
2F800F40
FFF40F40
00000F40
00000F40
00000F40
00000F80
00000FD0
00000FF8
ENDCHAR
STARTCHAR Ohorn
ENCODING 416
SWIDTH 737 0
DWIDTH 21 0
BBX 19 24 1 0
BITMAP
0000000050
00000000F8
00000000BC
0000000078
0000000074
001BFFFFE0
00B946F800
03E0007E00
0B80001F80
1F40000BD0
3F000007E0
7E000003F0
7D000003F0
BD000002F4
BD000002F4
BD000002F0
7D000003F0
7E000003E0
3F000007D0
2F40000BC0
0F80000F40
07E0002E00
00B945F400
001BFE4000
ENDCHAR
STARTCHAR ohorn
ENCODING 417
SWIDTH 516 0
DWIDTH 14 0
BBX 14 19 1 0
BITMAP
00000140
000007C0
000003D0
000002C0
00000280
01BFFE00
0B91F400
2E007C00
7C002E00
B8001F00
F8001F40
F8001F40
F8001F40
F8001F40
BC001F00
7C002E00
2E003D00
0F91B400
01BF8000
ENDCHAR
STARTCHAR uni01A5
ENCODING 421
SWIDTH 522 0
DWIDTH 15 0
BBX 14 27 0 -6
BITMAP
002BE000
01D6F800
0380BC00
07801400
0B800000
0B800000
0B800000
0B86F800
0B9FFF00
0BE42F80
0B800BC0
0B8007D0
0B8003E0
0B8003E0
0B8003E0
0B8003D0
0B8003C0
0B800780
0BC00F00
0BF46D00
0BAFE000
0B800000
0B800000
0B800000
0B800000
1FD00000
BFFD0000
ENDCHAR
STARTCHAR uni01AA
ENCODING 426
SWIDTH 298 0
DWIDTH 8 0
BBX 13 27 -2 -6
BITMAP
1BE00000
35780000
902C0000
901E0000
901E0000
742F0000
1FFF0000
001F0000
001F0000
001F0000
001F0000
001F0000
001F0000
001F0000
001F0000
001F0000
001F0000
001F0000
001F0000
001F0000
001F0000
001F0000
001F0000
000F0000
000B03C0
00078BC0
0001BE40
ENDCHAR
STARTCHAR uni01AB
ENCODING 427
SWIDTH 321 0
DWIDTH 9 0
BBX 8 25 1 -6
BITMAP
0100
0700
0B00
1F00
3F00
FFFC
1F00
1F00
1F00
1F00
1F00
1F00
1F00
1F00
1F00
1F00
1F00
0F4A
07EA
000A
000A
000A
0909
0F5C
07E4
ENDCHAR
STARTCHAR uni01AD
ENCODING 429
SWIDTH 315 0
DWIDTH 9 0
BBX 11 21 1 0
BITMAP
006F90
0297F4
0B01F4
0F0010
1F0000
1F0000
3F0000
FFFC00
1F0000
1F0000
1F0000
1F0000
1F0000
1F0000
1F0000
1F0000
1F0000
1F0000
1F0000
0F4900
07E400
ENDCHAR
STARTCHAR Uhorn
ENCODING 431
SWIDTH 762 0
DWIDTH 21 0
BBX 23 25 0 0
BITMAP
000000000010
0000000000B8
0000000000BC
00000000007C
000000000038
000000000060
7FFF801FFE40
07F90002F400
03F00000F000
02F00000B000
02F00000B000
02F00000B000
02F00000B000
02F00000B000
02F00000B000
02F00000B000
02F00000B000
02F00000B000
02F00000B000
02F00000E000
01F40000D000
00F80002C000
00BE401B8000
002FFFFE0000
0006FFA40000
ENDCHAR
STARTCHAR uhorn
ENCODING 432
SWIDTH 574 0
DWIDTH 16 0
BBX 17 18 0 0
BITMAP
0000000E00
0000000F40
0000000B40
0000000B00
1BC01BFD00
6FC06FD000
0BC007C000
07C003C000
07C003C000
07C003C000
07C003C000
07C003C000
07C003C000
07C003C000
07C003C000
03D00BD000
02F46BD000
00BF83E800
ENDCHAR
STARTCHAR uni01B5
ENCODING 437
SWIDTH 594 0
DWIDTH 17 0
BBX 15 19 1 0
BITMAP
3FFFFFF8
3E4007F0
34000BD0
70001F80
50003F00
0000BD00
0001F800
0007F000
0BFFFF80
002F8000
007F0000
00BD0000
01F80000
03F00004
0BD00018
1FC00028
3F400074
BE0005F4
FFFFFFF4
ENDCHAR
STARTCHAR uni01BA
ENCODING 442
SWIDTH 430 0
DWIDTH 12 0
BBX 10 20 1 -6
BITMAP
FFFFE0
E40F80
C02F00
807D00
01F400
03D000
0BE500
0ABF80
0007E0
0002F0
0002F0
0002E0
0007D0
006E40
1B9000
740000
900280
900BC0
742F80
1FF900
ENDCHAR
STARTCHAR uni01BB
ENCODING 443
SWIDTH 508 0
DWIDTH 14 0
BBX 13 20 1 0
BITMAP
02FE4000
0FFFE000
2902F400
6000FC00
8000BC00
00007D00
00007C00
0000BC00
0000B800
0001F000
BFFFFF40
000B4000
001E0000
00780000
00E00000
03C00200
0B000700
2D001A00
BFFFFE00
FFFFFD00
ENDCHAR
STARTCHAR uni01BE
ENCODING 446
SWIDTH 406 0
DWIDTH 11 0
BBX 10 18 1 0
BITMAP
024000
074000
0F4000
2F4000
FFFE00
1F4000
0F4000
0BA400
007E00
000F80
0007D0
0003D0
0003E0
C003D0
D003D0
E007C0
F91B40
9BF900
ENDCHAR
STARTCHAR uni01C0
ENCODING 448
SWIDTH 250 0
DWIDTH 7 0
BBX 3 20 2 0
BITMAP
B8
B8
B8
B8
B8
B8
B8
B8
B8
B8
B8
B8
B8
B8
B8
B8
B8
B8
B8
B8
ENDCHAR
STARTCHAR uni01C1
ENCODING 449
SWIDTH 423 0
DWIDTH 12 0
BBX 8 20 2 0
BITMAP
B82D
B82D
B82D
B82D
B82D
B82D
B82D
B82D
B82D
B82D
B82D
B82D
B82D
B82D
B82D
B82D
B82D
B82D
B82D
B82D
ENDCHAR
STARTCHAR uni01C2
ENCODING 450
SWIDTH 422 0
DWIDTH 12 0
BBX 10 20 1 0
BITMAP
01F000
01F000
01F000
01F000
01F000
01F000
FFFFE0
01F000
01F000
01F000
BFFFE0
01F000
01F000
01F000
01F000
01F000
01F000
01F000
01F000
01F000
ENDCHAR
STARTCHAR uni01C3
ENCODING 451
SWIDTH 245 0
DWIDTH 7 0
BBX 3 20 2 0
BITMAP
B4
F8
F8
B8
B8
B8
B8
B4
74
74
74
74
70
70
30
00
00
B8
FC
B8
ENDCHAR
STARTCHAR uni01DE
ENCODING 478
SWIDTH 718 0
DWIDTH 20 0
BBX 20 25 0 0
BITMAP
001FFFF000
0000000000
001E01F400
002F42F800
001E01F400
0000000000
0000380000
00007C0000
0000BE0000
0000FF0000
0002DF4000
00038FC000
00074BD000
000A07E000
001D03F000
002C02F800
003800FC00
007400BD00
00FFFFFF00
01E0007F40
02C0002F80
0780000FD0
0B40000BE0
2F40001BF8
FFF000BFFF
ENDCHAR
STARTCHAR uni01DF
ENCODING 479
SWIDTH 480 0
DWIDTH 13 0
BBX 12 21 1 0
BITMAP
2FFFE0
000000
2D02E0
3F03F0
2D02E0
000000
000000
06FE40
2E1BC0
7C03E0
7C02E0
2402E0
0002E0
006FE0
0B92E0
3D02E0
B802E0
F802E0
B803F1
7D19FF
1FE0B8
ENDCHAR
STARTCHAR uni01F0
ENCODING 496
SWIDTH 263 0
DWIDTH 7 0
BBX 11 26 -3 -6
BITMAP
010014
0280B0
00E2D0
007F80
002F00
000000
006B00
00AF00
001F00
001F00
001F00
001F00
001F00
001F00
001F00
001F00
001F00
001F00
001F00
001F00
001F00
001F00
101E00
B81D00
BE7800
2FE000
ENDCHAR
STARTCHAR Aringacute
ENCODING 506
SWIDTH 718 0
DWIDTH 20 0
BBX 20 30 0 0
BITMAP
0000064000
00002F4000
0000B80000
0001D00000
0000000000
0000BE0000
0002974000
0003428000
0002828000
0000BE0000
0000000000
0000380000
00007C0000
0000BE0000
0000FF0000
0002DF4000
00038FC000
00074BD000
000A07E000
001D03F000
002C02F800
003800FC00
007400BD00
00FFFFFF00
01E0007F40
02C0002F80
0780000FD0
0B40000BE0
2F40001BF8
FFF000BFFF
ENDCHAR
STARTCHAR aringacute
ENCODING 507
SWIDTH 480 0
DWIDTH 13 0
BBX 12 25 1 0
BITMAP
001A40
007E00
00F400
028000
01B800
039B00
070340
070340
034700
01FD00
000000
06FE40
2E1BC0
7C03E0
7C02E0
2402E0
0002E0
006FE0
0B92E0
3D02E0
B802E0
F802E0
B803F1
7D19FF
1FE0B8
ENDCHAR
STARTCHAR AEacute
ENCODING 508
SWIDTH 894 0
DWIDTH 25 0
BBX 25 24 -1 0
BITMAP
00000000290000
00000000BD0000
00000002E00000
0000000B400000
00000000000000
00003FFFFFFF40
000007BD556F40
00000A7C000740
00000D7C000240
0000287C000140
0000707C000000
0000A07C003000
0001C07C003000
0002807C00B000
0007FFFFFFF000
000E00BD01B000
001C007C003000
0038007C003000
00B0007C000040
00D0007C0000C0
02C0007C0001C0
078000BC000380
1F9001FD556F80
BFF40FFFFFFF40
ENDCHAR
STARTCHAR aeacute
ENCODING 509
SWIDTH 709 0
DWIDTH 20 0
BBX 18 20 1 0
BITMAP
0000680000
0000F80000
0001E00000
0003C00000
0007000000
0000000000
06FD07F900
2D1BA91F40
7C03F007C0
7C03E003D0
1003E002E0
0007FFFFF0
01BBE00000
1F42E00000
7D02E00000
B802F00000
F802F80060
B806FE46D0
7D187FFF40
1FD00BF900
ENDCHAR
STARTCHAR Oslashacute
ENCODING 510
SWIDTH 737 0
DWIDTH 21 0
BBX 19 24 1 0
BITMAP
00001A0000
00007E0000
0001F40000
0003800000
0000000000
001BFE8240
00B946FB00
03E0007E00
0B80003F80
1F40009BC0
3F000287E0
7E000703F0
7D001D03F0
BD003402F4
BD00A002F4
BD028002F0
7D070002F0
7E0D0003E0
3F280007E0
2FA0000BC0
0FC0000F40
07E0002E00
0EB945F400
281BFE8000
ENDCHAR
STARTCHAR oslashacute
ENCODING 511
SWIDTH 514 0
DWIDTH 14 0
BBX 13 20 1 0
BITMAP
00064000
001F4000
002D0000
00380000
00A00000
00000000
01BF9C00
0B91F800
2E00BD00
7C01FE00
B8035F00
F80A1F40
F8281F40
F8700F40
F8D01F40
BE401F00
7E002E00
3E003D00
7F91B400
91BF8000
ENDCHAR
STARTCHAR uni0218
ENCODING 536
SWIDTH 504 0
DWIDTH 14 0
BBX 12 27 1 -8
BITMAP
06FE5C
1F41FD
3C003D
7C001D
BC000D
BD0009
7F4000
2FE400
0BFE00
01FFD0
002FF8
0002FD
0000BF
C0002F
D0002F
E0002F
F4003E
BE41B8
A6FF90
000000
000000
007C00
00FE00
00BE00
000A00
001D00
007400
ENDCHAR
STARTCHAR uni0219
ENCODING 537
SWIDTH 394 0
DWIDTH 11 0
BBX 10 22 1 -8
BITMAP
0BFA40
791F40
B40340
F40240
BD0140
7F8000
1FF400
06FE00
006F80
800BD0
D007D0
E003C0
F91B80
9BF900
000000
000000
02E000
07F400
03F400
007000
00A000
028000
ENDCHAR
STARTCHAR uni021A
ENCODING 538
SWIDTH 603 0
DWIDTH 17 0
BBX 17 27 0 -8
BITMAP
7FFFFFFF40
7903E01F40
7003E00340
6003E00240
9003E00240
0003E00000
0003E00000
0003E00000
0003E00000
0003E00000
0003E00000
0003E00000
0003E00000
0003E00000
0003E00000
0003E00000
0003F00000
000BF40000
00BFFF8000
0000000000
0000000000
0002E00000
0007F40000
0003F40000
0000340000
0000A00000
0002800000
ENDCHAR
STARTCHAR uni021B
ENCODING 539
SWIDTH 315 0
DWIDTH 9 0
BBX 8 26 1 -8
BITMAP
0300
0B00
0F00
2F00
BFFC
1F00
1F00
1F00
1F00
1F00
1F00
1F00
1F00
1F00
1F00
1F00
0F49
07E4
0000
0000
07D0
0BF0
07F0
0070
00A0
0680
ENDCHAR
STARTCHAR uni0221
ENCODING 545
SWIDTH 674 0
DWIDTH 19 0
BBX 18 24 1 -4
BITMAP
00006D0000
0002BD0000
00003D0000
00003D0000
00003D0000
00003D0000
01BFBD0000
0B91FD0000
2D007D0000
7C003D0000
B8003D0000
F4003D0000
F4003D0000
F4003D0000
F8003D0000
F8003D07D0
BD003D2970
7F51BD6030
2FFF6FD5D0
06F80BFE40
0000070000
0000090000
00001C0000
0000240000
ENDCHAR
STARTCHAR uni0228
ENCODING 552
SWIDTH 626 0
DWIDTH 18 0
BBX 16 25 1 -6
BITMAP
FFFFFFF8
0BD555B8
07D00028
07D0001C
07D00000
07D00180
07D00180
07D00280
07D00780
07FFFF80
07D01680
07D00180
07D00000
07D00006
07D0000A
07D0000D
07D0002D
0BD555BC
FFFFFFFC
00030000
00020000
0007E400
00003800
00003800
000BE000
ENDCHAR
STARTCHAR uni0229
ENCODING 553
SWIDTH 464 0
DWIDTH 13 0
BBX 11 20 1 -6
BITMAP
01BE40
0E47D0
2C01F0
7800B8
B400BC
FFFFFC
F40000
F40000
F80000
BC0000
7E0018
2F91B4
0FFFE0
01FE40
006000
005000
00BE00
000740
010740
01FE00
ENDCHAR
STARTCHAR uni0234
ENCODING 564
SWIDTH 399 0
DWIDTH 11 0
BBX 12 24 0 -4
BITMAP
1B8000
AF8000
0B8000
0B8000
0B8000
0B8000
0B8000
0B8000
0B8000
0B8000
0B8000
0B8000
0B8000
0B8000
0B8000
0B81B8
0B865D
0B980D
07F568
01FF90
00C000
028000
030000
090000
ENDCHAR
STARTCHAR uni0235
ENCODING 565
SWIDTH 702 0
DWIDTH 20 0
BBX 19 18 1 -4
BITMAP
AF0BF40000
1F647D0000
0F802F0000
0F401F0000
0F401F0000
0F400F4000
0F400F4000
0F400F4000
0F400F4000
0F400F42E4
0F400F4A68
1F400F5818
2F800BA174
FFF406FF90
0000018000
0000034000
0000060000
00000C0000
ENDCHAR
STARTCHAR uni0236
ENCODING 566
SWIDTH 406 0
DWIDTH 11 0
BBX 11 22 1 -4
BITMAP
030000
0B0000
0F0000
2F0000
BFFD00
1F0000
1F0000
1F0000
1F0000
1F0000
1F0000
1F0000
1F0000
1F06E0
1F0D64
1F3424
0FA1B0
06FE40
024000
070000
090000
180000
ENDCHAR
STARTCHAR uni0237
ENCODING 567
SWIDTH 263 0
DWIDTH 7 0
BBX 8 20 -3 -6
BITMAP
006B
00AF
001F
001F
001F
001F
001F
001F
001F
001F
001F
001F
001F
001F
001F
001F
101E
B81D
BE78
2FE0
ENDCHAR
STARTCHAR uni0250
ENCODING 592
SWIDTH 475 0
DWIDTH 13 0
BBX 13 14 0 0
BITMAP
2F46F800
BFA47E00
4BD01F00
07C01F40
07C01F00
07C03D00
07C1E400
07EE4000
07D00000
07C01800
07C02E00
07C02E00
02E47C00
00BFE000
ENDCHAR
STARTCHAR uni0251
ENCODING 593
SWIDTH 542 0
DWIDTH 15 0
BBX 13 14 1 0
BITMAP
01BF9D00
0B91FD00
2D007D00
78003D00
B8003D00
F4003D00
F4003D00
F4003D00
F4003D00
F8003D00
BC003D00
7F41BD00
2FFF7F40
06F83E80
ENDCHAR
STARTCHAR uni0252
ENCODING 594
SWIDTH 544 0
DWIDTH 15 0
BBX 14 14 1 0
BITMAP
6F0BF400
6F7FFE00
1FD06F40
1F000F80
1F000BC0
1F0007D0
1F0007D0
1F0007C0
1F0007C0
1F000780
1F000B40
1F401E00
1FD07800
1D7F9000
ENDCHAR
STARTCHAR uni0253
ENCODING 595
SWIDTH 518 0
DWIDTH 15 0
BBX 12 21 2 0
BITMAP
06FE00
1D6F80
380B80
740100
B40000
B40000
F40000
F46F80
F5FFF0
FA42F8
F800BC
F4007D
F4007D
F4003E
F4003D
F4003D
F4007C
F400B8
F800F0
FE47D0
1BF900
ENDCHAR
STARTCHAR uni0254
ENCODING 596
SWIDTH 454 0
DWIDTH 13 0
BBX 11 14 1 0
BITMAP
06F900
2FFF80
795BE0
D002F0
4001F4
0000F8
0000B8
0000B8
0000B8
1000B4
B800F0
BC01D0
7E1B80
1BF900
ENDCHAR
STARTCHAR uni0255
ENCODING 597
SWIDTH 447 0
DWIDTH 13 0
BBX 11 17 1 -3
BITMAP
01BF80
0B47F0
2C01F4
7800F4
B40010
F40000
F00000
F40000
F40000
B80BE0
BC3974
3EA028
1FD074
07FF90
060000
0C0000
180000
ENDCHAR
STARTCHAR uni0256
ENCODING 598
SWIDTH 528 0
DWIDTH 15 0
BBX 17 26 1 -6
BITMAP
00006D0000
0002BD0000
00003D0000
00003D0000
00003D0000
00003D0000
01BFBD0000
0B91FD0000
2D007D0000
7C003D0000
B8003D0000
F4003D0000
F4003D0000
F4003D0000
F8003D0000
F8003D0000
BD003D0000
7F41BD0000
2FFF7D0000
06F83D0000
00003D0000
00002D0000
00002D0000
00001E0780
00000B5F80
000002FE00
ENDCHAR
STARTCHAR uni0257
ENCODING 599
SWIDTH 542 0
DWIDTH 15 0
BBX 17 21 1 0
BITMAP
000001BE40
0000075FC0
00000E07C0
00001D0140
00002D0000
00003D0000
00003D0000
01BFBD0000
0B91FD0000
2D007D0000
7C003D0000
B8003D0000
F4003D0000
F4003D0000
F4003D0000
F8003D0000
F8003D0000
BD003D0000
7F41BD0000
2FFF7F5000
06F83E9000
ENDCHAR
STARTCHAR uni0258
ENCODING 600
SWIDTH 466 0
DWIDTH 13 0
BBX 11 14 1 0
BITMAP
02FE40
1F46D0
3D00F0
7C0078
B80078
FFFFFC
00007C
00007C
0000BC
0000F8
9002F4
791BE0
2FFFC0
06F900
ENDCHAR
STARTCHAR uni0259
ENCODING 601
SWIDTH 464 0
DWIDTH 13 0
BBX 11 14 1 0
BITMAP
06F900
2FFF80
795BE0
9002F4
4000F8
0000BC
00007C
00007C
FFFFFC
F80078
B80074
7D00E0
1F46C0
06FE00
ENDCHAR
STARTCHAR uni025A
ENCODING 602
SWIDTH 642 0
DWIDTH 18 0
BBX 17 14 1 0
BITMAP
06F9000000
1FFF800000
795BE05000
9002F6E080
4000FDB180
0000BC7F00
00007C0000
00007C0000
FFFFFC0000
F800780000
B800740000
7D00F00000
1F46D00000
06FE000000
ENDCHAR
STARTCHAR uni025B
ENCODING 603
SWIDTH 399 0
DWIDTH 11 0
BBX 10 14 1 0
BITMAP
0AFE40
3D1BD0
B803D0
B80140
780000
2E0000
07FC00
2E5000
B80000
F80000
F40000
B80010
7E4580
1BF900
ENDCHAR
STARTCHAR uni025C
ENCODING 604
SWIDTH 398 0
DWIDTH 11 0
BBX 10 14 0 0
BITMAP
0BFE40
3F47D0
7D02E0
1401F0
0002E0
000780
02FD00
001B80
0002E0
0001F0
0001F0
5001F0
2907D0
06FE40
ENDCHAR
STARTCHAR uni025D
ENCODING 605
SWIDTH 575 0
DWIDTH 16 0
BBX 16 14 0 0
BITMAP
0BFE0000
3F47D000
7D02E140
1401FB82
0002E6C2
000781FD
02FE0000
001BC000
0002E000
0001F000
0001F000
5001F000
2907D000
06FE0000
ENDCHAR
STARTCHAR uni025E
ENCODING 606
SWIDTH 500 0
DWIDTH 14 0
BBX 12 14 1 0
BITMAP
01BF90
0B91BC
2E002E
7C002E
B8002D
F400B8
F42FD0
F401B8
F4002E
B8002F
7C002F
2E003E
0B91BD
01BFA0
ENDCHAR
STARTCHAR uni025F
ENCODING 607
SWIDTH 272 0
DWIDTH 8 0
BBX 11 20 -3 -6
BITMAP
006B40
006F40
000F40
000F40
000F40
01FFF4
001F40
000F40
000F40
000F40
000F40
000F40
000F40
000F40
000F00
000F00
101E00
7C1D00
7E6800
2FE000
ENDCHAR
STARTCHAR uni0260
ENCODING 608
SWIDTH 541 0
DWIDTH 15 0
BBX 18 27 1 -6
BITMAP
000001BE40
0000075BE0
00000E03E0
00002D0040
00002D0000
00003D0000
00003D0000
01BE7D0000
0B91FD0000
2D007D0000
78003D0000
B8003D0000
F4003D0000
F4003D0000
F4003D0000
F8003D0000
F8003D0000
BD003D0000
7F41BD0000
2FFF7D0000
06F83D0000
00003D0000
00003C0000
14007C0000
7D00B40000
7F46E00000
1BFE400000
ENDCHAR
STARTCHAR uni0261
ENCODING 609
SWIDTH 521 0
DWIDTH 15 0
BBX 12 20 1 -6
BITMAP
01BF99
0B91FD
2D007D
78003D
B8003D
F4003D
F4003D
F4003D
F8003D
F8003D
BD003D
7F41BD
2FFF7D
06F83D
00003D
00003C
14007C
7D00B4
7F46E0
1BFE40
ENDCHAR
STARTCHAR uni0262
ENCODING 610
SWIDTH 535 0
DWIDTH 15 0
BBX 14 14 1 0
BITMAP
01BFFF00
0B907F00
2E000B00
7C000700
B8000300
F8000000
F8000000
F800FFD0
F8006F40
BC001F00
7D001F00
2E001F00
0BD06E00
01BFE400
ENDCHAR
STARTCHAR uni0263
ENCODING 611
SWIDTH 479 0
DWIDTH 13 0
BBX 15 20 -1 -6
BITMAP
7FF80FFC
1FD002E0
07D002C0
03E00380
02F00740
01F40A00
00B80D00
007C1C00
003E2400
002F7000
000FA000
000BD000
0007C000
0007E000
000EF000
0018F400
0028B800
00247800
0028B400
000BD000
ENDCHAR
STARTCHAR uni0264
ENCODING 612
SWIDTH 466 0
DWIDTH 13 0
BBX 13 14 0 0
BITMAP
2F91BE00
B87F4B80
F42E0780
607B8240
0093C000
01C2E000
0241F000
0340F400
0300F400
0700F400
0700F400
0340F000
02D6D000
00BF4000
ENDCHAR
STARTCHAR uni0265
ENCODING 613
SWIDTH 553 0
DWIDTH 15 0
BBX 16 20 0 -6
BITMAP
1BC016D0
6FC02BD0
07C003D0
07C003D0
07C003D0
07C003D0
07C003D0
07C003D0
07C003D0
07C003D0
07D007D0
03E01FD0
02FFE3D0
00BE43D0
000003D0
000003D0
000003D0
000003D0
000003E0
000003FD
ENDCHAR
STARTCHAR uni0266
ENCODING 614
SWIDTH 577 0
DWIDTH 16 0
BBX 15 21 1 0
BITMAP
006F9000
0297F400
0741F400
0B005000
0F000000
0F000000
1F000000
1F06F800
1F2FFE00
1FE02F00
1F400F40
1F000F40
1F000F40
1F000B80
1F000B80
1F000B80
1F000B80
1F000B80
1F000F80
2F801FD0
FFF4FFF8
ENDCHAR
STARTCHAR uni0267
ENCODING 615
SWIDTH 562 0
DWIDTH 16 0
BBX 13 27 1 -6
BITMAP
006F9000
0297F400
0741F400
0B005000
0F000000
0F000000
1F000000
1F06F800
1F2FFE00
1FE02F00
1F400F40
1F000F40
1F000F40
1F000B80
1F000B80
1F000B80
1F000B80
1F000B80
1F000B80
2F800B80
FFF40B40
00000F40
00000F40
00000F00
003C0E00
007F6D00
001FE400
ENDCHAR
STARTCHAR uni0268
ENCODING 616
SWIDTH 295 0
DWIDTH 8 0
BBX 7 20 1 0
BITMAP
0B40
1F80
0B40
0000
0000
0000
5B40
BF40
0F40
0F40
0F40
0F40
FFF4
0F40
0F40
0F40
0F40
0F40
1F80
FFF4
ENDCHAR
STARTCHAR uni0269
ENCODING 617
SWIDTH 286 0
DWIDTH 8 0
BBX 9 14 0 0
BITMAP
1BC000
6FC000
0BC000
07C000
07C000
07C000
07C000
07C000
07C000
07C000
07C000
07C000
03D240
01F900
ENDCHAR
STARTCHAR uni026A
ENCODING 618
SWIDTH 287 0
DWIDTH 8 0
BBX 7 14 1 0
BITMAP
FFF4
2F80
1F40
0F40
0F40
0F40
0F40
0F40
0F40
0F40
0F40
1F40
2F80
FFF4
ENDCHAR
STARTCHAR uni026B
ENCODING 619
SWIDTH 290 0
DWIDTH 8 0
BBX 8 20 0 0
BITMAP
16D0
2FD0
07D0
03D0
03D0
03D0
03D0
03D0
2FD2
97FD
43D0
03D0
03D0
03D0
03D0
03D0
03D0
07D0
0BE0
3FFD
ENDCHAR
STARTCHAR uni026C
ENCODING 620
SWIDTH 318 0
DWIDTH 9 0
BBX 9 20 0 0
BITMAP
06B000
16F000
01F000
01F000
01F000
01F000
2FF000
B5F000
E1F000
D1F040
E1F280
BEFE00
1BF400
01F000
01F000
01F000
01F000
01F000
02F400
1FFF00
ENDCHAR
STARTCHAR uni026D
ENCODING 621
SWIDTH 248 0
DWIDTH 7 0
BBX 10 26 0 -6
BITMAP
1B8000
AF8000
0B8000
0B8000
0B8000
0B8000
0B8000
0B8000
0B8000
0B8000
0B8000
0B8000
0B8000
0B8000
0B8000
0B8000
0B8000
0B8000
0B8000
0B8000
0B8000
0B8000
078000
0381E0
02D7E0
006F80
ENDCHAR
STARTCHAR uni026E
ENCODING 622
SWIDTH 590 0
DWIDTH 17 0
BBX 15 26 1 -6
BITMAP
6B000000
AF000000
1F000000
1F000000
1F000000
1F000000
1FFFFFF8
1F4002F0
1F0007D0
1F000F80
1F002F00
1F007D00
1F00F800
1F02F000
1F07E000
1F06BF40
1F0007E0
1F0001F4
2F8000BC
FFF400BC
0000007C
000000BC
005000F8
01F401F0
00FD1B80
002FE900
ENDCHAR
STARTCHAR uni026F
ENCODING 623
SWIDTH 846 0
DWIDTH 24 0
BBX 23 14 0 0
BITMAP
1BC01B801BC0
6FC06F806FC0
0BC00B800BC0
07C00B8007C0
07C00B8007C0
07C00B8007C0
07C00B8007C0
07C00B8007C0
07C00B8007C0
07C00B8007C0
07C00BC007C0
07D01FC01FC0
02E477E46BD0
00BE41BE47A4
ENDCHAR
STARTCHAR uni0270
ENCODING 624
SWIDTH 826 0
DWIDTH 23 0
BBX 23 20 0 -6
BITMAP
1BC01B801BC0
6FC06F806FC0
07C00B8007C0
07C00B8007C0
07C00B8007C0
07C00B8007C0
07C00B8007C0
07C00B8007C0
07C00B8007C0
07C00BC007C0
07C00BC00BC0
07E06FE06FC0
02FFE2FFD7C0
00BE40BE47C0
0000000007C0
0000000007C0
0000000007C0
0000000007C0
0000000007D0
0000000007FC
ENDCHAR
STARTCHAR uni0271
ENCODING 625
SWIDTH 835 0
DWIDTH 23 0
BBX 21 20 1 -6
BITMAP
6B06F806F400
FF2FFD2FFE00
1FA02FA02F00
0F401F801F00
0F400F400F40
0F400F400F40
0F400F400F40
0F400F400F40
0F400F400F40
0F400F400F40
0F400F400F40
1F400F400F40
2F802F900F40
FFF5FFF40F40
000000000F00
000000000F00
000000001F00
000000781E00
0000007E6C00
0000002FE000
ENDCHAR
STARTCHAR uni0272
ENCODING 626
SWIDTH 574 0
DWIDTH 16 0
BBX 19 20 -3 -6
BITMAP
00AF07F800
002F647E00
001F801F00
001F000F40
001F000F40
001F000F40
001F000F40
001F000F40
001F000F40
001F000F40
001F000F40
001F000F40
001F001F90
001F00FFF4
001F000000
001F000000
001E000000
781D000000
BE78000000
2FE0000000
ENDCHAR
STARTCHAR uni0273
ENCODING 627
SWIDTH 563 0
DWIDTH 16 0
BBX 18 20 1 -6
BITMAP
6B06F80000
FF2FFE0000
1FA02F0000
1F401F4000
1F000F4000
1F000F4000
1F000F4000
1F000F4000
1F000F4000
1F000F4000
1F000F4000
1F400F4000
2F800F4000
FFF40F4000
00000F4000
00000B4000
00000B8000
00000781E0
000002D7E0
0000007F80
ENDCHAR
STARTCHAR uni0274
ENCODING 628
SWIDTH 568 0
DWIDTH 16 0
BBX 16 14 0 0
BITMAP
7FC00BFD
1FE001F4
07F400A0
07FD0090
067F0090
061F8090
060BE090
0602F490
0600FD90
06007F90
06001FD0
06000BD0
1F4002D0
7FE000D0
ENDCHAR
STARTCHAR uni0275
ENCODING 629
SWIDTH 514 0
DWIDTH 14 0
BBX 13 14 1 0
BITMAP
01BF9000
0B91F400
2E007D00
7C002E00
B8001F00
F8001F40
FFFFFF40
F8001F40
F8001F40
BC001F00
7C002E00
2E003C00
0F91B400
01BF8000
ENDCHAR
STARTCHAR uni0276
ENCODING 630
SWIDTH 732 0
DWIDTH 21 0
BBX 19 14 1 0
BITMAP
01BFFFFFE0
0B91BC01A0
2E007C0030
7C007C0010
BC007C0200
F8007C0700
F8007FFF00
F8007C0700
F8007C0200
BC007C0004
7C007C0024
2E007C0034
0F91BC01B0
01BFFFFFF0
ENDCHAR
STARTCHAR uni0277
ENCODING 631
SWIDTH 672 0
DWIDTH 19 0
BBX 17 14 1 0
BITMAP
006BFA0000
02E517E000
0F4000B800
2E00002E00
7C00001F00
B802E00F40
F803F00B80
F803E00B80
F803E00BC0
F802D00F80
BC01D00F40
7D02A01F00
1F46247D00
06F80BE400
ENDCHAR
STARTCHAR uni0278
ENCODING 632
SWIDTH 658 0
DWIDTH 18 0
BBX 17 26 1 -6
BITMAP
0016D00000
002BD00000
0003D00000
0003D00000
0003D00000
0003D00000
01BFFE8000
0BD3D7F400
2F03D0BD00
7D03D03E00
BC03D02F00
F803D01F40
F803D00F40
F803D00F40
F803D01F40
BC03D01F00
7D03D02E00
2F03D07C00
0BD3D1E000
01BFFE4000
0003D00000
0003D00000
0003D00000
0003D00000
0007E00000
003FFD0000
ENDCHAR
STARTCHAR uni0279
ENCODING 633
SWIDTH 380 0
DWIDTH 11 0
BBX 10 14 0 0
BITMAP
07FFE0
007F40
002E00
002E00
002E00
002E00
002E00
002E00
002E00
002E00
007E00
79AF00
BF5F90
7D1E40
ENDCHAR
STARTCHAR uni027A
ENCODING 634
SWIDTH 374 0
DWIDTH 10 0
BBX 10 20 0 0
BITMAP
006E00
01BE00
002E00
002E00
002E00
002E00
002E00
002E00
002E00
002E00
002E00
002E00
002E00
002E00
002E00
002E00
007E00
79AF00
BF5F90
7D1E40
ENDCHAR
STARTCHAR uni027B
ENCODING 635
SWIDTH 375 0
DWIDTH 11 0
BBX 13 20 0 -6
BITMAP
07FFE000
007F4000
002E0000
002E0000
002E0000
002E0000
002E0000
002E0000
002E0000
002E0000
007E0000
79AE0000
BF5E0000
7D1E0000
001E0000
001E0000
001F0000
000F07C0
00079FC0
0001BE40
ENDCHAR
STARTCHAR uni027C
ENCODING 636
SWIDTH 378 0
DWIDTH 11 0
BBX 11 20 0 -6
BITMAP
16C2E0
2FCBF4
07E9B0
07E000
07D000
07C000
07C000
07C000
07C000
07C000
07C000
07C000
07C000
07C000
07C000
07C000
07C000
07D000
0BE400
7FFE00
ENDCHAR
STARTCHAR uni027D
ENCODING 637
SWIDTH 373 0
DWIDTH 10 0
BBX 10 20 1 -6
BITMAP
6B0B80
BF2FD0
1F9780
1F8000
1F0000
1F0000
1F0000
1F0000
1F0000
1F0000
1F0000
1F0000
1F0000
1F0000
1F0000
1F0000
0F0000
0B43D0
079BD0
01BF40
ENDCHAR
STARTCHAR uni027E
ENCODING 638
SWIDTH 371 0
DWIDTH 10 0
BBX 10 14 0 0
BITMAP
002FD0
00E2F0
02D0A0
03C000
07C000
07C000
07C000
07C000
07C000
07C000
07C000
07C000
0BE000
7FFE00
ENDCHAR
STARTCHAR uni027F
ENCODING 639
SWIDTH 371 0
DWIDTH 10 0
BBX 10 14 0 0
BITMAP
6F9000
BD7400
642C00
002D00
002E00
002E00
002E00
002E00
002E00
002E00
002E00
002E00
007F40
07FFE0
ENDCHAR
STARTCHAR uni0280
ENCODING 640
SWIDTH 494 0
DWIDTH 14 0
BBX 14 14 1 0
BITMAP
BFFE8000
1F46F000
0F40B800
0F40B800
0F40B800
0F40F400
0F46E000
0FFE4000
0F6F4000
0F4BC000
0F43E000
1F41F800
2F40BE40
FFF03FD0
ENDCHAR
STARTCHAR uni0281
ENCODING 641
SWIDTH 494 0
DWIDTH 14 0
BBX 14 14 1 0
BITMAP
FFF03FD0
2F80BE40
1F41F800
0F43F000
0F4BD000
0F5F4000
0FFE0000
0F57E000
0F40F400
0F40B800
0F40B800
0F40B800
1F46F000
BFFE8000
ENDCHAR
STARTCHAR uni0282
ENCODING 642
SWIDTH 395 0
DWIDTH 11 0
BBX 10 20 1 -6
BITMAP
0BFA40
791F40
B40340
F40240
BD0140
7F8000
1FF400
06FE00
006F80
800BD0
D007D0
E003C0
F91B80
EBF900
D00000
900000
900000
A0A000
35F000
1BD000
ENDCHAR
STARTCHAR uni0283
ENCODING 643
SWIDTH 253 0
DWIDTH 7 0
BBX 13 27 -3 -6
BITMAP
0001BE40
00075FC0
000F07C0
001E0000
001E0000
002E0000
002E0000
002E0000
002E0000
002E0000
002E0000
002E0000
002E0000
002E0000
002E0000
002E0000
002E0000
002E0000
002E0000
002E0000
002E0000
002E0000
002E0000
002D0000
B42C0000
BD780000
2FD00000
ENDCHAR
STARTCHAR uni0284
ENCODING 644
SWIDTH 286 0
DWIDTH 8 0
BBX 14 26 -3 -6
BITMAP
0000BF80
0002DBD0
00074180
000B4000
000F4000
000F4000
000F4000
001F4000
001F4000
001F4000
001F4000
001F4000
001F4000
001F4000
001F4000
001F4000
001F4000
001F4000
001F4000
01FFF400
001F0000
001F0000
001F0000
141D0000
7E680000
2FE00000
ENDCHAR
STARTCHAR uni0285
ENCODING 645
SWIDTH 361 0
DWIDTH 10 0
BBX 13 20 0 -6
BITMAP
2F900000
BD740000
B42C0000
002D0000
002E0000
002E0000
002E0000
002E0000
002E0000
002E0000
002E0000
002E0000
002E0000
002E0000
002E0000
001E0000
001E0000
000F03C0
00074BC0
0001BE40
ENDCHAR
STARTCHAR uni0286
ENCODING 646
SWIDTH 253 0
DWIDTH 7 0
BBX 13 27 -3 -6
BITMAP
0001BE40
00075FC0
000F07C0
001E0000
001E0000
002E0000
002E0000
002E0000
002E0000
002E0000
002E0000
002E0000
002E0000
002E0000
002E0000
002E0000
002E0000
002E0000
002E0000
002E0000
002E0000
0BFE0000
396F8000
702EB000
603D1000
74780000
1BD00000
ENDCHAR
STARTCHAR uni0287
ENCODING 647
SWIDTH 315 0
DWIDTH 9 0
BBX 8 18 0 -4
BITMAP
1F90
62F0
01F0
00F4
00F4
00F4
00F4
00F4
00F4
00F4
00F4
00F4
00F4
7FFE
00F8
00F0
00D0
00C0
ENDCHAR
STARTCHAR uni0288
ENCODING 648
SWIDTH 309 0
DWIDTH 9 0
BBX 10 25 1 -6
BITMAP
010000
030000
0B0000
0F0000
2F0000
BFFD00
6F5400
1F0000
1F0000
1F0000
1F0000
1F0000
1F0000
1F0000
1F0000
1F0000
1F0000
1F0000
1F0000
1F0000
0F0000
0F0040
0B43D0
039BD0
00BF40
ENDCHAR
STARTCHAR uni0289
ENCODING 649
SWIDTH 580 0
DWIDTH 16 0
BBX 16 14 0 0
BITMAP
2BC02BD0
1BC01BD0
07C003D0
07C003D0
07C003D0
07C003D0
7FFFFFFD
07C003D0
07C003D0
07C003D0
07C003D0
03D007D0
02F46BE0
00BF93E8
ENDCHAR
STARTCHAR uni028A
ENCODING 650
SWIDTH 548 0
DWIDTH 15 0
BBX 13 14 1 0
BITMAP
7FC0BFC0
07803900
07002800
0E001D00
2D000F00
7C000B80
BC000BC0
B80007C0
B80007C0
BC000BC0
7C000B80
2E001F40
0B917D00
01BF9000
ENDCHAR
STARTCHAR uni028B
ENCODING 651
SWIDTH 530 0
DWIDTH 15 0
BBX 14 14 0 0
BITMAP
6BC00E00
1FC00F80
0BC00BC0
07C003D0
07C001D0
07C000E0
07C00090
07C00090
07C00090
07C000C0
07C00180
03D00200
01F41900
006FE000
ENDCHAR
STARTCHAR uni028C
ENCODING 652
SWIDTH 495 0
DWIDTH 14 0
BBX 15 14 -1 0
BITMAP
00038000
0007D000
000BE000
000EF000
0028F400
0034B800
00707C00
00A03D00
01D02F00
02C01F40
03400F80
07000BC0
1F400BE4
7FE03FFC
ENDCHAR
STARTCHAR uni028D
ENCODING 653
SWIDTH 764 0
DWIDTH 21 0
BBX 22 14 0 0
BITMAP
000E001D0000
001F002E0000
003F407F0000
007B80AF4000
00A7C0DBC000
00D3D187D000
01C2E243E000
0281F702F000
0340FE01F400
0700BD00B800
0E007D007D00
1D003E003E00
7D003F407F40
FF80FFE1FFE0
ENDCHAR
STARTCHAR uni028E
ENCODING 654
SWIDTH 492 0
DWIDTH 14 0
BBX 14 21 0 0
BITMAP
00001A80
00007FD0
0000E7D0
0002C000
00034000
00070000
000A0000
001D0000
002E0000
003F4000
006B8000
0097C000
00C3E000
0182F000
0281F400
0340BC00
0B007D00
0E003E00
1D002F40
6D002F90
FF80FFF0
ENDCHAR
STARTCHAR uni028F
ENCODING 655
SWIDTH 454 0
DWIDTH 13 0
BBX 14 14 -1 0
BITMAP
7FF40FF0
1FD00390
07C00300
02E00900
00F41800
007C3400
002EA000
001FC000
000B8000
000B8000
000B8000
000B8000
001FD000
00BFF800
ENDCHAR
STARTCHAR uni0290
ENCODING 656
SWIDTH 458 0
DWIDTH 13 0
BBX 16 20 1 -6
BITMAP
BFFFF800
B502F400
A007E000
900BC000
401F4000
003E0000
00BC0000
01F40000
03E00000
0BC00800
1F401800
3E002800
BD01B800
FFFFF800
00002800
00002800
00002800
00001818
00000D7D
000006F8
ENDCHAR
STARTCHAR uni0291
ENCODING 657
SWIDTH 458 0
DWIDTH 13 0
BBX 12 19 1 -5
BITMAP
BFFFF8
B402F4
A007E0
900BC0
001F40
003E00
00BC00
01F400
03E000
0BC1B8
1F475D
3E1C09
BD241D
FFFFE4
00D000
018000
034000
060000
010000
ENDCHAR
STARTCHAR uni0292
ENCODING 658
SWIDTH 443 0
DWIDTH 12 0
BBX 12 20 0 -6
BITMAP
2FFFFE
3D00FC
3402F4
3007E0
000F80
002F40
007D00
00F800
02F900
001BE0
0001F8
00007D
00002E
00002F
00002F
00002E
38003D
7D00B8
3F56E0
0BFA00
ENDCHAR
STARTCHAR uni0293
ENCODING 659
SWIDTH 443 0
DWIDTH 12 0
BBX 11 24 1 -10
BITMAP
BFFFF8
F403F0
D00BD0
C01F80
003E00
00BC00
01F400
03E000
07E500
006F80
0007E0
0001F4
0000F8
0000B8
6D00B8
D740F8
C0C0F4
D062E0
793B80
1BFD00
000900
000700
000280
0000C0
ENDCHAR
STARTCHAR uni0294
ENCODING 660
SWIDTH 383 0
DWIDTH 11 0
BBX 11 21 0 0
BITMAP
06FE40
1E57D0
3D01F0
7C00F4
2800F8
0000F8
0000F8
0000F4
0001F0
0007D0
001F40
02E400
07C000
07C000
07C000
07C000
07C000
07C000
07D000
0BE400
7FFE00
ENDCHAR
STARTCHAR uni0295
ENCODING 661
SWIDTH 383 0
DWIDTH 11 0
BBX 10 21 0 0
BITMAP
06FE40
1F57D0
3C02F0
B801F0
F80090
F80000
F80000
B80000
7C0000
2E0000
0B8000
01B900
001F00
001F00
001F00
001F00
001F00
001F00
001F00
007F40
03FFF0
ENDCHAR
STARTCHAR uni0296
ENCODING 662
SWIDTH 408 0
DWIDTH 11 0
BBX 11 20 0 0
BITMAP
06D000
2BD000
03D000
03D000
03D000
03D000
03D000
03D000
03D000
01B900
000B80
0002E0
0001F4
0000F4
0000F8
1400F8
3C00F4
7D00F0
2E02D0
06FE40
ENDCHAR
STARTCHAR uni0297
ENCODING 663
SWIDTH 437 0
DWIDTH 12 0
BBX 11 19 1 -5
BITMAP
01BF80
0787F0
1E01F4
3C00F4
780010
B40000
B40000
F40000
F40000
F40000
F40000
F40000
F40000
B80000
7C0004
3E0018
1F90B0
0BFFD0
02FE40
ENDCHAR
STARTCHAR uni0298
ENCODING 664
SWIDTH 736 0
DWIDTH 21 0
BBX 19 20 1 0
BITMAP
001AFE8000
00B906F400
07D0002E00
0F40000F80
2E000007D0
7D000002E0
BC000001F4
F8000000F4
F800B400F8
F801FC00F8
F801FC00F8
F800B400F8
B8000000F4
BC000001F0
7D000002E0
2E000007D0
0F40000F80
07D0002E00
00B906F400
001AFE4000
ENDCHAR
STARTCHAR uni0299
ENCODING 665
SWIDTH 485 0
DWIDTH 14 0
BBX 12 14 1 0
BITMAP
FFFF90
1F46F4
0F40B8
0F40BC
0F40B8
0F41E0
0FFF40
0F46F4
0F407C
0F403E
0F403E
1F407D
1F41F8
FFFF90
ENDCHAR
STARTCHAR uni029A
ENCODING 666
SWIDTH 500 0
DWIDTH 14 0
BBX 12 14 1 0
BITMAP
06FE40
3E46E0
B800B8
B8003D
78002E
2E001F
07F81F
2E501F
B8001F
F8002E
F8003D
BC00B8
7E46E0
0AFE40
ENDCHAR
STARTCHAR uni029B
ENCODING 667
SWIDTH 536 0
DWIDTH 15 0
BBX 17 19 1 0
BITMAP
000000BE00
0000029B80
0000034240
0000030000
0000070000
01BFFF0000
0B906F0000
2E000B0000
7C00030000
B800020000
F800000000
F800000000
F800FFD000
F8006F4000
BC001F0000
7D001F0000
2E001F0000
0BD06E0000
01BFE40000
ENDCHAR
STARTCHAR uni029C
ENCODING 668
SWIDTH 599 0
DWIDTH 17 0
BBX 15 14 1 0
BITMAP
FFF47FFC
2F801BD0
1F4007C0
0F4007C0
0F4007C0
0F4007C0
0FFFFFC0
0F4007C0
0F4007C0
0F4007C0
0F4007C0
1F4007C0
2F800BD0
FFF47FFC
ENDCHAR
STARTCHAR uni029D
ENCODING 669
SWIDTH 263 0
DWIDTH 7 0
BBX 10 25 -2 -6
BITMAP
007C00
00BD00
007C00
000000
000000
01AC00
02BC00
007C00
007C00
007C00
007C00
007C00
007C00
007C00
007C00
007C00
007C00
007C00
007C00
1BFC00
757E40
D07DD0
C07800
A1F000
2F8000
ENDCHAR
STARTCHAR uni029E
ENCODING 670
SWIDTH 542 0
DWIDTH 15 0
BBX 15 20 0 -6
BITMAP
FFF4FFF4
1FD01F90
07E00F40
01F80F40
007E0F40
002F4F40
000BDF40
0002FF40
0001DF40
00074F40
001D0F40
00B40F40
06F00F40
3FFC0F40
00000F40
00000F40
00000F40
00000F40
00000F90
00000FF8
ENDCHAR
STARTCHAR uni029F
ENCODING 671
SWIDTH 440 0
DWIDTH 12 0
BBX 12 14 0 0
BITMAP
7FFC00
1FD000
0BC000
07C000
07C000
07C000
07C000
07C000
07C000
07C001
07C006
07C00A
0BC01E
7FFFFD
ENDCHAR
STARTCHAR uni02A0
ENCODING 672
SWIDTH 541 0
DWIDTH 15 0
BBX 18 27 1 -6
BITMAP
000001BE40
0000075BE0
00000E03E0
00001D0040
00002D0000
00003D0000
00003D0000
01BFBD0000
0B91FD0000
2D007D0000
78003D0000
B8003D0000
F4003D0000
F4003D0000
F4003D0000
F8003D0000
F8003D0000
BD003D0000
7F41BD0000
2FFF7D0000
06F83D0000
00003D0000
00003D0000
00003D0000
00003D0000
0001BE4000
000BFFD000
ENDCHAR
STARTCHAR uni02A1
ENCODING 673
SWIDTH 393 0
DWIDTH 11 0
BBX 10 21 1 0
BITMAP
0AF900
7D5F40
F407C0
F403E0
B002E0
0002E0
0002E0
0003E0
0007D0
000B80
002E00
01B800
0F8000
0F4000
0F4000
FFFD00
1F4000
0F4000
0F4000
1F9000
FFF800
ENDCHAR
STARTCHAR uni02A2
ENCODING 674
SWIDTH 393 0
DWIDTH 11 0
BBX 10 21 0 0
BITMAP
02BE40
1F57D0
3D01F0
7C01F0
B800E0
B80000
B80000
BC0000
7C0000
2E0000
0F4000
02E400
002F00
001F00
001F00
07FFF0
001F40
001F00
001F00
006F80
02FFF0
ENDCHAR
STARTCHAR uni02A3
ENCODING 675
SWIDTH 830 0
DWIDTH 23 0
BBX 22 20 1 0
BITMAP
00006D000000
0002BD000000
00003D000000
00003D000000
00003D000000
00003D000000
01BFBFFFFFD0
0B91FD001FC0
2D003D002F40
7C003D007E00
B8003D00FC00
F4003D02F400
F4003D07E000
F4003D0FC000
F8003D2F4000
F8003D7E0090
BD003DFC00D0
7F41BFF401D0
2FFF7FE55BC0
06F83FFFFFC0
ENDCHAR
STARTCHAR uni02A4
ENCODING 676
SWIDTH 838 0
DWIDTH 23 0
BBX 22 26 1 -6
BITMAP
00006D000000
0002BD000000
00003D000000
00003D000000
00003D000000
00003D000000
01BFBFFFFFE0
0B91FD000FD0
2D007D001F80
7C003D003F00
B8003D00BD00
F4003D01F800
F4003D03E000
F4003D0BC000
F8003D1F8000
F8003D1AF900
BD003D002F80
7F41BD000BD0
2FFF7F4003E0
06F93E8002F0
0000000002F0
0000000002E0
0000014003D0
000007D00B80
000003E02E00
000001BFA000
ENDCHAR
STARTCHAR uni02A5
ENCODING 677
SWIDTH 829 0
DWIDTH 23 0
BBX 22 24 1 -4
BITMAP
00006D000000
0002BD000000
00003D000000
00003D000000
00003D000000
00003D000000
01BFBFFFFFD0
0B91FD001FC0
2D007D002F40
7C003D007E00
B8003D00FC00
F4003D02F400
F4003D07E000
F4003D0FC000
F8003D2F4000
F8003D7E0B90
BD003DFC35A0
7F41BFF49060
2FFF7FE181A0
06F83FFFFE40
0000000A0000
0000000C0000
000000280000
000000300000
ENDCHAR
STARTCHAR uni02A6
ENCODING 678
SWIDTH 614 0
DWIDTH 17 0
BBX 16 18 1 0
BITMAP
03000000
07000000
0F000000
2F000000
7FFFFFA8
1F07D1F8
1F0B4038
1F0B4028
1F0BD018
1F03F800
1F00BF80
1F001FE0
1F0002F8
1F00007D
1F00003D
0F80007C
07E416F4
00AFFE40
ENDCHAR
STARTCHAR uni02A7
ENCODING 679
SWIDTH 513 0
DWIDTH 14 0
BBX 17 27 1 -6
BITMAP
000002F900
00000E6F40
00002C0F40
02003C0100
07007C0000
0F007C0000
2F007C0000
BFFFFC0000
1F007C0000
1F007C0000
1F007C0000
1F007C0000
1F007C0000
1F007C0000
1F007C0000
1F007C0000
1F007C0000
1F007C0000
1F007C0000
0F497C0000
07E47C0000
00007C0000
00007C0000
0000780000
01D0740000
02F4B00000
00BF800000
ENDCHAR
STARTCHAR uni02A8
ENCODING 680
SWIDTH 687 0
DWIDTH 19 0
BBX 18 18 1 0
BITMAP
0300000000
0700000000
0F00000000
2F00000000
BFFC0AF900
1F00791F80
1F00E00BD0
1F02D003C0
1F03C00000
1F03C00000
1F07C00000
1F07C00000
1F07C00000
1F03D06F40
1F02E795D0
1F01FD00D0
0F86FE4680
07F91BFE00
ENDCHAR
STARTCHAR uni02A9
ENCODING 681
SWIDTH 866 0
DWIDTH 24 0
BBX 22 27 0 -6
BITMAP
002F90000000
00A6F4000000
01D0B8000000
02D010000000
03D000000000
03D000000000
03D000000000
7FFFFFE0BE40
17D557E7FFD0
03D002FD07E0
03D002F002F0
03D002E001F0
03D002E001F0
03D002E001F0
03D002E001F0
03D002E001F0
03D002E001F0
03D002E001F0
07D002E001F0
1BE407F401F0
BFFF2FFF01F0
0000000001F0
0000000001F0
0000000001E0
0000000781D0
0000000BE780
00000002FE00
ENDCHAR
STARTCHAR uni02AA
ENCODING 682
SWIDTH 595 0
DWIDTH 17 0
BBX 16 20 0 0
BITMAP
1B800000
AF800000
0B800000
0B800000
0B800000
0B800000
0B806F99
0B81E5BD
0B83C01D
0B83C00D
0B83E009
0B82FD00
0B80BF90
0B801FF4
0B8001FD
0B80003E
0B80002F
0B80002E
02E405B8
006FFE90
ENDCHAR
STARTCHAR uni02AB
ENCODING 683
SWIDTH 580 0
DWIDTH 16 0
BBX 14 20 1 0
BITMAP
6B000000
AF000000
1F000000
1F000000
1F000000
1F000000
1FFFFFF0
1F4007E0
1F000BC0
1F001F40
1F003E00
1F00BC00
1F01F400
1F02E000
1F07D000
1F0F8020
1F2F0030
1F7D00B0
1FFD56F0
FFFFFFF0
ENDCHAR
STARTCHAR uni02AC
ENCODING 684
SWIDTH 599 0
DWIDTH 17 0
BBX 17 20 0 0
BITMAP
BF8FF83F40
2E02E00E00
0F01F01C00
0B81F42400
03C2783000
02D23C6000
01E91E8000
00BC0F8000
00740B4000
0000000000
BF8FF43F40
2E06E01E00
0F01E00C00
0B41F01800
0782B83000
03D23C6000
02E62D9000
00F91EC000
00B80F8000
00740B4000
ENDCHAR
STARTCHAR uni02AD
ENCODING 685
SWIDTH 479 0
DWIDTH 13 0
BBX 10 19 2 0
BITMAP
FFFFD0
FFFFD0
E001D0
E000D0
E000D0
E000D0
E000D0
E000D0
400040
000000
FFFFD0
FFFFD0
E001D0
E000D0
E000D0
E000D0
E000D0
E000D0
E000D0
ENDCHAR
STARTCHAR uni02AE
ENCODING 686
SWIDTH 595 0
DWIDTH 17 0
BBX 18 20 -1 -6
BITMAP
7F80006D00
F9B002FD00
6078003D00
003C003D00
003C003D00
003D003D00
003D003D00
003D003D00
003D003D00
003D003D00
003E003D00
002F41FD00
001FFF7D00
0007F83D00
0000003D00
0000003D00
0000003D00
0000003D00
0000003E40
0000003FE0
ENDCHAR
STARTCHAR uni02AF
ENCODING 687
SWIDTH 600 0
DWIDTH 17 0
BBX 21 20 -1 -6
BITMAP
7F80006D0000
F9B002FD0000
6078003D0000
003C003D0000
003C003D0000
003D003D0000
003D003D0000
003D003D0000
003D003D0000
003D003D0000
003E003D0000
002F41FD0000
001FFF7D0000
0007F83D0000
0000003D0000
0000002D0000
0000002D0000
0000001E0B80
0000000B6F80
00000002FE00
ENDCHAR
STARTCHAR uni02B0
ENCODING 688
SWIDTH 488 0
DWIDTH 14 0
BBX 13 15 0 7
BITMAP
6F400000
0B400000
0B400000
0B400000
0B4BE000
0B7FF800
0BD07C00
0B403D00
0B402D00
0B402D00
0B402D00
0B402D00
0B402D00
0B803E00
7FF1FFC0
ENDCHAR
STARTCHAR uni02B1
ENCODING 689
SWIDTH 488 0
DWIDTH 14 0
BBX 13 16 0 7
BITMAP
006F9000
0182F000
03405000
07400000
0B400000
0B4BE000
0B7FF800
0BD07C00
0B403D00
0B402D00
0B402D00
0B402D00
0B402D00
0B402D00
0B803E00
7FF1FFC0
ENDCHAR
STARTCHAR uni02B2
ENCODING 690
SWIDTH 222 0
DWIDTH 6 0
BBX 7 20 -2 2
BITMAP
00B4
00F8
0064
0000
02F4
01B4
00B4
00B4
00B4
00B4
00B4
00B4
00B4
00B4
00B4
00B4
00B4
50B4
F4E0
7F80
ENDCHAR
STARTCHAR uni02B3
ENCODING 691
SWIDTH 325 0
DWIDTH 9 0
BBX 9 11 0 7
BITMAP
2B4B40
1F6F80
0BD640
0B8000
0B4000
0B4000
0B4000
0B4000
0B4000
0B8000
7FF400
ENDCHAR
STARTCHAR uni02B4
ENCODING 692
SWIDTH 325 0
DWIDTH 9 0
BBX 9 11 0 7
BITMAP
02FF80
003D00
003D00
003D00
003D00
003D00
003D00
003D00
28BD00
7F6E40
3D2E40
ENDCHAR
STARTCHAR uni02B5
ENCODING 693
SWIDTH 325 0
DWIDTH 9 0
BBX 11 14 0 4
BITMAP
02FF80
003D00
003D00
003D00
003D00
003D00
003D00
003D00
28BD00
7F6D00
3D2D00
001D00
000D1C
0006F8
ENDCHAR
STARTCHAR uni02B6
ENCODING 694
SWIDTH 443 0
DWIDTH 12 0
BBX 11 11 1 7
BITMAP
FFC1FC
2E03E0
2D0B80
2D1F00
2D3D00
2FF800
2D0B80
2D03D0
2D03D0
2D07C0
BFFE40
ENDCHAR
STARTCHAR uni02B7
ENCODING 695
SWIDTH 653 0
DWIDTH 18 0
BBX 19 11 0 7
BITMAP
FF87FD0BF4
2E00F402C0
1F00B80240
0B40BC0300
0780ED0A00
03D19E0D00
02E24F1C00
01F30BA400
00BA07F000
007D03E000
003801D000
ENDCHAR
STARTCHAR uni02B8
ENCODING 696
SWIDTH 427 0
DWIDTH 12 0
BBX 12 16 0 2
BITMAP
FFC1FE
2F0038
1F0030
0B8060
07C090
02D0C0
01F180
00F640
007A00
003D00
002C00
002800
003400
10A000
7EC000
7E4000
ENDCHAR
STARTCHAR uni02B9
ENCODING 697
SWIDTH 296 0
DWIDTH 8 0
BBX 5 9 2 11
BITMAP
0B40
0F40
1F00
2D00
3C00
7400
B000
D000
8000
ENDCHAR
STARTCHAR uni02BA
ENCODING 698
SWIDTH 456 0
DWIDTH 13 0
BBX 9 9 2 11
BITMAP
0B4780
0F4B80
1F0F40
2D1F00
3C2D00
743C00
B03400
D07000
805000
ENDCHAR
STARTCHAR uni02BB
ENCODING 699
SWIDTH 245 0
DWIDTH 7 0
BBX 5 7 1 13
BITMAP
0240
1D00
3400
7400
7F40
7F40
2F00
ENDCHAR
STARTCHAR uni02BC
ENCODING 700
SWIDTH 244 0
DWIDTH 7 0
BBX 5 7 1 13
BITMAP
7D00
BF00
7F40
0700
0A00
1C00
6000
ENDCHAR
STARTCHAR uni02BD
ENCODING 701
SWIDTH 244 0
DWIDTH 7 0
BBX 5 7 1 13
BITMAP
2E00
7F40
7F40
7000
3400
1D00
0240
ENDCHAR
STARTCHAR uni02BE
ENCODING 702
SWIDTH 203 0
DWIDTH 6 0
BBX 4 6 1 14
BITMAP
F8
1E
0B
0B
0E
F8
ENDCHAR
STARTCHAR uni02BF
ENCODING 703
SWIDTH 203 0
DWIDTH 6 0
BBX 5 6 0 14
BITMAP
0B80
3900
7400
7400
3800
1F80
ENDCHAR
STARTCHAR uni02C0
ENCODING 704
SWIDTH 364 0
DWIDTH 10 0
BBX 9 10 1 10
BITMAP
1BE400
BD6D00
B41F00
100F40
000F00
001F00
007C00
0F9000
0F0000
0F0000
ENDCHAR
STARTCHAR uni02C1
ENCODING 705
SWIDTH 364 0
DWIDTH 10 0
BBX 8 10 1 10
BITMAP
1BE8
7D6E
B40F
F404
F400
B800
2E00
06F0
00F0
00F0
ENDCHAR
STARTCHAR uni02C2
ENCODING 706
SWIDTH 324 0
DWIDTH 9 0
BBX 7 9 1 12
BITMAP
001C
01F8
0B90
7D00
B800
1F40
02E4
007C
0004
ENDCHAR
STARTCHAR uni02C3
ENCODING 707
SWIDTH 324 0
DWIDTH 9 0
BBX 7 10 1 12
BITMAP
4000
E000
BD00
0B80
01F8
00BC
07E0
6E00
F400
4000
ENDCHAR
STARTCHAR uni02C4
ENCODING 708
SWIDTH 324 0
DWIDTH 9 0
BBX 9 7 0 14
BITMAP
00D000
02E000
07B400
0E2C00
2C0E00
780740
B002C0
ENDCHAR
STARTCHAR uni02C5
ENCODING 709
SWIDTH 324 0
DWIDTH 9 0
BBX 9 7 0 14
BITMAP
B002C0
780740
2C0E00
0E2C00
07B400
02E000
00D000
ENDCHAR
STARTCHAR circumflex
ENCODING 710
SWIDTH 342 0
DWIDTH 10 0
BBX 8 5 1 15
BITMAP
0240
0BD0
1DB0
7428
9009
ENDCHAR
STARTCHAR caron
ENCODING 711
SWIDTH 342 0
DWIDTH 10 0
BBX 8 5 1 15
BITMAP
4005
601C
2874
1FE0
07C0
ENDCHAR
STARTCHAR uni02C8
ENCODING 712
SWIDTH 284 0
DWIDTH 8 0
BBX 2 8 3 13
BITMAP
A0
A0
A0
A0
A0
A0
A0
A0
ENDCHAR
STARTCHAR uni02C9
ENCODING 713
SWIDTH 350 0
DWIDTH 10 0
BBX 8 1 1 16
BITMAP
FFFF
ENDCHAR
STARTCHAR uni02CA
ENCODING 714
SWIDTH 222 0
DWIDTH 6 0
BBX 5 5 1 15
BITMAP
0A40
2F00
3D00
B400
D000
ENDCHAR
STARTCHAR uni02CB
ENCODING 715
SWIDTH 222 0
DWIDTH 6 0
BBX 4 5 1 15
BITMAP
A4
BC
3D
0E
07
ENDCHAR
STARTCHAR uni02CC
ENCODING 716
SWIDTH 284 0
DWIDTH 8 0
BBX 2 8 3 -6
BITMAP
A0
A0
A0
A0
A0
A0
A0
A0
ENDCHAR
STARTCHAR uni02CD
ENCODING 717
SWIDTH 342 0
DWIDTH 10 0
BBX 10 1 0 -4
BITMAP
BFFFD0
ENDCHAR
STARTCHAR uni02CE
ENCODING 718
SWIDTH 222 0
DWIDTH 6 0
BBX 4 5 1 -5
BITMAP
A4
BC
3D
0E
07
ENDCHAR
STARTCHAR uni02CF
ENCODING 719
SWIDTH 223 0
DWIDTH 6 0
BBX 5 5 1 -5
BITMAP
0A40
2F00
3D00
B400
D000
ENDCHAR
STARTCHAR uni02D0
ENCODING 720
SWIDTH 341 0
DWIDTH 10 0
BBX 5 13 2 1
BITMAP
7FC0
3F80
2F40
1F00
0E00
0000
0000
0000
0E00
1F00
2F40
3F80
7FC0
ENDCHAR
STARTCHAR uni02D1
ENCODING 721
SWIDTH 341 0
DWIDTH 10 0
BBX 5 5 2 9
BITMAP
7FC0
3F80
2F40
1F00
0E00
ENDCHAR
STARTCHAR uni02D2
ENCODING 722
SWIDTH 341 0
DWIDTH 10 0
BBX 6 8 2 3
BITMAP
F900
1780
01D0
00E0
00E0
01D0
0780
FE00
ENDCHAR
STARTCHAR uni02D3
ENCODING 723
SWIDTH 341 0
DWIDTH 10 0
BBX 6 8 2 3
BITMAP
0BD0
7900
B000
E000
E000
B000
7800
1BD0
ENDCHAR
STARTCHAR uni02D4
ENCODING 724
SWIDTH 341 0
DWIDTH 10 0
BBX 7 7 1 4
BITMAP
0100
0240
0240
0240
0240
BFFC
1554
ENDCHAR
STARTCHAR uni02D5
ENCODING 725
SWIDTH 341 0
DWIDTH 10 0
BBX 7 6 1 4
BITMAP
BFFC
0340
0240
0240
0240
0240
ENDCHAR
STARTCHAR uni02D6
ENCODING 726
SWIDTH 341 0
DWIDTH 10 0
BBX 6 6 2 5
BITMAP
0900
0900
0900
FFE0
0900
0900
ENDCHAR
STARTCHAR uni02D7
ENCODING 727
SWIDTH 341 0
DWIDTH 10 0
BBX 6 1 2 7
BITMAP
FFE0
ENDCHAR
STARTCHAR breve
ENCODING 728
SWIDTH 353 0
DWIDTH 10 0
BBX 8 5 1 15
BITMAP
4001
C007
A00A
7FFC
1BE4
ENDCHAR
STARTCHAR dotaccent
ENCODING 729
SWIDTH 194 0
DWIDTH 5 0
BBX 4 3 1 16
BITMAP
78
BD
78
ENDCHAR
STARTCHAR ring
ENCODING 730
SWIDTH 265 0
DWIDTH 7 0
BBX 6 6 1 15
BITMAP
2E40
A5C0
C090
C0A0
E1D0
7F40
ENDCHAR
STARTCHAR ogonek
ENCODING 731
SWIDTH 277 0
DWIDTH 8 0
BBX 6 8 1 -7
BITMAP
0100
1D00
3400
B000
E000
F560
BF80
0400
ENDCHAR
STARTCHAR tilde
ENCODING 732
SWIDTH 381 0
DWIDTH 11 0
BBX 9 3 1 16
BITMAP
2E4080
BFD640
81BE00
ENDCHAR
STARTCHAR hungarumlaut
ENCODING 733
SWIDTH 350 0
DWIDTH 10 0
BBX 8 4 1 15
BITMAP
2F3E
3D7C
74B0
D1D0
ENDCHAR
STARTCHAR uni02DE
ENCODING 734
SWIDTH 205 0
DWIDTH 6 0
BBX 7 4 -1 7
BITMAP
0400
7C14
5D20
0BE0
ENDCHAR
STARTCHAR uni02DF
ENCODING 735
SWIDTH 302 0
DWIDTH 8 0
BBX 7 7 1 14
BITMAP
4010
F0B4
3ED0
0F80
1FC0
74F0
A034
ENDCHAR
STARTCHAR uni02E0
ENCODING 736
SWIDTH 413 0
DWIDTH 12 0
BBX 12 16 0 2
BITMAP
FF81FE
2F0034
1F0070
0B4090
07C0C0
03D180
02E340
01F600
00BD00
007C00
007D00
00AE00
00CF00
018B00
018B00
00BD00
ENDCHAR
STARTCHAR uni02E1
ENCODING 737
SWIDTH 244 0
DWIDTH 7 0
BBX 5 15 1 7
BITMAP
BD00
6D00
2D00
2D00
2D00
2D00
2D00
2D00
2D00
2D00
2D00
2D00
2D00
2E00
FFC0
ENDCHAR
STARTCHAR uni02E2
ENCODING 738
SWIDTH 337 0
DWIDTH 9 0
BBX 8 11 1 7
BITMAP
2FEC
B02C
E01C
F80C
BF40
1FF4
02FD
802E
C01E
E02D
EFE4
ENDCHAR
STARTCHAR uni02E3
ENCODING 739
SWIDTH 445 0
DWIDTH 12 0
BBX 12 11 0 7
BITMAP
3FE1FD
0BC0B0
03D0D0
01F240
00BA00
003D00
006F40
01C7C0
0342E0
0A00F8
7F43FE
ENDCHAR
STARTCHAR uni02E4
ENCODING 740
SWIDTH 364 0
DWIDTH 10 0
BBX 9 15 1 7
BITMAP
06AE00
2D0BC0
7803C0
B40140
F40000
B40000
7C0000
2E0000
06E800
007C00
003C00
003C00
003C00
007C00
02FF80
ENDCHAR
STARTCHAR uni02E5
ENCODING 741
SWIDTH 423 0
DWIDTH 12 0
BBX 10 19 1 0
BITMAP
BFFFE0
0000A0
0000A0
0000A0
0000A0
0000A0
0000A0
0000A0
0000A0
0000A0
0000A0
0000A0
0000A0
0000A0
0000A0
0000A0
0000A0
0000A0
0000A0
ENDCHAR
STARTCHAR uni02E6
ENCODING 742
SWIDTH 414 0
DWIDTH 12 0
BBX 10 20 1 0
BITMAP
0000D0
0000D0
0000D0
0000D0
0000D0
0000D0
BFFFD0
0000D0
0000D0
0000D0
0000D0
0000D0
0000D0
0000D0
0000D0
0000D0
0000D0
0000D0
0000D0
000090
ENDCHAR
STARTCHAR uni02E7
ENCODING 743
SWIDTH 414 0
DWIDTH 12 0
BBX 10 20 1 0
BITMAP
000050
0000D0
0000D0
0000D0
0000D0
0000D0
0000D0
0000D0
0000D0
0000D0
BFFFD0
0000D0
0000D0
0000D0
0000D0
0000D0
0000D0
0000D0
0000D0
0000D0
ENDCHAR
STARTCHAR uni02E8
ENCODING 744
SWIDTH 414 0
DWIDTH 12 0
BBX 10 20 1 0
BITMAP
0000D0
0000D0
0000D0
0000D0
0000D0
0000D0
0000D0
0000D0
0000D0
0000D0
0000D0
0000D0
0000D0
BFFFD0
0000D0
0000D0
0000D0
0000D0
0000D0
000090
ENDCHAR
STARTCHAR uni02E9
ENCODING 745
SWIDTH 414 0
DWIDTH 12 0
BBX 10 20 1 0
BITMAP
000050
0000D0
0000D0
0000D0
0000D0
0000D0
0000D0
0000D0
0000D0
0000D0
0000D0
0000D0
0000D0
0000D0
0000D0
0000D0
0000D0
0000D0
0000D0
BFFFD0
ENDCHAR
STARTCHAR uni02EC
ENCODING 748
SWIDTH 341 0
DWIDTH 10 0
BBX 8 7 1 -4
BITMAP
9009
B42D
7838
2DB4
0FE0
07C0
0340
ENDCHAR
STARTCHAR uni02ED
ENCODING 749
SWIDTH 380 0
DWIDTH 11 0
BBX 9 5 1 16
BITMAP
FFFF80
000000
000000
000000
FFFF80
ENDCHAR
STARTCHAR uni02F7
ENCODING 759
SWIDTH 381 0
DWIDTH 11 0
BBX 9 3 1 -4
BITMAP
2E4080
BFD640
81BE00
ENDCHAR
STARTCHAR uni0300
ENCODING 768
SWIDTH 0 0
DWIDTH 0 0
BBX 5 5 -10 15
BITMAP
6800
3E00
1F00
0740
01C0
ENDCHAR
STARTCHAR uni0301
ENCODING 769
SWIDTH 0 0
DWIDTH 0 0
BBX 5 5 -8 15
BITMAP
0640
1F40
3D00
7400
A000
ENDCHAR
STARTCHAR uni0302
ENCODING 770
SWIDTH 0 0
DWIDTH 0 0
BBX 8 5 -10 15
BITMAP
0640
0FD0
2DE0
7438
D00D
ENDCHAR
STARTCHAR uni0303
ENCODING 771
SWIDTH 0 0
DWIDTH 0 0
BBX 9 3 -11 16
BITMAP
1F4080
7FE580
90BE00
ENDCHAR
STARTCHAR uni0304
ENCODING 772
SWIDTH 0 0
DWIDTH 0 0
BBX 9 1 -11 16
BITMAP
7FFF80
ENDCHAR
STARTCHAR uni0305
ENCODING 773
SWIDTH 0 0
DWIDTH 0 0
BBX 12 1 -12 16
BITMAP
7FFFFF
ENDCHAR
STARTCHAR uni0306
ENCODING 774
SWIDTH 0 0
DWIDTH 0 0
BBX 9 5 -11 15
BITMAP
500040
600240
740740
2FFE00
0BF800
ENDCHAR
STARTCHAR uni0307
ENCODING 775
SWIDTH 0 0
DWIDTH 0 0
BBX 3 3 -8 16
BITMAP
B8
FC
B8
ENDCHAR
STARTCHAR uni0308
ENCODING 776
SWIDTH 0 0
DWIDTH 0 0
BBX 9 3 -11 16
BITMAP
B80780
FC0FC0
B80780
ENDCHAR
STARTCHAR uni0309
ENCODING 777
SWIDTH 0 0
DWIDTH 0 0
BBX 6 6 -9 15
BITMAP
2F40
B6D0
51D0
01D0
0280
0D00
ENDCHAR
STARTCHAR uni030A
ENCODING 778
SWIDTH 0 0
DWIDTH 0 0
BBX 7 6 -10 15
BITMAP
0B90
39B0
7034
7034
3470
1FD0
ENDCHAR
STARTCHAR uni030B
ENCODING 779
SWIDTH 0 0
DWIDTH 0 0
BBX 8 4 -9 15
BITMAP
2F6F
3D7C
74B4
D0D0
ENDCHAR
STARTCHAR uni030C
ENCODING 780
SWIDTH 0 0
DWIDTH 0 0
BBX 8 5 -10 15
BITMAP
4005
A028
38B4
1FD0
0B80
ENDCHAR
STARTCHAR uni030D
ENCODING 781
SWIDTH 0 0
DWIDTH 0 0
BBX 3 6 -8 15
BITMAP
74
74
74
74
74
74
ENDCHAR
STARTCHAR uni030E
ENCODING 782
SWIDTH 0 0
DWIDTH 0 0
BBX 7 6 -10 15
BITMAP
7474
7474
7474
7474
7474
7474
ENDCHAR
STARTCHAR uni030F
ENCODING 783
SWIDTH 0 0
DWIDTH 0 0
BBX 8 4 -12 15
BITMAP
BCF8
3D7C
0E1E
0347
ENDCHAR
STARTCHAR uni0310
ENCODING 784
SWIDTH 0 0
DWIDTH 0 0
BBX 9 6 -11 15
BITMAP
02E000
03F000
62E180
740740
2FFE00
0BF800
ENDCHAR
STARTCHAR uni0311
ENCODING 785
SWIDTH 0 0
DWIDTH 0 0
BBX 9 5 -11 15
BITMAP
06A400
1FFD00
391B00
700340
500180
ENDCHAR
STARTCHAR uni0312
ENCODING 786
SWIDTH 0 0
DWIDTH 0 0
BBX 5 6 -9 15
BITMAP
0A00
2800
7000
7E00
7F40
2E00
ENDCHAR
STARTCHAR uni0313
ENCODING 787
SWIDTH 0 0
DWIDTH 0 0
BBX 4 6 -8 15
BITMAP
B8
FD
BD
0D
28
A0
ENDCHAR
STARTCHAR uni0314
ENCODING 788
SWIDTH 0 0
DWIDTH 0 0
BBX 5 6 -9 15
BITMAP
2E00
7F40
7F00
7400
2800
0A00
ENDCHAR
STARTCHAR uni0315
ENCODING 789
SWIDTH 0 0
DWIDTH 0 0
BBX 3 6 -7 14
BITMAP
B8
B8
B4
B0
A0
80
ENDCHAR
STARTCHAR uni0316
ENCODING 790
SWIDTH 0 0
DWIDTH 0 0
BBX 5 5 -10 -6
BITMAP
6800
3E00
1F00
0740
01C0
ENDCHAR
STARTCHAR uni0317
ENCODING 791
SWIDTH 0 0
DWIDTH 0 0
BBX 5 5 -8 -6
BITMAP
0640
0F80
2E00
3800
7000
ENDCHAR
STARTCHAR uni0318
ENCODING 792
SWIDTH 0 0
DWIDTH 0 0
BBX 5 6 -9 -7
BITMAP
0280
0280
0280
7F80
0280
0280
ENDCHAR
STARTCHAR uni0319
ENCODING 793
SWIDTH 0 0
DWIDTH 0 0
BBX 5 6 -9 -7
BITMAP
6000
6000
6000
7F80
6000
6000
ENDCHAR
STARTCHAR uni031A
ENCODING 794
SWIDTH 0 0
DWIDTH 0 0
BBX 7 5 -10 15
BITMAP
7FF8
0038
0038
0038
0038
ENDCHAR
STARTCHAR uni031B
ENCODING 795
SWIDTH 0 0
DWIDTH 0 0
BBX 5 5 -5 13
BITMAP
0640
0B80
0380
0340
FE00
ENDCHAR
STARTCHAR uni031C
ENCODING 796
SWIDTH 0 0
DWIDTH 0 0
BBX 4 6 -9 -7
BITMAP
1B
74
A0
A0
74
1F
ENDCHAR
STARTCHAR uni031D
ENCODING 797
SWIDTH 0 0
DWIDTH 0 0
BBX 7 5 -10 -6
BITMAP
0100
0300
0300
0300
7FF4
ENDCHAR
STARTCHAR uni031E
ENCODING 798
SWIDTH 0 0
DWIDTH 0 0
BBX 7 4 -10 -6
BITMAP
7FF4
0340
0300
0300
ENDCHAR
STARTCHAR uni031F
ENCODING 799
SWIDTH 0 0
DWIDTH 0 0
BBX 7 6 -10 -7
BITMAP
0300
0300
0300
7FF4
0340
0300
ENDCHAR
STARTCHAR uni0320
ENCODING 800
SWIDTH 0 0
DWIDTH 0 0
BBX 7 1 -10 -5
BITMAP
7FF4
ENDCHAR
STARTCHAR uni0321
ENCODING 801
SWIDTH 0 0
DWIDTH 0 0
BBX 8 9 -12 -8
BITMAP
001A
002E
002E
002E
102D
F42C
FD78
7FE0
0500
ENDCHAR
STARTCHAR uni0322
ENCODING 802
SWIDTH 0 0
DWIDTH 0 0
BBX 8 9 -7 -8
BITMAP
6800
B800
B800
7800
7800
3C1F
1D3F
07FD
0010
ENDCHAR
STARTCHAR uni0323
ENCODING 803
SWIDTH 0 0
DWIDTH 0 0
BBX 3 3 -8 -5
BITMAP
B8
FC
B8
ENDCHAR
STARTCHAR uni0324
ENCODING 804
SWIDTH 0 0
DWIDTH 0 0
BBX 9 3 -11 -5
BITMAP
B80780
FC0FC0
B80780
ENDCHAR
STARTCHAR uni0325
ENCODING 805
SWIDTH 0 0
DWIDTH 0 0
BBX 7 6 -10 -7
BITMAP
0B90
39B0
7034
7034
3470
1FD0
ENDCHAR
STARTCHAR uni0326
ENCODING 806
SWIDTH 0 0
DWIDTH 0 0
BBX 4 6 -8 -8
BITMAP
B8
FD
BD
0D
2C
A0
ENDCHAR
STARTCHAR uni0327
ENCODING 807
SWIDTH 0 0
DWIDTH 0 0
BBX 6 7 -9 -6
BITMAP
0400
1800
1400
2F80
01D0
41D0
7F40
ENDCHAR
STARTCHAR uni0328
ENCODING 808
SWIDTH 0 0
DWIDTH 0 0
BBX 7 7 -10 -7
BITMAP
0740
0D00
3800
7800
3D58
2FE0
0500
ENDCHAR
STARTCHAR uni0329
ENCODING 809
SWIDTH 0 0
DWIDTH 0 0
BBX 3 5 -8 -7
BITMAP
74
74
74
74
74
ENDCHAR
STARTCHAR uni032A
ENCODING 810
SWIDTH 0 0
DWIDTH 0 0
BBX 7 4 -10 -6
BITMAP
FFFC
D01C
D00C
8008
ENDCHAR
STARTCHAR uni032B
ENCODING 811
SWIDTH 0 0
DWIDTH 0 0
BBX 9 4 -11 -5
BITMAP
404040
90C1C0
A1D180
3FBF40
ENDCHAR
STARTCHAR uni032C
ENCODING 812
SWIDTH 0 0
DWIDTH 0 0
BBX 8 5 -10 -6
BITMAP
4005
A028
38B4
1FD0
0B80
ENDCHAR
STARTCHAR uni032D
ENCODING 813
SWIDTH 0 0
DWIDTH 0 0
BBX 8 5 -10 -6
BITMAP
0640
0FD0
2DE0
7438
D00D
ENDCHAR
STARTCHAR uni032E
ENCODING 814
SWIDTH 0 0
DWIDTH 0 0
BBX 9 5 -11 -6
BITMAP
500040
600240
740740
2FFE00
0BF800
ENDCHAR
STARTCHAR uni032F
ENCODING 815
SWIDTH 0 0
DWIDTH 0 0
BBX 9 5 -11 -6
BITMAP
06A400
2FFE00
740740
600240
500040
ENDCHAR
STARTCHAR uni0330
ENCODING 816
SWIDTH 0 0
DWIDTH 0 0
BBX 9 3 -11 -4
BITMAP
2F4080
BFE640
81BE00
ENDCHAR
STARTCHAR uni0331
ENCODING 817
SWIDTH 0 0
DWIDTH 0 0
BBX 9 1 -11 -4
BITMAP
7FFF80
ENDCHAR
STARTCHAR uni0332
ENCODING 818
SWIDTH 0 0
DWIDTH 0 0
BBX 15 1 -14 -4
BITMAP
BFFFFFF8
ENDCHAR
STARTCHAR uni0333
ENCODING 819
SWIDTH 0 0
DWIDTH 0 0
BBX 15 4 -14 -7
BITMAP
BFFFFFF8
00000000
00000000
BFFFFFF8
ENDCHAR
STARTCHAR uni0334
ENCODING 820
SWIDTH 0 0
DWIDTH 0 0
BBX 9 3 -11 6
BITMAP
2F4080
BFE580
C1BE00
ENDCHAR
STARTCHAR uni0335
ENCODING 821
SWIDTH 0 0
DWIDTH 0 0
BBX 9 1 -11 7
BITMAP
BFFFC0
ENDCHAR
STARTCHAR uni0336
ENCODING 822
SWIDTH 0 0
DWIDTH 0 0
BBX 15 1 -14 7
BITMAP
BFFFFFF8
ENDCHAR
STARTCHAR uni0337
ENCODING 823
SWIDTH 0 0
DWIDTH 0 0
BBX 7 7 -10 7
BITMAP
0004
002C
00A0
0780
2D00
E000
4000
ENDCHAR
STARTCHAR uni0338
ENCODING 824
SWIDTH 0 0
DWIDTH 0 0
BBX 12 24 -12 -5
BITMAP
00000D
00001C
000038
000074
0000A0
0001D0
0002C0
000340
000700
000E00
001D00
002800
007400
00B000
00E000
01C000
038000
074000
0A0000
0D0000
2C0000
380000
700000
E00000
ENDCHAR
STARTCHAR uni0339
ENCODING 825
SWIDTH 0 0
DWIDTH 0 0
BBX 4 6 -8 -7
BITMAP
E4
1D
0A
0A
1D
F8
ENDCHAR
STARTCHAR uni033A
ENCODING 826
SWIDTH 0 0
DWIDTH 0 0
BBX 7 4 -10 -5
BITMAP
4004
D00C
D00C
FFFC
ENDCHAR
STARTCHAR uni033B
ENCODING 827
SWIDTH 0 0
DWIDTH 0 0
BBX 5 5 -9 -7
BITMAP
FFC0
D1C0
D0C0
D0C0
FFC0
ENDCHAR
STARTCHAR uni033C
ENCODING 828
SWIDTH 0 0
DWIDTH 0 0
BBX 9 3 -11 -5
BITMAP
7E2F40
56E540
00C000
ENDCHAR
STARTCHAR uni033D
ENCODING 829
SWIDTH 0 0
DWIDTH 0 0
BBX 5 6 -9 15
BITMAP
4040
E1C0
3B40
2E00
7780
9080
ENDCHAR
STARTCHAR uni033E
ENCODING 830
SWIDTH 0 0
DWIDTH 0 0
BBX 3 10 -8 14
BITMAP
08
74
A0
B0
B4
3C
2C
2C
74
80
ENDCHAR
STARTCHAR uni033F
ENCODING 831
SWIDTH 0 0
DWIDTH 0 0
BBX 11 4 -12 15
BITMAP
FFFFFC
000000
000000
FFFFFC
ENDCHAR
STARTCHAR uni0346
ENCODING 838
SWIDTH 0 0
DWIDTH 0 0
BBX 9 4 -11 15
BITMAP
7FFF80
B40380
B00380
600240
ENDCHAR
STARTCHAR uni0347
ENCODING 839
SWIDTH 0 0
DWIDTH 0 0
BBX 9 4 -11 -6
BITMAP
FFFFC0
000000
000000
FFFFC0
ENDCHAR
STARTCHAR uni034C
ENCODING 844
SWIDTH 0 0
DWIDTH 0 0
BBX 9 7 -11 16
BITMAP
1A4080
7FE180
91BE00
000000
1F4080
7FE580
90BE00
ENDCHAR
STARTCHAR uni034D
ENCODING 845
SWIDTH 0 0
DWIDTH 0 0
BBX 13 6 -13 -8
BITMAP
09001800
28000A00
FFFFFFC0
79000B40
09001800
01001000
ENDCHAR
STARTCHAR uni0359
ENCODING 857
SWIDTH 0 0
DWIDTH 0 0
BBX 9 9 -11 -11
BITMAP
01D000
75D740
7DDF40
06E400
06E400
7DCF40
74C740
01D000
01D000
ENDCHAR
STARTCHAR uni035C
ENCODING 860
SWIDTH 0 0
DWIDTH 0 0
BBX 20 5 -10 -7
BITMAP
5000000005
600000000D
3E400001BC
0BFFFFFFE0
006FFFF900
ENDCHAR
STARTCHAR uni0360
ENCODING 864
SWIDTH 0 0
DWIDTH 0 0
BBX 14 3 -7 16
BITMAP
1BE40010
A56E4060
8001BF80
ENDCHAR
STARTCHAR uni0361
ENCODING 865
SWIDTH 0 0
DWIDTH 0 0
BBX 14 5 -7 15
BITMAP
01AAA400
1FFFFF40
790006D0
A00000A0
40000010
ENDCHAR
STARTCHAR uni0362
ENCODING 866
SWIDTH 0 0
DWIDTH 0 0
BBX 22 5 -11 -7
BITMAP
000000000900
000000000340
7FFFFFFFFFE0
000000000380
000000000600
ENDCHAR
STARTCHAR uni037E
ENCODING 894
SWIDTH 261 0
DWIDTH 7 0
BBX 4 18 2 -4
BITMAP
78
FD
78
00
00
00
00
00
00
00
00
79
FE
BF
0A
0D
28
90
ENDCHAR
STARTCHAR tonos
ENCODING 900
SWIDTH 165 0
DWIDTH 5 0
BBX 3 5 1 15
BITMAP
F8
F4
F0
E0
C0
ENDCHAR
STARTCHAR dieresistonos
ENCODING 901
SWIDTH 426 0
DWIDTH 12 0
BBX 10 5 1 15
BITMAP
00F800
50F450
F8F2F0
B4D2E0
01C000
ENDCHAR
STARTCHAR Alphatonos
ENCODING 902
SWIDTH 718 0
DWIDTH 20 0
BBX 20 19 0 0
BITMAP
1F40380000
1F007C0000
1E00BE0000
2C00FF0000
2802DF4000
00038FC000
00074BD000
000A07E000
001D03F000
002C02F800
003800FC00
007400BD00
00FFFFFF00
01E0007F40
02C0002F80
0780000FD0
0B40000BE0
2F40001BF8
FFF000BFFF
ENDCHAR
STARTCHAR anoteleia
ENCODING 903
SWIDTH 261 0
DWIDTH 7 0
BBX 4 3 2 11
BITMAP
78
FD
78
ENDCHAR
STARTCHAR Epsilontonos
ENCODING 904
SWIDTH 745 0
DWIDTH 21 0
BBX 21 19 -1 0
BITMAP
3E2FFFFFFF00
3D01F9556F00
3800F8000700
7400F8000340
7000F8000000
0000F8003000
0000F8003000
0000F8007000
0000F801B000
0000FFFFF000
0000F801B000
0000F8003000
0000F8000000
0000F8000080
0000F80001C0
0000F8000280
0000F8000780
0001F9556F40
002FFFFFFF40
ENDCHAR
STARTCHAR Etatonos
ENCODING 905
SWIDTH 896 0
DWIDTH 25 0
BBX 25 19 -1 0
BITMAP
3E2FFFD03FFFC0
3D06FD0006FD00
3800F80001F400
7400F80001F400
7000F80001F400
0000F80001F400
0000F80001F400
0000F80001F400
0000F80001F400
0000FFFFFFF400
0000F80001F400
0000F80001F400
0000F80001F400
0000F80001F400
0000F80001F400
0000F80001F400
0000F80001F400
0002FD0006FD00
002FFFD03FFFC0
ENDCHAR
STARTCHAR Iotatonos
ENCODING 906
SWIDTH 478 0
DWIDTH 13 0
BBX 14 19 -1 0
BITMAP
3E2FFFD0
3D06FD00
3800F800
7400F800
7000F800
0000F800
0000F800
0000F800
0000F800
0000F800
0000F800
0000F800
0000F800
0000F800
0000F800
0000F800
0000F800
0006FD00
002FFFD0
ENDCHAR
STARTCHAR Omicrontonos
ENCODING 908
SWIDTH 806 0
DWIDTH 23 0
BBX 22 19 -1 0
BITMAP
3E001BFE8000
3D00B946F400
3807E0007E00
740F80001F40
702F40000BC0
003E000007E0
007E000003F0
00BD000003F0
00BD000003F0
00BD000002F0
00BD000002F0
00BD000003F0
007E000003E0
003F000007D0
002F40000BC0
000F80000F40
0007E0003E00
0000B945F400
00001BFE4000
ENDCHAR
STARTCHAR Upsilontonos
ENCODING 910
SWIDTH 787 0
DWIDTH 22 0
BBX 24 19 -1 0
BITMAP
BC7FFF403FFD
B81BF80007E4
B402F8000740
A000FD000A00
D0007E001C00
00002F403800
00000FC0B000
000007E0D000
000002F68000
000001FF4000
000000BE0000
0000007D0000
0000007D0000
0000007D0000
0000007D0000
0000007D0000
0000007D0000
000001BF4000
00000FFFF400
ENDCHAR
STARTCHAR Omegatonos
ENCODING 911
SWIDTH 830 0
DWIDTH 23 0
BBX 23 19 -1 0
BITMAP
3E001AFE9000
3D00B901F800
3807E0002F00
740F80000F80
702F40000BD0
003F000007E0
007E000003F0
007E000003F0
007E000003F0
007F000003F0
003F000007E0
002F40000BD0
001F80000FC0
000BC0001F40
0082E0003D0C
00C0B400B418
00E56D02E578
00BFFE03FFF8
00BFFE03FFF4
ENDCHAR
STARTCHAR iotadieresistonos
ENCODING 912
SWIDTH 259 0
DWIDTH 7 0
BBX 11 21 -2 0
BITMAP
007D00
007C00
7C78F4
7DB1F4
14A050
000000
000000
00F400
00F400
00F400
00F000
00F000
00F000
01E000
01E000
01E000
01E000
00E000
00F450
00BF80
007E00
ENDCHAR
STARTCHAR Alpha
ENCODING 913
SWIDTH 718 0
DWIDTH 20 0
BBX 20 19 0 0
BITMAP
0000380000
00007C0000
0000BE0000
0000FF0000
0002DF4000
00038FC000
00074BD000
000A07E000
001D03F000
002C02F800
003800FC00
007400BD00
00FFFFFF00
01E0007F40
02C0002F80
0780000FD0
0B40000BE0
2F40001BF8
FFF000BFFF
ENDCHAR
STARTCHAR Beta
ENCODING 914
SWIDTH 618 0
DWIDTH 17 0
BBX 16 19 1 0
BITMAP
FFFFF900
0BD46FD0
07D007F0
07D002F4
07D001F4
07D001F4
07D002F0
07D003D0
07D01900
07FFFE40
07D05BE0
07D002F8
07D000FC
07D000BD
07D000BD
07D000BC
07D001F8
0BD01BE0
FFFFFE40
ENDCHAR
STARTCHAR Gamma
ENCODING 915
SWIDTH 569 0
DWIDTH 16 0
BBX 15 19 1 0
BITMAP
BFFFFFF4
0BD556F4
07D00074
07D00034
07D00024
07D00010
07D00000
07D00000
07D00000
07D00000
07D00000
07D00000
07D00000
07D00000
07D00000
07D00000
07D00000
0BE00000
BFFF4000
ENDCHAR
STARTCHAR Delta
ENCODING 916
SWIDTH 667 0
DWIDTH 19 0
BBX 18 19 0 0
BITMAP
0000700000
0000B80000
0001FC0000
0002FD0000
00036E0000
000A1F4000
000D0F8000
001C0BC000
003807E000
007003F000
00A002F400
01D000F800
028000BD00
0340007E00
0B00003F00
0E00002F40
1D55556FC0
3FFFFFFFD0
7FFFFFFFE0
ENDCHAR
STARTCHAR Epsilon
ENCODING 917
SWIDTH 626 0
DWIDTH 18 0
BBX 16 19 1 0
BITMAP
FFFFFFF8
0BD555B8
07D00028
07D0001C
07D00000
07D00180
07D00180
07D00280
07D00780
07FFFF80
07D01680
07D00180
07D00000
07D00006
07D0000A
07D0000D
07D0002D
0BD555BC
FFFFFFFC
ENDCHAR
STARTCHAR Zeta
ENCODING 918
SWIDTH 594 0
DWIDTH 17 0
BBX 16 19 0 0
BITMAP
0FFFFFFE
0F9001FC
1D0002F4
1C0007E0
18000FC0
00002F40
00007E00
0000FD00
0002F800
0007E000
000FD000
002F8000
007F0000
00FD0001
02F80006
07F0000A
0FD0001D
2F80017D
7FFFFFFC
ENDCHAR
STARTCHAR Eta
ENCODING 919
SWIDTH 777 0
DWIDTH 22 0
BBX 20 19 1 0
BITMAP
FFFF01FFFE
1BF4001FE4
07D0000BC0
07D0000BC0
07D0000BC0
07D0000BC0
07D0000BC0
07D0000BC0
07D0000BC0
07FFFFFFC0
07D0000BC0
07D0000BC0
07D0000BC0
07D0000BC0
07D0000BC0
07D0000BC0
07D0000BC0
1BE4001FE4
FFFF01FFFE
ENDCHAR
STARTCHAR Theta
ENCODING 920
SWIDTH 738 0
DWIDTH 21 0
BBX 19 19 1 0
BITMAP
001BFE4000
00B901F400
03E0003E00
0BC0001F40
1F40000BC0
3F000007E0
7E000003F0
7E080083F0
BD0FFF82F4
BD0FFF82F4
BE0E5683F4
7E080083F0
7E000003F0
3F000007E0
2F40000BD0
0B80000F80
07E0002E00
00B901F800
001BFE8000
ENDCHAR
STARTCHAR Iota
ENCODING 921
SWIDTH 357 0
DWIDTH 10 0
BBX 8 19 1 0
BITMAP
FFFF
1FE4
07D0
07D0
07D0
07D0
07D0
07D0
07D0
07D0
07D0
07D0
07D0
07D0
07D0
07D0
07D0
1BE4
FFFF
ENDCHAR
STARTCHAR Kappa
ENCODING 922
SWIDTH 702 0
DWIDTH 20 0
BBX 19 19 1 0
BITMAP
FFFF0BFFD0
1FE401FE40
07D001F400
07D002D000
07D00B0000
07D02C0000
07D0B00000
07D2800000
07DA000000
07FF400000
07DFD00000
07D3F40000
07D0FD0000
07D03F4000
07D00FD000
07D003F400
07D001FD00
1BE401FF90
FFFF0BFFF4
ENDCHAR
STARTCHAR Lambda
ENCODING 923
SWIDTH 710 0
DWIDTH 20 0
BBX 20 19 0 0
BITMAP
0000340000
00007C0000
0000FD0000
0001FE0000
0002AF4000
00034F8000
00070BC000
000E07D000
001C03F000
002802F400
003401F800
007000BC00
00A0007E00
01D0003F00
02C0002F40
0380001F80
0B40000FD0
1F40000FF4
BFF000BFFE
ENDCHAR
STARTCHAR Mu
ENCODING 924
SWIDTH 895 0
DWIDTH 25 0
BBX 24 19 0 0
BITMAP
3FF800000BFE
07FC00000FF4
02FE00002FD0
02FF00003FD0
02AF400077D0
029F8000B3D0
028BD001D3D0
0287E002C3D0
0283F00383D0
0281F40743D0
0280FC0A03D0
0280BD1D03D0
02807E2C03D0
02802F3403D0
02801FF003D0
02C00FE003D0
02C00BD007D0
07E003801BF4
7FFD0240BFFE
ENDCHAR
STARTCHAR Nu
ENCODING 925
SWIDTH 742 0
DWIDTH 21 0
BBX 20 19 0 0
BITMAP
7FF0002FFF
1BF80006F4
02FD0000E0
02FF4000E0
02AFC000D0
028FE000D0
0287F400D0
0281FD00D0
0280BF00D0
02802F80D0
02800FD0D0
028007F4D0
028001FCD0
028000BED0
0280003FD0
02C0001FD0
02C00007D0
07E40002D0
7FFD000090
ENDCHAR
STARTCHAR Xi
ENCODING 926
SWIDTH 648 0
DWIDTH 18 0
BBX 16 19 1 0
BITMAP
3FFFFFFD
3FFFFFFD
3E55556D
3000000D
60000009
00000000
02400180
02800280
02FFFF80
02FFFF80
02E55B80
02800180
02400180
00000000
90000002
A0000006
BAAAAAAE
7FFFFFFE
7FFFFFFE
ENDCHAR
STARTCHAR Omicron
ENCODING 927
SWIDTH 738 0
DWIDTH 21 0
BBX 19 19 1 0
BITMAP
001AFE8000
00BD46F800
03E0007E00
0B80001F80
1F40000BD0
3F000007E0
7E000003F0
7D000002F0
BD000002F4
BD000002F4
BD000002F4
7E000002F0
7E000003F0
3F000007E0
2F40000BC0
0F80000F40
07E0002E00
00B945F400
001BFE8000
ENDCHAR
STARTCHAR Pi
ENCODING 928
SWIDTH 759 0
DWIDTH 21 0
BBX 20 19 1 0
BITMAP
FFFFFFFFFD
0BD5555FC0
07D0000F80
07D0000F80
07D0000F80
07D0000F80
07D0000F80
07D0000F80
07D0000F80
07D0000F80
07D0000F80
07D0000F80
07D0000F80
07D0000F80
07D0000F80
07D0000F80
07D0000F80
0BE0001FC0
FFFE02FFFD
ENDCHAR
STARTCHAR Rho
ENCODING 929
SWIDTH 569 0
DWIDTH 16 0
BBX 15 19 1 0
BITMAP
BFFFE900
0BD16F80
07D007E0
07D003F0
07D002F4
07D002F4
07D002F0
07D002E0
07D007D0
07D02F40
07FFF800
07D00000
07D00000
07D00000
07D00000
07D00000
07D00000
1BF40000
BFFF0000
ENDCHAR
STARTCHAR Sigma
ENCODING 931
SWIDTH 604 0
DWIDTH 17 0
BBX 15 19 1 0
BITMAP
FFFFFFF0
7F4015F0
2F800070
0BE00034
03F40020
01FC0000
007E0000
002F8000
000BC000
00074000
000E0000
00280000
00B00000
01D0000C
0740001C
0E000028
3D5556F8
BFFFFFF4
FFFFFFF4
ENDCHAR
STARTCHAR Tau
ENCODING 932
SWIDTH 603 0
DWIDTH 17 0
BBX 17 19 0 0
BITMAP
7FFFFFFF40
7903E01F40
7003E00340
6003E00240
9003E00240
0003E00000
0003E00000
0003E00000
0003E00000
0003E00000
0003E00000
0003E00000
0003E00000
0003E00000
0003E00000
0003E00000
0003F00000
000BF40000
00BFFF8000
ENDCHAR
STARTCHAR Upsilon
ENCODING 933
SWIDTH 647 0
DWIDTH 18 0
BBX 19 19 0 0
BITMAP
FFFD00FFF4
6FE0001F90
0BE0001D00
02F4002800
01FC007400
00BE00E000
003F01C000
001F834000
000BDA0000
0003FD0000
0001F80000
0000F40000
0000F40000
0000F40000
0000F40000
0001F40000
0001F80000
0006FD0000
003FFFD000
ENDCHAR
STARTCHAR Phi
ENCODING 934
SWIDTH 718 0
DWIDTH 20 0
BBX 18 19 1 0
BITMAP
003FFFC000
0002F80000
0001F40000
01ABFEA400
0BE5F9BF40
3F01F41FC0
BD01F407E0
BC01F403F0
FC01F402F0
FC01F402F0
FC01F403F0
BD01F403E0
3F01F40BC0
1FD1F46F40
01BFFFE400
0001F40000
0001F40000
0002F80000
003FFFC000
ENDCHAR
STARTCHAR Chi
ENCODING 935
SWIDTH 664 0
DWIDTH 19 0
BBX 19 19 0 0
BITMAP
BFFF41FFF4
1BF8002F40
02F8002D00
00FD007400
007E00E000
002F42C000
000FC74000
0007ED0000
0002F80000
0000FC0000
0002FE0000
00072F4000
001D0FC000
003807E000
00B002F400
01D001FC00
078000BE00
1F8000BF90
FFF407FFF4
ENDCHAR
STARTCHAR Psi
ENCODING 936
SWIDTH 720 0
DWIDTH 20 0
BBX 20 19 0 0
BITMAP
B80FFFF01F
1E00BE00B8
0F407D00F4
0F407D01F4
0F807D01F4
0F407D01F4
0F407D01F4
0F407D01F4
0F807D01F0
0BC07D02E0
03D07D07C0
00B97D1F40
001BFFE400
00007D0000
00007D0000
00007D0000
00007D0000
0000BE0000
000FFFF000
ENDCHAR
STARTCHAR Omega
ENCODING 937
SWIDTH 777 0
DWIDTH 22 0
BBX 20 19 1 0
BITMAP
0006FF9000
007E41BD00
02F4001F80
07D00007D0
0FC00003F0
1F800002F4
2F400002F4
2F400001F8
2F400001F8
2F400002F4
1F800002F4
0F800003F0
0BC00007D0
03E0000F80
91F4001E09
A07800780D
795E00F56C
7FFF41FFFC
3FFF41FFFC
ENDCHAR
STARTCHAR Iotadieresis
ENCODING 938
SWIDTH 357 0
DWIDTH 10 0
BBX 10 23 0 0
BITMAP
7C03D0
BD07E0
7C03D0
000000
3FFFC0
07F900
01F400
01F400
01F400
01F400
01F400
01F400
01F400
01F400
01F400
01F400
01F400
01F400
01F400
01F400
01F400
06F900
3FFFC0
ENDCHAR
STARTCHAR Upsilondieresis
ENCODING 939
SWIDTH 647 0
DWIDTH 18 0
BBX 19 23 0 0
BITMAP
002E01E000
003F03F000
002E01E000
0000000000
FFFD00FFF4
6FE0001F90
0BE0001D00
02F4002800
01FC007400
00BE00E000
003F01C000
001F834000
000BDA0000
0003FD0000
0001F80000
0000F40000
0000F40000
0000F40000
0000F40000
0001F40000
0001F80000
0006FD0000
003FFFD000
ENDCHAR
STARTCHAR alphatonos
ENCODING 940
SWIDTH 561 0
DWIDTH 16 0
BBX 15 20 1 0
BITMAP
000F8000
000F4000
000E0000
001D0000
001C0000
00000000
01BE03E0
0BFF87C0
2F9BCB80
7800AF00
B0007E00
D0003C00
D0003400
D0007400
D000B400
E001E800
B4076C00
7E6E2E64
2FFC1FE0
0BE00B80
ENDCHAR
STARTCHAR epsilontonos
ENCODING 941
SWIDTH 381 0
DWIDTH 11 0
BBX 9 20 1 0
BITMAP
002F00
002E00
002D00
003800
003400
000000
06FE40
2FFFC0
7E9B80
740000
700000
341000
0EF400
29A400
700000
B00000
B40140
BE6B80
3FFF80
0BF900
ENDCHAR
STARTCHAR etatonos
ENCODING 942
SWIDTH 510 0
DWIDTH 14 0
BBX 13 27 0 -7
BITMAP
0001F400
0001F000
0001E000
0002C000
00028000
00000000
2F41F800
7F87FE00
EB8FAF00
43DC0B00
02E40740
02E00340
02E00340
02D00340
03C00340
03C00340
07C00340
07C00740
0BC00740
0BC00B40
00000B40
00000B40
00000F40
00000F40
00001F00
00002F00
00001400
ENDCHAR
STARTCHAR iotatonos
ENCODING 943
SWIDTH 259 0
DWIDTH 7 0
BBX 7 20 1 0
BITMAP
0F80
0F40
0F00
0D00
1C00
0000
3D00
3D00
3D00
3C00
3C00
3C00
7800
7800
7800
7800
3800
3D14
2FE0
1F80
ENDCHAR
STARTCHAR upsilondieresistonos
ENCODING 944
SWIDTH 491 0
DWIDTH 14 0
BBX 13 21 0 0
BITMAP
002F0000
002E0000
1E2D7C00
2F2CBD00
05341400
00000000
00000000
2F40A000
BF802800
EBC00E00
47800B00
07800B40
07400740
07000740
0B000B40
0A000B40
0A000F00
0B002E00
07E6FC00
03FFF400
00BF8000
ENDCHAR
STARTCHAR alpha
ENCODING 945
SWIDTH 561 0
DWIDTH 16 0
BBX 15 14 1 0
BITMAP
01BE03E0
0BFF87C0
2F9BCB80
7800AF00
B0007E00
D0003C00
D0003400
D0007400
D000B400
E001E800
B4076C00
7E6E2E64
2FFC1FE0
0BE00B80
ENDCHAR
STARTCHAR beta
ENCODING 946
SWIDTH 530 0
DWIDTH 15 0
BBX 13 27 1 -6
BITMAP
001BF400
007FFD00
01F9BE00
03C00B00
07400700
0A000700
0D000A00
1D002800
1C15E000
2C3F8000
2C287400
3C001D00
38000B00
38000740
3C000380
3C000380
3D000780
7F000B40
7AE5BF00
78BFFD00
782FE400
7C000000
7C000000
BC000000
BC000000
BC000000
A4000000
ENDCHAR
STARTCHAR gamma
ENCODING 947
SWIDTH 466 0
DWIDTH 13 0
BBX 13 20 0 -6
BITMAP
2F401F80
7FC02F00
EBD03E00
41E07C00
00F0B800
00B0F000
0071E000
0072D000
00338000
00374000
003A0000
003D0000
00380000
00380000
00780000
00B80000
00F80000
01F40000
01F40000
00B00000
ENDCHAR
STARTCHAR delta
ENCODING 948
SWIDTH 479 0
DWIDTH 13 0
BBX 12 21 1 0
BITMAP
02BE40
0BFFF4
0A02FC
0B0074
078000
01F400
007D00
006F80
06FFE0
1FEAF4
3D00B8
74007C
A0003D
D0002D
C0002D
D0002D
E0003C
B400B8
7E5BF0
2FFFD0
06F900
ENDCHAR
STARTCHAR epsilon
ENCODING 949
SWIDTH 381 0
DWIDTH 11 0
BBX 9 14 1 0
BITMAP
06FE40
2FFFC0
7E9B80
740000
700000
341000
0EF400
29A400
700000
B00000
B40140
BE6B80
3FFF80
0BF900
ENDCHAR
STARTCHAR zeta
ENCODING 950
SWIDTH 386 0
DWIDTH 11 0
BBX 11 29 1 -8
BITMAP
005000
02C000
038074
0781F8
02EBF4
007F80
00B800
02E000
0B8000
1E0000
2C0000
740000
B00000
900000
D00000
C00000
D00000
E00000
B90000
7FF900
1FFF80
01BFE0
0005F0
000060
0000A0
0005C0
02FF40
02F800
014000
ENDCHAR
STARTCHAR eta
ENCODING 951
SWIDTH 510 0
DWIDTH 14 0
BBX 13 21 0 -7
BITMAP
2F41F800
7F87FE00
EB8FAF00
43DC0B00
02E40740
02E00340
02E00340
02D00340
03C00340
03C00340
07C00340
07C00740
0BC00740
0BC00B40
00000B40
00000B40
00000F40
00000F40
00001F00
00002F00
00001400
ENDCHAR
STARTCHAR theta
ENCODING 952
SWIDTH 514 0
DWIDTH 14 0
BBX 12 21 1 0
BITMAP
007F40
02FFE0
0BE6F4
1E007C
2C001D
38000E
74000A
70000B
600007
BFFFFF
BFFFFF
A00007
B00007
70000B
74000A
38000E
2C001D
1E0078
0FE6F4
07FFD0
00BE40
ENDCHAR
STARTCHAR iota
ENCODING 953
SWIDTH 259 0
DWIDTH 7 0
BBX 7 14 1 0
BITMAP
3D00
3D00
3D00
3C00
3C00
3C00
7800
7800
7800
7800
3800
3D14
2FE0
1F80
ENDCHAR
STARTCHAR kappa
ENCODING 954
SWIDTH 495 0
DWIDTH 14 0
BBX 15 14 -1 0
BITMAP
0BD001A0
1FF00BE0
3AF42FE0
50F47E00
00B1F400
00B3D000
00AB4000
00AE8000
00B9C000
00B4E000
00F07400
00F03E68
01F02FF4
01F00BD0
ENDCHAR
STARTCHAR lambda
ENCODING 955
SWIDTH 506 0
DWIDTH 14 0
BBX 15 21 0 0
BITMAP
00B80000
03FD0000
066E0000
040B0000
00074000
00034000
00028000
00038000
00078000
000FC000
001DC000
003CD000
0074D000
00F0E000
02E0A000
03D0B000
0BC0B400
0F807804
2F403EB4
3E002FE0
7D000B80
ENDCHAR
STARTCHAR mu
ENCODING 956
SWIDTH 552 0
DWIDTH 15 0
BBX 15 20 1 -6
BITMAP
3E002E00
3E002E00
3D002D00
3D003D00
3C003C00
3C003C00
3C003800
38007800
3800B800
3C00B800
3D02AC00
7F5B2E64
77FE1FE0
75F80B80
B4000000
B4000000
B8000000
B8000000
B8000000
A4000000
ENDCHAR
STARTCHAR nu
ENCODING 957
SWIDTH 453 0
DWIDTH 13 0
BBX 13 15 -1 -1
BITMAP
0B800E00
2FE00B80
76F007C0
40F407C0
007407C0
00740BC0
00340F80
00341F00
00342E00
00247C00
0024F400
0036D000
003B8000
003E0000
00140000
ENDCHAR
STARTCHAR xi
ENCODING 958
SWIDTH 390 0
DWIDTH 11 0
BBX 10 27 1 -6
BITMAP
060000
1D0000
2D02E0
0BAFF0
02FE40
0B9000
2D0000
3C0000
280000
1C0540
06BF80
0BBF40
340000
A00000
D00000
D00000
E00000
BE4000
7FFE00
1BFFD0
016FF0
0001B0
000030
000070
015AD0
01FF40
00E400
ENDCHAR
STARTCHAR omicron
ENCODING 959
SWIDTH 475 0
DWIDTH 13 0
BBX 12 14 1 0
BITMAP
01BE40
0BFFE0
2F96F4
780078
B0002C
E0000D
D0000D
D0000D
D0001D
E0002C
B80078
3F9BF0
1FFFD0
06FE00
ENDCHAR
STARTCHAR pi
ENCODING 960
SWIDTH 591 0
DWIDTH 17 0
BBX 16 14 0 0
BITMAP
02FFFFFF
1FFFFFFE
3A6D5795
50180300
00180700
00280B00
00340A00
00740E00
00B00E00
00E00E00
02E00F00
03D00F99
0BC00BFC
0F8006E0
ENDCHAR
STARTCHAR rho
ENCODING 961
SWIDTH 515 0
DWIDTH 14 0
BBX 13 20 1 -6
BITMAP
006FD000
02FFF800
07E9BD00
0F400F00
1D000740
2C000340
38000340
38000340
38000740
3D000B00
7F002E00
7AE6FC00
79FFF400
786F8000
78000000
7C000000
7C000000
7C000000
7D000000
78000000
ENDCHAR
STARTCHAR uni03C2
ENCODING 962
SWIDTH 377 0
DWIDTH 11 0
BBX 10 20 1 -6
BITMAP
01BF80
0FFFC0
2E9680
740000
A00000
D00000
C00000
D00000
A00000
B90000
3F9000
1FFD00
06FF80
002FD0
0001E0
0000A0
000090
016B80
02FE00
01E400
ENDCHAR
STARTCHAR sigma
ENCODING 963
SWIDTH 545 0
DWIDTH 15 0
BBX 15 14 1 0
BITMAP
01BFFFF4
0BFFFFF0
2FA5B550
7D003400
B0002800
A0001D00
D0000E00
D0000E00
E0001E00
B0002D00
B8007C00
7F9AF800
1FFFE000
06FE4000
ENDCHAR
STARTCHAR tau
ENCODING 964
SWIDTH 392 0
DWIDTH 11 0
BBX 11 14 0 0
BITMAP
06FFFC
3FFFFC
B97954
803400
003400
007000
007000
00B000
00B000
00F000
00F400
00BDA0
00BFC0
002E40
ENDCHAR
STARTCHAR upsilon
ENCODING 965
SWIDTH 491 0
DWIDTH 14 0
BBX 13 14 0 0
BITMAP
2F40A000
BF802800
EBC00E00
47800B00
07800B40
07400740
07000740
0B000B40
0A000B40
0A000F00
0B002E00
07E6FC00
03FFF400
00BF8000
ENDCHAR
STARTCHAR phi
ENCODING 966
SWIDTH 603 0
DWIDTH 17 0
BBX 15 21 1 -6
BITMAP
00100000
02F42F80
0FF0FFE0
2F42FAF4
7803C078
A0074028
D007001C
D00B001C
D00B0028
D00A0038
B00A00B4
7D0A02E0
2FEFAFC0
0BFFFE00
00AF9000
000F0000
000F0000
001F0000
001F0000
001F4000
001E0000
ENDCHAR
STARTCHAR chi
ENCODING 967
SWIDTH 462 0
DWIDTH 13 0
BBX 16 20 -2 -6
BITMAP
02E0007E
0BF800FC
1EBD01F4
101E03E0
000B0BC0
00070F40
00036E00
0002B800
0001F400
0002D000
0007D000
000FA000
002E7000
007C7000
00F43400
02F02C00
07D01D00
0FC01F58
2F400BF8
7E0002E0
ENDCHAR
STARTCHAR psi
ENCODING 968
SWIDTH 620 0
DWIDTH 17 0
BBX 16 27 0 -6
BITMAP
00006400
0000F400
0000F400
0000F400
0000F000
0000B000
0000B000
2F40B0A0
7FC0F038
EBC0F01D
47C0F00E
0780E00F
0740E00B
0700E00B
0700E00F
0A00E01F
0B00E02E
0780E0BC
03FAFBF4
01FFFFD0
002FF900
0001E000
0001E000
0001E000
0002F000
0002F000
00029000
ENDCHAR
STARTCHAR omega
ENCODING 969
SWIDTH 660 0
DWIDTH 18 0
BBX 17 14 1 0
BITMAP
01A0018000
0BD0007400
2FD0002C00
7D01401E00
B403E00F00
E003E00B40
D003D00740
D003D00740
D003C00B40
A002800B40
7403C01F00
3E6EA9BE00
1FFC7FFC00
07E01BE000
ENDCHAR
STARTCHAR iotadieresis
ENCODING 970
SWIDTH 259 0
DWIDTH 7 0
BBX 9 19 -1 0
BITMAP
B80B80
FC0FC0
B80B80
000000
000000
03D000
03D000
03D000
03C000
03C000
03C000
078000
078000
078000
078000
038000
03D140
02FE00
01F800
ENDCHAR
STARTCHAR upsilondieresis
ENCODING 971
SWIDTH 491 0
DWIDTH 14 0
BBX 13 19 0 0
BITMAP
0B40B400
1F80FC00
0B40B400
00000000
00000000
2F40A000
BF802800
EBC00E00
47800B00
07800B40
07400740
07000740
0B000B40
0A000B40
0A000F00
0B002E00
07E6FC00
03FFF400
00BF8000
ENDCHAR
STARTCHAR omicrontonos
ENCODING 972
SWIDTH 475 0
DWIDTH 13 0
BBX 12 20 1 0
BITMAP
000F80
000F40
000F00
000D00
001C00
000000
01BE40
0BFFE0
2F96F4
780078
B0002C
E0000D
D0000D
D0000D
D0001D
E0002C
B80078
3F9BF0
1FFFD0
06FE00
ENDCHAR
STARTCHAR upsilontonos
ENCODING 973
SWIDTH 491 0
DWIDTH 14 0
BBX 13 20 0 0
BITMAP
000BC000
000B8000
000B4000
000A0000
000D0000
00000000
2F40A000
BF802800
EBC00E00
47800B00
07800B40
07400740
07000740
0B000B40
0A000B40
0A000F00
0B002E00
07E6FC00
03FFF400
00BF8000
ENDCHAR
STARTCHAR omegatonos
ENCODING 974
SWIDTH 660 0
DWIDTH 18 0
BBX 17 20 1 0
BITMAP
0000F40000
0001F00000
0001E00000
0001D00000
0001800000
0000000000
01A0018000
0BD0007400
2FD0002C00
7D01401E00
B403E00F00
E003E00B40
D003D00740
D003D00740
D003C00B40
A002800B40
7403C01F00
3E6EA9BE00
1FFC7FFC00
07E01BE000
ENDCHAR
STARTCHAR uni03D0
ENCODING 976
SWIDTH 438 0
DWIDTH 12 0
BBX 11 21 1 0
BITMAP
001F90
00BFF0
01F9B4
078028
0B0018
0E0018
2E9074
39FFF0
387FD0
740500
741500
76FF80
BFFFE0
7E40B0
780034
7C0024
3D0024
2F0074
0FE6F0
07FFD0
01BE40
ENDCHAR
STARTCHAR uni03D1
ENCODING 977
SWIDTH 541 0
DWIDTH 15 0
BBX 15 21 0 0
BITMAP
001FD000
00BFF800
01F9BD00
02C01E00
02800B00
02400740
02400340
01800280
00D00280
007901F4
001FFFF4
0546FFE0
1FD016C0
3FE001C0
62E001C0
01E00280
00E00380
00E00B40
00B9BF00
007FFD00
001BE400
ENDCHAR
STARTCHAR uni03D2
ENCODING 978
SWIDTH 616 0
DWIDTH 17 0
BBX 18 19 0 0
BITMAP
1BE4006F40
7FFD01DBC0
00BF0707D0
001F4A07C0
000F4C0140
00079C0000
0007A80000
0003F40000
0003F40000
0002F00000
0002F00000
0002F00000
0002E00000
0002E00000
0002E00000
0002F00000
0002F00000
0007F40000
00BFFF8000
ENDCHAR
STARTCHAR uni03D5
ENCODING 981
SWIDTH 575 0
DWIDTH 16 0
BBX 14 27 1 -6
BITMAP
00064000
0007C000
0007C000
0007C000
00078000
000B8000
000B8000
01BFF900
0BFFFF40
2F9BAFC0
7D0B42E0
B00B00B0
E00B0070
D00B0070
D00B0070
D00F0070
B00E00E0
790E07D0
2FAFAF80
0BFFFD00
01BFA000
001E0000
001E0000
002E0000
002E0000
003E0000
003E0000
ENDCHAR
STARTCHAR uni03D6
ENCODING 982
SWIDTH 821 0
DWIDTH 23 0
BBX 23 14 0 0
BITMAP
06FFFFFFFFFC
2FFFFFFFFFF8
B97F55556D54
807800001D00
00B002900E00
00D003E00B00
00D007D00B40
00C007C00B40
00D003800B40
00E003400F00
00B007802F00
007E6DE5BD00
002FF87FF800
000BE01FD000
ENDCHAR
STARTCHAR uni03D8
ENCODING 984
SWIDTH 627 0
DWIDTH 18 0
BBX 16 19 1 0
BITMAP
006FF900
07D01B80
1F0002F0
3E0000F8
BD0000BD
FC00007D
FC00007E
FC00007E
FC00007D
BD0000BC
7E0000F8
1F4002F0
07E55B80
006FE900
000BC000
000BC000
000BC000
000FD000
01FFFE00
ENDCHAR
STARTCHAR uni03D9
ENCODING 985
SWIDTH 475 0
DWIDTH 13 0
BBX 12 20 1 -6
BITMAP
01BE40
0BFFE0
2F96F4
780078
B0002C
E0000D
D0000D
D0000D
D0000D
E0002C
B80078
3FABF0
1FFFD0
02F900
007400
00B400
00B400
00F400
00F800
00E400
ENDCHAR
STARTCHAR uni03DA
ENCODING 986
SWIDTH 578 0
DWIDTH 16 0
BBX 14 19 1 0
BITMAP
006FE460
07E55FE0
1F4002E0
3E0001E0
7C0000A0
BC000060
FC000060
FC000000
FC000000
BD000000
7E000000
2F800000
0BE40000
01BFF400
0001F400
0000F400
0001F800
0002FC00
003FFFC0
ENDCHAR
STARTCHAR uni03DB
ENCODING 987
SWIDTH 490 0
DWIDTH 14 0
BBX 13 20 1 -6
BITMAP
006FFF80
07FFFF80
1FA55640
78000000
A0000000
D0000000
C0000000
D0000000
E0000000
B9000000
3F900000
1FF90000
06FF4000
006FC000
0002C000
0000C000
0001C000
016B4000
03FD0000
02E00000
ENDCHAR
STARTCHAR uni03DC
ENCODING 988
SWIDTH 588 0
DWIDTH 16 0
BBX 15 19 1 0
BITMAP
FFFFFFFC
0BD555BC
07D0001C
07D0000C
07D00000
07D00180
07D00280
07D00280
07D00780
07FFFF80
07D01780
07D00180
07D00000
07D00000
07D00000
07D00000
07D00000
1BF40000
FFFF4000
ENDCHAR
STARTCHAR uni03DD
ENCODING 989
SWIDTH 386 0
DWIDTH 11 0
BBX 14 21 -3 -7
BITMAP
002FFFE0
002FFFD0
002D5540
002C0000
002C0000
002C0000
002C0000
002C0000
002DAE00
002FFE00
002C5500
002C0000
00280000
00280000
00340000
00340000
00700000
00E00000
E7D00000
BF800000
2E000000
ENDCHAR
STARTCHAR uni03DE
ENCODING 990
SWIDTH 525 0
DWIDTH 15 0
BBX 13 19 1 0
BITMAP
07FF8000
00B80000
00E00000
02C00000
03400000
0A000000
1C000000
34000000
BFFFFFC0
FFFFFF80
55555B00
00000D00
00002C00
00003400
0000A000
0001D000
00038000
001B8000
00BFF400
ENDCHAR
STARTCHAR uni03DF
ENCODING 991
SWIDTH 434 0
DWIDTH 12 0
BBX 13 19 -1 0
BITMAP
1F400000
3FC00000
ABD00000
41D00000
01D00000
01C00000
01800000
02801400
0246FC00
03BFF800
07FE6400
0B903000
00006000
0000A000
0000E000
0000E040
0000FAC0
0000FF40
00007D00
ENDCHAR
STARTCHAR uni03E0
ENCODING 992
SWIDTH 697 0
DWIDTH 20 0
BBX 20 19 0 0
BITMAP
000BD00000
0003F00000
0002F40000
0000FC0000
0000BD0000
0000FF0000
0002EF4000
00035F8000
000B0BD000
001D07E000
002C0BF400
00741EF800
00E038BD00
01D0747E00
0380E03F40
0B42C01F80
0E07800FD0
2D0B001FE0
781D00FFFE
ENDCHAR
STARTCHAR uni03E1
ENCODING 993
SWIDTH 458 0
DWIDTH 13 0
BBX 13 27 -1 -7
BITMAP
79000000
7F800000
2FE00000
07F80000
01FE0000
002F8000
000BD000
0002E000
0001F400
001BF800
06FE3D00
0FF41E00
0B400F00
00000B00
00006F40
001BFB40
007F8380
00390380
00000380
00000380
00000380
00000340
00000340
00000700
00000600
00000900
00000400
ENDCHAR
STARTCHAR uni03F0
ENCODING 1008
SWIDTH 504 0
DWIDTH 14 0
BBX 15 14 0 0
BITMAP
1F4003F0
7F800BD0
ABC01F80
41D03E00
00D0BC00
00D1F000
00D7E000
00CFD000
00EF9000
01FD9000
02F4B000
07E07964
0FC03FF0
2F401B90
ENDCHAR
STARTCHAR uni03F1
ENCODING 1009
SWIDTH 467 0
DWIDTH 13 0
BBX 11 21 1 -7
BITMAP
00BF80
07FFE0
0FA6F4
2D0078
34002C
70001C
70001C
74002C
B80078
7F9AF4
77FFE0
75BE40
3D0000
2F4000
0FF400
02FE00
006F40
000340
055B00
07FC00
039000
ENDCHAR
STARTCHAR uni03F4
ENCODING 1012
SWIDTH 737 0
DWIDTH 21 0
BBX 19 19 1 0
BITMAP
001BFE8000
00B901F800
03D0002E00
0B80000F80
1F00000BD0
3E000003E0
7E000003F0
7D000002F0
BFFFFFFFF4
BD555556F4
BD000002F0
7E000003F0
7E000003E0
3F000007E0
2F40000BC0
0FC0001F40
07E0003E00
00B901F400
001BFE8000
ENDCHAR
STARTCHAR uni03F5
ENCODING 1013
SWIDTH 380 0
DWIDTH 11 0
BBX 9 14 1 0
BITMAP
02FE40
0FFFC0
2E9B80
740000
A00000
D00000
FFFD00
D05400
E00000
B00000
780140
3E5B80
1FFF80
06F900
ENDCHAR
STARTCHAR uni03F6
ENCODING 1014
SWIDTH 382 0
DWIDTH 11 0
BBX 10 14 0 0
BITMAP
1BE400
3FFE00
2A6B80
0001C0
0000D0
000090
0BFFE0
0150A0
0000E0
0001D0
2403C0
7E6F80
3FFF00
0BF800
ENDCHAR
STARTCHAR uni0400
ENCODING 1024
SWIDTH 626 0
DWIDTH 18 0
BBX 16 24 1 0
BITMAP
00290000
001F8000
0002D000
00007400
00000000
FFFFFFF8
0BD555B8
07D00028
07D0001C
07D00000
07D00180
07D00180
07D00280
07D00780
07FFFF80
07D01680
07D00180
07D00000
07D00006
07D0000A
07D0000D
07D0002D
0BD555BC
FFFFFFFC
ENDCHAR
STARTCHAR uni0401
ENCODING 1025
SWIDTH 626 0
DWIDTH 18 0
BBX 16 23 1 0
BITMAP
01E00F40
02F41F80
01E00F40
00000000
FFFFFFF8
0BD555B8
07D00028
07D0001C
07D00000
07D00180
07D00180
07D00280
07D00780
07FFFF80
07D01680
07D00180
07D00000
07D00006
07D0000A
07D0000D
07D0002D
0BD555BC
FFFFFFFC
ENDCHAR
STARTCHAR uni0402
ENCODING 1026
SWIDTH 731 0
DWIDTH 20 0
BBX 20 19 0 0
BITMAP
3FFFFFFF80
7D03E01B80
7003E00280
6003E00180
6003E00180
0003E00000
0003E00000
0003E00000
0003E6BE80
0003F957F4
0003E000FC
0003E0007D
0003E0003E
0003E0003E
0003E0003E
0003E0403D
0003E2E07C
001BE2F4B4
00BFE0BF80
ENDCHAR
STARTCHAR uni0403
ENCODING 1027
SWIDTH 548 0
DWIDTH 15 0
BBX 14 24 1 0
BITMAP
0000A400
0003F400
000B8000
00290000
00000000
BFFFFFE0
0BD557E0
07D000E0
07D000A0
07D00060
07D00060
07D00000
07D00000
07D00000
07D00000
07D00000
07D00000
07D00000
07D00000
07D00000
07D00000
07D00000
1BF40000
BFFF4000
ENDCHAR
STARTCHAR uni0404
ENCODING 1028
SWIDTH 668 0
DWIDTH 19 0
BBX 17 19 1 0
BITMAP
001AFE9700
01B945FF00
07D0002F00
0F80000F00
2F00000B00
3E00000700
7D00000300
7D00000000
BFFFFF4000
BD00000000
BD00000000
7D00000000
7E00000000
3F00000000
2F80000140
0FD0000700
07F8006D00
01FFFFF400
001BFE4000
ENDCHAR
STARTCHAR uni0405
ENCODING 1029
SWIDTH 504 0
DWIDTH 14 0
BBX 12 19 1 0
BITMAP
06FE5C
1F41FD
3C003D
7C001D
BC000D
BD0009
7F4000
2FE400
0BFE00
01FFD0
002FF8
0002FD
0000BF
C0002F
D0002F
E0002F
F4003E
BE41B8
A6FF90
ENDCHAR
STARTCHAR uni0406
ENCODING 1030
SWIDTH 357 0
DWIDTH 10 0
BBX 8 19 1 0
BITMAP
FFFF
1FE4
07D0
07D0
07D0
07D0
07D0
07D0
07D0
07D0
07D0
07D0
07D0
07D0
07D0
07D0
07D0
1BE4
FFFF
ENDCHAR
STARTCHAR uni0407
ENCODING 1031
SWIDTH 357 0
DWIDTH 10 0
BBX 10 23 0 0
BITMAP
7C03D0
BD07E0
7C03D0
000000
3FFFC0
07F900
01F400
01F400
01F400
01F400
01F400
01F400
01F400
01F400
01F400
01F400
01F400
01F400
01F400
01F400
01F400
06F900
3FFFC0
ENDCHAR
STARTCHAR uni0408
ENCODING 1032
SWIDTH 396 0
DWIDTH 11 0
BBX 11 19 0 0
BITMAP
07FFF8
007F90
002F00
002F00
002F00
002F00
002F00
002F00
002F00
002F00
002F00
002F00
002F00
002F00
002F00
602E00
F82E00
BD7C00
2FE400
ENDCHAR
STARTCHAR uni0409
ENCODING 1033
SWIDTH 924 0
DWIDTH 26 0
BBX 26 19 -1 0
BITMAP
003FFFFFF80000
0002D56F800000
0001C01F400000
0001C01F400000
0001C01F400000
0002801F400000
0002801F400000
0002801F400000
0003401FFFE400
0003401F45BF40
0007001F400FD0
0007001F4007E0
000A001F4003F0
000D001F4003F0
001C001F4003F0
1038001F4007E0
7EF4001F400BC0
7FE0002F417F40
2F4002FFFFE400
ENDCHAR
STARTCHAR uni040A
ENCODING 1034
SWIDTH 1013 0
DWIDTH 28 0
BBX 27 19 1 0
BITMAP
FFFF02FFFD0000
1FF4006FD00000
07D0000FC00000
07D0000F800000
07D0000F800000
07D0000F800000
07D0000F800000
07D0000F800000
07D0000F800000
07FFFFFFFFF900
07D0000F816F80
07D0000F8007F0
07D0000F8002F4
07D0000F8001F8
07D0000F8001F4
07D0000F8002F4
07D0000F8007E0
1BE4001F806F80
FFFF01FFFFE900
ENDCHAR
STARTCHAR uni040B
ENCODING 1035
SWIDTH 761 0
DWIDTH 21 0
BBX 21 19 0 0
BITMAP
3FFFFFFF8000
7D03E01B8000
7003E0028000
6003E0018000
6003E0008000
0003E0000000
0003E0000000
0003E0000000
0003E6BE8000
0003F957F000
0003E001F400
0003E000F800
0003E000F800
0003E000F800
0003E000F800
0003E000F800
0003E000FC00
001BF401FD00
00BFFF0FFFC0
ENDCHAR
STARTCHAR uni040C
ENCODING 1036
SWIDTH 658 0
DWIDTH 18 0
BBX 18 24 1 0
BITMAP
00001A0000
00007E0000
0001F40000
0003800000
0000000000
BFFF002F80
1BF400BFC0
07D001D780
07D0028000
07D0034000
07D0070000
07D00A0000
07D00D0000
07D0280000
07FFF40000
07D1BC0000
07D07E0000
07D02F4000
07D00FC000
07D007E000
07D003F000
07D001F800
1BE400BE40
BFFF007FF0
ENDCHAR
STARTCHAR uni040D
ENCODING 1037
SWIDTH 780 0
DWIDTH 22 0
BBX 20 24 1 0
BITMAP
0019000000
001F800000
0002E00000
0000740000
0000000000
FFFF01FFFE
1BF4001FE4
07D0000BD0
07D0000BC0
07D0002FC0
07D0007BC0
07D001D7C0
07D00347C0
07D00E07C0
07D02807C0
07D0B007C0
07D1C007C0
07D74007C0
07DD0007C0
07F80007C0
07E00007C0
07D0000BD0
1BE4001FE4
FFFF01FFFE
ENDCHAR
STARTCHAR uni040E
ENCODING 1038
SWIDTH 625 0
DWIDTH 18 0
BBX 18 26 0 0
BITMAP
0014014000
003E02E000
007C01F000
003D02E000
000BFF4000
0000000000
0000000000
FFFC00FFF0
2FE0002F90
0BD0001E00
03E0002C00
01F4003800
00F8007000
007D00A000
003E01C000
001F428000
000B874000
0007DA0000
0002ED0000
0001F80000
0000B40000
0000A00000
0101D00000
0BEB800000
0BFF000000
02F8000000
ENDCHAR
STARTCHAR uni040F
ENCODING 1039
SWIDTH 759 0
DWIDTH 21 0
BBX 20 25 1 -6
BITMAP
FFFE02FFFD
1FE4006FD0
07D0000F80
07D0000F80
07D0000F80
07D0000F80
07D0000F80
07D0000F80
07D0000F80
07D0000F80
07D0000F80
07D0000F80
07D0000F80
07D0000F80
07D0000F80
07D0000F80
07D0000F80
0BD0000F80
BFFFFFFFF9
0000340000
0000740000
0000780000
0000BC0000
0000BC0000
0000780000
ENDCHAR
STARTCHAR uni0410
ENCODING 1040
SWIDTH 718 0
DWIDTH 20 0
BBX 20 19 0 0
BITMAP
0000380000
00007C0000
0000BE0000
0000FF0000
0002DF4000
00038FC000
00074BD000
000A07E000
001D03F000
002C02F800
003800FC00
007400BD00
00FFFFFF00
01E0007F40
02C0002F80
0780000FD0
0B40000BE0
2F40001BF8
FFF000BFFF
ENDCHAR
STARTCHAR uni0411
ENCODING 1041
SWIDTH 617 0
DWIDTH 17 0
BBX 15 19 1 0
BITMAP
BFFFFFF0
0BD556F0
07D000B0
07D00070
07D00030
07D00000
07D00000
07D00000
07FFFA00
07D06FD0
07D002F4
07D000F8
07D000FC
07D000BC
07D000FC
07D000F8
07D002F4
0BD05BD0
BFFFF900
ENDCHAR
STARTCHAR uni0412
ENCODING 1042
SWIDTH 618 0
DWIDTH 17 0
BBX 16 19 1 0
BITMAP
FFFFF900
0BD46FD0
07D007F0
07D002F4
07D001F4
07D001F4
07D002F0
07D003D0
07D01900
07FFFE40
07D05BE0
07D002F8
07D000FC
07D000BD
07D000BD
07D000BC
07D001F8
0BD01BE0
FFFFFE40
ENDCHAR
STARTCHAR uni0413
ENCODING 1043
SWIDTH 548 0
DWIDTH 15 0
BBX 14 19 1 0
BITMAP
BFFFFFE0
0BD557E0
07D000E0
07D000A0
07D00060
07D00060
07D00000
07D00000
07D00000
07D00000
07D00000
07D00000
07D00000
07D00000
07D00000
07D00000
07D00000
1BF40000
BFFF4000
ENDCHAR
STARTCHAR uni0414
ENCODING 1044
SWIDTH 663 0
DWIDTH 19 0
BBX 18 25 0 -6
BITMAP
02FFFFFFD0
002D55FD00
001C00B800
001C00B800
001C00B800
002C00B800
002800B800
002800B800
003400B800
007400B800
007000B800
00B000B800
00E000B800
01D000B800
02C000B800
038000B800
0B0000B800
6E0000BD00
FFFFFFFFD0
F8000007D0
F0000002D0
E0000001D0
D0000000D0
C0000000D0
C000000090
ENDCHAR
STARTCHAR uni0415
ENCODING 1045
SWIDTH 626 0
DWIDTH 18 0
BBX 16 19 1 0
BITMAP
FFFFFFF8
0BD555B8
07D00028
07D0001C
07D00000
07D00180
07D00180
07D00280
07D00780
07FFFF80
07D01680
07D00180
07D00000
07D00006
07D0000A
07D0000D
07D0002D
0BD555BC
FFFFFFFC
ENDCHAR
STARTCHAR uni0416
ENCODING 1046
SWIDTH 937 0
DWIDTH 26 0
BBX 27 19 0 0
BITMAP
2F403FFFC01BD0
7FD006FD003FE0
79A001F400A6D0
003400F400D000
002400F401C000
001800F4028000
000C00F4034000
000A00F4070000
000740F41D0000
0002FFFFFC0000
0007D1F47E0000
000F80F41F4000
002F00F40BC000
007D00F407E000
00FC00F402F400
02F400F400F800
03E001F400BD00
1BD006FD003F40
FF803FFFC02FF4
ENDCHAR
STARTCHAR uni0417
ENCODING 1047
SWIDTH 545 0
DWIDTH 15 0
BBX 14 19 1 0
BITMAP
62BFA000
7F41BD00
7C003F00
74001F40
70001F40
60001F40
00003E00
0001F800
00BFD000
0005E400
00002F00
00000F80
00000BD0
00000BD0
40000BD0
A0001FC0
3D007F40
0BFFFD00
01BFA000
ENDCHAR
STARTCHAR uni0418
ENCODING 1048
SWIDTH 780 0
DWIDTH 22 0
BBX 20 19 1 0
BITMAP
FFFF01FFFE
1BF4001FE4
07D0000BD0
07D0000BC0
07D0002FC0
07D0007BC0
07D001D7C0
07D00347C0
07D00E07C0
07D02807C0
07D0B007C0
07D1C007C0
07D74007C0
07DD0007C0
07F80007C0
07E00007C0
07D0000BD0
1BE4001FE4
FFFF01FFFE
ENDCHAR
STARTCHAR uni0419
ENCODING 1049
SWIDTH 780 0
DWIDTH 22 0
BBX 20 25 1 0
BITMAP
001E00E000
002F01F400
002E00B400
001E01F000
0006FF8000
0000000000
FFFF01FFFE
1BF4001FE4
07D0000BD0
07D0000BC0
07D0002FC0
07D0007BC0
07D001D7C0
07D00347C0
07D00E07C0
07D02807C0
07D0B007C0
07D1C007C0
07D74007C0
07DD0007C0
07F80007C0
07E00007C0
07D0000BD0
1BE4001FE4
FFFF01FFFE
ENDCHAR
STARTCHAR uni041A
ENCODING 1050
SWIDTH 658 0
DWIDTH 18 0
BBX 18 19 1 0
BITMAP
BFFF002F80
1BF400BFC0
07D001D780
07D0028000
07D0034000
07D0070000
07D00A0000
07D00D0000
07D0280000
07FFF40000
07D1BC0000
07D07E0000
07D02F4000
07D00FC000
07D007E000
07D003F000
07D001F800
1BE400BE40
BFFF007FF0
ENDCHAR
STARTCHAR uni041B
ENCODING 1051
SWIDTH 684 0
DWIDTH 19 0
BBX 19 19 -1 0
BITMAP
003FFFFFFC
0002D55F80
0001C01F40
0001C01F40
0001C01F40
0002801F40
0002801F40
0002801F40
0003401F40
0003401F40
0007001F40
0007001F40
000A001F40
000D001F40
001C001F40
1038001F40
7EF4001F40
7FE0006FD0
2F4003FFFC
ENDCHAR
STARTCHAR uni041C
ENCODING 1052
SWIDTH 895 0
DWIDTH 25 0
BBX 24 19 0 0
BITMAP
3FF800000BFE
07FC00000FF4
02FE00002FD0
02FF00003FD0
02AF400077D0
029F8000B3D0
028BD001D3D0
0287E002C3D0
0283F00383D0
0281F40743D0
0280FC0A03D0
0280BD1D03D0
02807E2C03D0
02802F3403D0
02801FF003D0
02C00FE003D0
02C00BD007D0
07E003801BF4
7FFD0240BFFE
ENDCHAR
STARTCHAR uni041D
ENCODING 1053
SWIDTH 777 0
DWIDTH 22 0
BBX 20 19 1 0
BITMAP
FFFF01FFFE
1BF4001FE4
07D0000BC0
07D0000BC0
07D0000BC0
07D0000BC0
07D0000BC0
07D0000BC0
07D0000BC0
07FFFFFFC0
07D0000BC0
07D0000BC0
07D0000BC0
07D0000BC0
07D0000BC0
07D0000BC0
07D0000BC0
1BE4001FE4
FFFF01FFFE
ENDCHAR
STARTCHAR uni041E
ENCODING 1054
SWIDTH 738 0
DWIDTH 21 0
BBX 19 19 1 0
BITMAP
001AFE8000
00BD46F800
03E0007E00
0B80001F80
1F40000BD0
3F000007E0
7E000003F0
7D000002F0
BD000002F4
BD000002F4
BD000002F4
7E000002F0
7E000003F0
3F000007E0
2F40000BC0
0F80000F40
07E0002E00
00B945F400
001BFE8000
ENDCHAR
STARTCHAR uni041F
ENCODING 1055
SWIDTH 759 0
DWIDTH 21 0
BBX 20 19 1 0
BITMAP
FFFFFFFFFD
0BD5555FC0
07D0000F80
07D0000F80
07D0000F80
07D0000F80
07D0000F80
07D0000F80
07D0000F80
07D0000F80
07D0000F80
07D0000F80
07D0000F80
07D0000F80
07D0000F80
07D0000F80
07D0000F80
0BE0001FC0
FFFE02FFFD
ENDCHAR
STARTCHAR uni0420
ENCODING 1056
SWIDTH 569 0
DWIDTH 16 0
BBX 15 19 1 0
BITMAP
BFFFE900
0BD16F80
07D007E0
07D003F0
07D002F4
07D002F4
07D002F0
07D002E0
07D007D0
07D02F40
07FFF800
07D00000
07D00000
07D00000
07D00000
07D00000
07D00000
1BF40000
BFFF0000
ENDCHAR
STARTCHAR uni0421
ENCODING 1057
SWIDTH 670 0
DWIDTH 19 0
BBX 17 19 1 0
BITMAP
001AFF9700
00BD45FF00
03E0002F00
0B80000F00
1F40000B00
3F00000700
7E00000300
7D00000000
BD00000000
BD00000000
BD00000000
7E00000000
7E00000000
3F00000000
2F80000000
0FE0000740
07F9006E00
00BFFFF400
001BFE4000
ENDCHAR
STARTCHAR uni0422
ENCODING 1058
SWIDTH 603 0
DWIDTH 17 0
BBX 17 19 0 0
BITMAP
7FFFFFFF40
7903E01F40
7003E00340
6003E00240
9003E00240
0003E00000
0003E00000
0003E00000
0003E00000
0003E00000
0003E00000
0003E00000
0003E00000
0003E00000
0003E00000
0003E00000
0003F00000
000BF40000
00BFFF8000
ENDCHAR
STARTCHAR uni0423
ENCODING 1059
SWIDTH 625 0
DWIDTH 18 0
BBX 18 19 0 0
BITMAP
FFFC00FFF0
2FE0002F90
0BD0001E00
03E0002C00
01F4003800
00F8007000
007D00A000
003E01C000
001F428000
000B874000
0007DA0000
0002ED0000
0001F80000
0000B40000
0000A00000
0101D00000
0BEB800000
0BFF000000
02F8000000
ENDCHAR
STARTCHAR uni0424
ENCODING 1060
SWIDTH 725 0
DWIDTH 20 0
BBX 19 19 1 0
BITMAP
003FFFC000
0006F90000
0000F40000
01BFFFE400
0BE0F47F40
2F40F40FD0
7D00F403E0
BC00F402F0
F800F401F4
F800F401F4
F800F401F0
BC00F402F0
7E00F403D0
1F40F40B80
07E5F5BD00
006AFE9000
0000F40000
0006FD0000
003FFFC000
ENDCHAR
STARTCHAR uni0425
ENCODING 1061
SWIDTH 664 0
DWIDTH 19 0
BBX 19 19 0 0
BITMAP
BFFF41FFF4
1BF8002F40
02F8002D00
00FD007400
007E00E000
002F42C000
000FC74000
0007ED0000
0002F80000
0000FC0000
0002FE0000
00072F4000
001D0FC000
003807E000
00B002F400
01D001FC00
078000BE00
1F8000BF90
FFF407FFF4
ENDCHAR
STARTCHAR uni0426
ENCODING 1062
SWIDTH 756 0
DWIDTH 21 0
BBX 19 25 1 -6
BITMAP
FFFF02FFFC
1FE4006FD0
07D0001F40
07D0000F40
07D0000F40
07D0000F40
07D0000F40
07D0000F40
07D0000F40
07D0000F40
07D0000F40
07D0000F40
07D0000F40
07D0000F40
07D0000F40
07D0000F40
07D0000F40
0BD0001F80
BFFFFFFFFC
00000000BC
000000003C
000000002C
000000001C
000000001C
0000000008
ENDCHAR
STARTCHAR uni0427
ENCODING 1063
SWIDTH 650 0
DWIDTH 18 0
BBX 18 19 0 0
BITMAP
BFFC2FFFD0
1FE006FD00
0BC001F800
0BC000F400
0BC000F400
0BC000F400
0BC000F400
0BC000F400
07D000F400
03F406F400
00BFF9F400
000000F400
000000F400
000000F400
000000F400
000000F400
000001F800
000006FD00
00003FFFD0
ENDCHAR
STARTCHAR uni0428
ENCODING 1064
SWIDTH 1053 0
DWIDTH 29 0
BBX 28 19 1 0
BITMAP
FFFE0FFFD1FFFD
1FE401FE401FD0
07D000BC000FC0
07D000BC000B80
07D000BC000B80
07D000BC000B80
07D000BC000B80
07D000BC000B80
07D000BC000B80
07D000BC000B80
07D000BC000B80
07D000BC000B80
07D000BC000B80
07D000BC000B80
07D000BC000B80
07D000BC000B80
07D000BC000B80
0BD000BC000BC0
AFFFFFFFFFFFF9
ENDCHAR
STARTCHAR uni0429
ENCODING 1065
SWIDTH 1044 0
DWIDTH 29 0
BBX 28 25 1 -6
BITMAP
FFFE0FFFD2FFFD
1FE401FD006FD0
07D000BC001F80
07D000B8000F40
07D000B8000F40
07D000B8000F40
07D000B8000F40
07D000B8000F40
07D000B8000F40
07D000B8000F40
07D000B8000F40
07D000B8000F40
07D000B8000F40
07D000B8000F40
07D000B8000F40
07D000B8000F40
07D000B8000F80
0BD000B8000F90
BFFFFFFFFFFFFC
000000000000BC
0000000000003C
0000000000002C
0000000000001C
0000000000001C
0000000000000C
ENDCHAR
STARTCHAR uni042A
ENCODING 1066
SWIDTH 723 0
DWIDTH 20 0
BBX 20 19 0 0
BITMAP
7FFFFF8000
7D56F40000
7002F00000
6002F00000
9002F00000
0002F00000
0002F00000
0002F00000
0002FFFA40
0002F45BE0
0002F002F8
0002F000FC
0002F000BD
0002F000BD
0002F000BD
0002F000BC
0002F001F4
0003F01BD0
006FFFFA00
ENDCHAR
STARTCHAR uni042B
ENCODING 1067
SWIDTH 887 0
DWIDTH 25 0
BBX 23 19 1 0
BITMAP
FFFF0007FFFC
1BF400007F90
07D000002F40
07D000001F00
07D000001F00
07D000001F00
07D000001F00
07D000001F00
07FFF9001F00
07D16F801F00
07D007E01F00
07D002F41F00
07D001F81F00
07D001F81F00
07D001F41F00
07D002F41F00
07D003E02F40
1FD05F807F90
BFFFF907FFFC
ENDCHAR
STARTCHAR uni042C
ENCODING 1068
SWIDTH 606 0
DWIDTH 17 0
BBX 15 19 1 0
BITMAP
FFFF0000
1BF40000
07D00000
07D00000
07D00000
07D00000
07D00000
07D00000
07FFF900
07D06FD0
07D002F4
07D000F8
07D000FC
07D000BC
07D000FC
07D000F8
07D002F4
0BD05BD0
BFFFF900
ENDCHAR
STARTCHAR uni042D
ENCODING 1069
SWIDTH 667 0
DWIDTH 19 0
BBX 17 19 1 0
BITMAP
75AFE90000
7F905F8000
7E0002F400
780000FC00
7400007D00
7000003E00
6000002F00
0000002F40
00BFFFFF40
0000002F40
0000002F40
0000002F00
0000003E00
0000007D00
800000BC00
740002F400
2E401BE000
07FFFF4000
00AFE40000
ENDCHAR
STARTCHAR uni042E
ENCODING 1070
SWIDTH 1042 0
DWIDTH 29 0
BBX 27 19 1 0
BITMAP
FFFF0006FF9000
1FE4002F51BD00
07D001F8001F40
07D003E0000BD0
07D00BD00003E0
07D00FC00002F4
07D01F800001F4
07D01F400001F8
07FFFF400000F8
07D02F400000F8
07D01F400000F8
07D01F400001F8
07D00F800001F4
07D00BC00002F0
07D007D00003E0
07D002E00007C0
07D000F8001F40
1BE4002E41BD00
FFFF0006FF9000
ENDCHAR
STARTCHAR uni042F
ENCODING 1071
SWIDTH 654 0
DWIDTH 18 0
BBX 17 19 0 0
BITMAP
001AFFFFC0
00BE40FC00
02F400F800
03E000F800
07E000F800
07E000F800
03F000F800
01F800F800
00BE40F800
001BFFF800
000BD5F800
002F40F800
003E00F800
00BD00F800
01F800F800
02F400F800
07E000F800
1FD006FD00
FFC02FFFC0
ENDCHAR
STARTCHAR uni0430
ENCODING 1072
SWIDTH 480 0
DWIDTH 13 0
BBX 12 14 1 0
BITMAP
06FE40
2E1BC0
7C03E0
7C02E0
2402E0
0002E0
006FE0
0B92E0
3D02E0
B802E0
F802E0
B803F1
7D19FF
1FE0B8
ENDCHAR
STARTCHAR uni0431
ENCODING 1073
SWIDTH 520 0
DWIDTH 15 0
BBX 13 21 1 0
BITMAP
00000300
00016E00
002FFD00
02FFE400
0BE50000
2E000000
38000000
706F9000
A391F800
AA003E00
ED002F00
FC001F40
FC000F80
BC000F80
BC000F80
BC000F40
7C001F40
3D001F00
1F003D00
0B91B400
01BF8000
ENDCHAR
STARTCHAR uni0432
ENCODING 1074
SWIDTH 505 0
DWIDTH 14 0
BBX 12 14 1 0
BITMAP
FFFFA0
1F41BC
0F403E
0F402E
0F403D
0F40B8
0FFFD0
0F45B8
0F403E
0F402F
0F402F
0F402F
1F41BD
FFFFE4
ENDCHAR
STARTCHAR uni0433
ENCODING 1075
SWIDTH 429 0
DWIDTH 12 0
BBX 11 14 1 0
BITMAP
FFFFF4
1F41B4
0F4034
0F4024
0F4024
0F4000
0F4000
0F4000
0F4000
0F4000
0F4000
1F4000
2F9000
FFF800
ENDCHAR
STARTCHAR uni0434
ENCODING 1076
SWIDTH 530 0
DWIDTH 15 0
BBX 14 19 0 -5
BITMAP
07FFFFE0
00A02F00
00602F00
00602F00
00A02F00
00A02F00
00D02F00
00D02F00
01C02F00
02802F00
03402F00
0B002F00
2D002F40
FFFFFFF0
F40001F0
E00000B0
E0000070
D0000070
C0000030
ENDCHAR
STARTCHAR uni0435
ENCODING 1077
SWIDTH 464 0
DWIDTH 13 0
BBX 11 14 1 0
BITMAP
01BE40
0E47D0
2C01F0
7800B8
B400BC
FFFFFC
F40000
F40000
F80000
BC0000
7E0018
2F91B4
0FFFE0
01BE40
ENDCHAR
STARTCHAR uni0436
ENCODING 1078
SWIDTH 754 0
DWIDTH 21 0
BBX 22 14 0 0
BITMAP
2E01FFE02F40
7F807F40BF80
69D02E00D640
00A02E018000
00702E034000
00282E0B0000
001FFFFD0000
003D2E1F4000
00B82E0B8000
01F42E07D000
03E02E02F000
07D02E00F800
1F807F40BD00
FF41FFE03FD0
ENDCHAR
STARTCHAR uni0437
ENCODING 1079
SWIDTH 435 0
DWIDTH 12 0
BBX 10 14 1 0
BITMAP
9BF900
B91BC0
B003D0
9003E0
9003D0
001B80
03FD00
005F80
0003E0
0002F0
0002F0
8003E0
B41BC0
1BF900
ENDCHAR
STARTCHAR uni0438
ENCODING 1080
SWIDTH 609 0
DWIDTH 17 0
BBX 15 14 1 0
BITMAP
FFF03FFC
2F800BE0
0F4007D0
0F400BD0
0F402BD0
0F40A7D0
0F4287D0
0F4A07D0
0F5C07D0
0FB007D0
0FC007D0
1F4007D0
2F800BE0
FFF03FFC
ENDCHAR
STARTCHAR uni0439
ENCODING 1081
SWIDTH 609 0
DWIDTH 17 0
BBX 15 20 1 0
BITMAP
02D01E00
03E02F00
03C01F00
02D01E00
007FF400
00000000
FFF03FFC
2F800BE0
0F4007D0
0F400BD0
0F402BD0
0F40A7D0
0F4287D0
0F4A07D0
0F5C07D0
0FB007D0
0FC007D0
1F4007D0
2F800BE0
FFF03FFC
ENDCHAR
STARTCHAR uni043A
ENCODING 1082
SWIDTH 521 0
DWIDTH 15 0
BBX 14 14 1 0
BITMAP
FFF01F80
2F803FD0
1F40A680
0F40D000
0F41C000
0F474000
0FFF0000
0F5F8000
0F47D000
0F42F000
0F41F800
1F40BD00
2F803F40
FFF02FE0
ENDCHAR
STARTCHAR uni043B
ENCODING 1083
SWIDTH 553 0
DWIDTH 15 0
BBX 16 14 -1 0
BITMAP
00BFFFFE
000A02E0
000A02E0
000A02E0
000A02E0
000902E0
000D02E0
001C02E0
001802E0
002802E0
003402E0
29A002E0
7FD007F4
2F402FFE
ENDCHAR
STARTCHAR uni043C
ENCODING 1084
SWIDTH 697 0
DWIDTH 20 0
BBX 19 14 0 0
BITMAP
7FE0001FF8
0BF0002FD0
07F4003F80
07BC007B80
077D00DB80
073E01CB80
071F428B80
070F834B80
070BCA0B80
0703ED0B80
0702FC0B80
0701F80B80
1B40B01FD0
BFE060BFF8
ENDCHAR
STARTCHAR uni043D
ENCODING 1085
SWIDTH 605 0
DWIDTH 17 0
BBX 15 14 1 0
BITMAP
FFF07FFC
2F800BE0
1F4007C0
0F4007C0
0F4007C0
0F4007C0
0FFFFFC0
0F4007C0
0F4007C0
0F4007C0
0F4007C0
1F4007C0
2F800BE0
FFF07FFC
ENDCHAR
STARTCHAR uni043E
ENCODING 1086
SWIDTH 514 0
DWIDTH 14 0
BBX 13 14 1 0
BITMAP
01BF9000
0B91F400
2E007D00
7C002E00
B8001F00
F8001F40
F8001F40
F8001F40
F8001F40
BC001F00
7C002E00
2E003C00
0F91B400
01BF8000
ENDCHAR
STARTCHAR uni043F
ENCODING 1087
SWIDTH 591 0
DWIDTH 17 0
BBX 15 14 1 0
BITMAP
FFFFFFF8
1F400BC0
0F400B80
0F400B80
0F400B80
0F400B80
0F400B80
0F400B80
0F400B80
0F400B80
0F400B80
1F400B80
2F801FD0
FFF0BFF8
ENDCHAR
STARTCHAR uni0440
ENCODING 1088
SWIDTH 537 0
DWIDTH 15 0
BBX 14 20 0 -6
BITMAP
1AC2F900
6FCFFF40
07E41FC0
07D007E0
07C002F0
07C002F0
07C002F0
07C002F0
07C002F0
07C002E0
07C003D0
07D00B80
07F92E00
07DBE400
07C00000
07C00000
07C00000
07C00000
1BE40000
7FFE0000
ENDCHAR
STARTCHAR uni0441
ENCODING 1089
SWIDTH 446 0
DWIDTH 12 0
BBX 11 14 1 0
BITMAP
01BF80
0B47F0
2C01F4
7800F4
B40010
F00000
F00000
F40000
F40000
B80004
7D0018
3F91B0
1FFFD0
02FE40
ENDCHAR
STARTCHAR uni0442
ENCODING 1090
SWIDTH 456 0
DWIDTH 13 0
BBX 13 14 0 0
BITMAP
BFFFFF40
B82E1B40
A02E0340
902E0240
802E0140
002E0000
002E0000
002E0000
002E0000
002E0000
002E0000
003E0000
007F4000
03FFE000
ENDCHAR
STARTCHAR uni0443
ENCODING 1091
SWIDTH 483 0
DWIDTH 14 0
BBX 15 20 -1 -6
BITMAP
7FF80FF8
1FD002E0
07D002C0
03E00380
02F00700
00F80A00
00BC0D00
003D1C00
002F2800
001F7400
000BF000
0007D000
0003C000
00028000
00034000
000B0000
000D0000
1A6C0000
2FF40000
1F900000
ENDCHAR
STARTCHAR uni0444
ENCODING 1092
SWIDTH 710 0
DWIDTH 20 0
BBX 18 27 1 -6
BITMAP
0000500000
000BF00000
0001F00000
0001F00000
0001F00000
0001F00000
0001F00000
02F9F2F900
1F47FD1F40
3D02F407C0
7C01F003D0
B801F003E0
B801F002E0
F801F002E0
F801F002E0
B801F002E0
B801F003D0
7C01F003D0
3D02F40780
1F4BFD1F00
06F9F2F800
0001F00000
0001F00000
0001F00000
0001F00000
0002F80000
001FFF4000
ENDCHAR
STARTCHAR uni0445
ENCODING 1093
SWIDTH 479 0
DWIDTH 13 0
BBX 14 14 0 0
BITMAP
BFF4BFC0
1FD02E40
07D02800
02F07000
00F4D000
007E4000
002F0000
002F8000
0077D000
01D2F000
0380F800
0B007D00
6E007F40
FF81FFE0
ENDCHAR
STARTCHAR uni0446
ENCODING 1094
SWIDTH 590 0
DWIDTH 17 0
BBX 15 19 1 -5
BITMAP
FFF0BFF4
2F801FD0
1F400F80
0F400B80
0F400B80
0F400B80
0F400B80
0F400B80
0F400B80
0F400B80
0F400B80
0F400B80
1F801F80
FFFFFFF8
000000B8
00000038
00000028
00000018
00000018
ENDCHAR
STARTCHAR uni0447
ENCODING 1095
SWIDTH 535 0
DWIDTH 15 0
BBX 14 14 0 0
BITMAP
FFF0FFF0
2F802F80
1F401F00
1F401F00
1F401F00
0F401F00
0F401F00
0BD02F00
02FFAF00
00001F00
00001F00
00001F00
00002F80
0000FFF0
ENDCHAR
STARTCHAR uni0448
ENCODING 1096
SWIDTH 812 0
DWIDTH 23 0
BBX 21 14 1 0
BITMAP
FFE1FFD3FFC0
2F807E40BD00
1F002E007C00
0F002D007C00
0F002D007C00
0F002D007C00
0F002D007C00
0F002D007C00
0F002D007C00
0F002D007C00
0F002D007C00
1F002E007C00
2F407E00BD00
FFFFFFFFFFC0
ENDCHAR
STARTCHAR uni0449
ENCODING 1097
SWIDTH 814 0
DWIDTH 23 0
BBX 21 19 1 -5
BITMAP
FFE1FFC3FF80
2F807E41BD00
1F003D007800
0F002D007800
0F002D007800
0F002D007800
0F002D007800
0F002D007800
0F002D007800
0F002D007800
0F002D007800
0F003D007800
1F407E00BD00
FFFFFFFFFFC0
0000000007C0
0000000002C0
0000000001C0
0000000001C0
0000000000C0
ENDCHAR
STARTCHAR uni044A
ENCODING 1098
SWIDTH 568 0
DWIDTH 16 0
BBX 15 14 0 0
BITMAP
BFFFD000
B82E0000
A02E0000
902E0000
802E0000
002E0000
002FFE80
002E56F4
002E00BC
002E00BC
002E007C
003E00BC
003E06F4
02FFFE80
ENDCHAR
STARTCHAR uni044B
ENCODING 1099
SWIDTH 728 0
DWIDTH 20 0
BBX 19 14 1 0
BITMAP
FFF400BFF4
2F80001FD0
1F40000B80
0F40000B80
0F40000B80
0F40000B80
0FFF900B80
0F46F80B80
0F407D0B80
0F403E0B80
0F403E0B80
1F407D0B80
2F45F81F90
FFFF90BFF4
ENDCHAR
STARTCHAR uni044C
ENCODING 1100
SWIDTH 489 0
DWIDTH 14 0
BBX 12 14 1 0
BITMAP
FFF400
2F8000
1F4000
0F4000
0F4000
0F4000
0FFFA0
0F45FC
0F403E
0F402F
0F402F
1F403E
1F45FC
FFFF90
ENDCHAR
STARTCHAR uni044D
ENCODING 1101
SWIDTH 467 0
DWIDTH 13 0
BBX 11 14 1 0
BITMAP
96FE00
BD17D0
B001F0
9000F8
8000B8
0000BC
03FFFC
0000BC
0000BC
0000B8
0000F4
9002E0
291BC0
06FA00
ENDCHAR
STARTCHAR uni044E
ENCODING 1102
SWIDTH 774 0
DWIDTH 22 0
BBX 20 14 1 0
BITMAP
FFF006FE40
2F801F46E0
1F407C00F8
0F40B8007C
0F40F4003D
0F41F0003E
0FFFF0003E
0F41F0003E
0F41F0003E
0F40F4003D
0F40B8007C
1F407C00B4
2F801F46E0
FFF006FE40
ENDCHAR
STARTCHAR uni044F
ENCODING 1103
SWIDTH 518 0
DWIDTH 15 0
BBX 14 14 0 0
BITMAP
01BFFFE0
07E42F40
0F802E00
1F402E00
1F402E00
0F802E00
07E42E00
007FFE00
007D2E00
00F82E00
02F02E00
07D02E00
1FC07F40
FF42FFE0
ENDCHAR
STARTCHAR uni0450
ENCODING 1104
SWIDTH 464 0
DWIDTH 13 0
BBX 11 20 1 0
BITMAP
029000
02E000
00F400
007800
001C00
000000
01BE40
0E47D0
2C01F0
7800B8
B400BC
FFFFFC
F40000
F40000
F80000
BC0000
7E0018
2F91B4
0FFFE0
01BE40
ENDCHAR
STARTCHAR uni0451
ENCODING 1105
SWIDTH 464 0
DWIDTH 13 0
BBX 11 19 1 0
BITMAP
1E01E0
2F42F4
1E01E0
000000
000000
01BE40
0E47D0
2C01F0
7800B8
B400BC
FFFFFC
F40000
F40000
F80000
BC0000
7E0018
2F91B4
0FFFE0
01BE40
ENDCHAR
STARTCHAR uni0452
ENCODING 1106
SWIDTH 563 0
DWIDTH 16 0
BBX 14 27 0 -6
BITMAP
06D00000
7FD00000
07D00000
03D00000
7FFFE000
07D00000
03D00000
03D1BE00
03DBFF80
03E80BC0
03E003D0
03D002E0
03D002E0
03D002E0
03D002E0
03D002E0
03D002E0
03D002E0
07D002E0
0BE002D0
3FFD02D0
000002D0
000003C0
00000380
003D0700
003F5D00
001BE400
ENDCHAR
STARTCHAR uni0453
ENCODING 1107
SWIDTH 429 0
DWIDTH 12 0
BBX 11 20 1 0
BITMAP
001A00
003E00
007800
00F000
01C000
000000
FFFFF4
1F41B4
0F4034
0F4024
0F4024
0F4000
0F4000
0F4000
0F4000
0F4000
0F4000
1F4000
2F9000
FFF800
ENDCHAR
STARTCHAR uni0454
ENCODING 1108
SWIDTH 460 0
DWIDTH 13 0
BBX 11 14 1 0
BITMAP
01BF90
0B42F4
2D00F8
7C0078
B80000
F80000
FFFF40
F80000
F80000
B80000
7D0004
3F4068
1FFFE0
02FE40
ENDCHAR
STARTCHAR uni0455
ENCODING 1109
SWIDTH 394 0
DWIDTH 11 0
BBX 10 14 1 0
BITMAP
0BFA40
791F40
B40340
F40240
BD0140
7F8000
1FF400
06FE00
006F80
800BD0
D007D0
E003C0
F91B80
9BF900
ENDCHAR
STARTCHAR uni0456
ENCODING 1110
SWIDTH 285 0
DWIDTH 8 0
BBX 7 19 1 0
BITMAP
0F40
1F80
0F40
0000
0000
6B40
AF40
1F40
0F40
0F40
0F40
0F40
0F40
0F40
0F40
0F40
1F40
2F80
FFF4
ENDCHAR
STARTCHAR uni0457
ENCODING 1111
SWIDTH 285 0
DWIDTH 8 0
BBX 9 19 -1 0
BITMAP
780B40
BD1F80
780B40
000000
000000
06B400
0AF400
01F400
00F400
00F400
00F400
00F400
00F400
00F400
00F400
00F400
01F400
02F800
0FFF40
ENDCHAR
STARTCHAR uni0458
ENCODING 1112
SWIDTH 263 0
DWIDTH 7 0
BBX 9 25 -3 -6
BITMAP
001F00
002F40
001F00
000000
000000
006B00
00AF00
001F00
001F00
001F00
001F00
001F00
001F00
001F00
001F00
001F00
001F00
001F00
001F00
001F00
001F00
101E00
B81D00
BE7800
2FE000
ENDCHAR
STARTCHAR uni0459
ENCODING 1113
SWIDTH 742 0
DWIDTH 21 0
BBX 21 14 -1 0
BITMAP
00BFFFFD0000
000A03E00000
000A03D00000
000A03D00000
000A03D00000
000D03D00000
000D03FFE800
001C03E17F40
001803D00F80
002803D00BC0
003403D00BC0
29A003D00F80
7FD003D06F00
2F402FFFE400
ENDCHAR
STARTCHAR uni045A
ENCODING 1114
SWIDTH 790 0
DWIDTH 22 0
BBX 21 14 1 0
BITMAP
FFF07FFC0000
2F801BD00000
1F4007C00000
0F4007C00000
0F4007C00000
0F4007C00000
0FFFFFFFE400
0F4007C1BE00
0F4007C01F40
0F4007C00F80
0F4007C00F80
1F4007C01F40
2F800BC17E00
FFF07FFFE400
ENDCHAR
STARTCHAR uni045B
ENCODING 1115
SWIDTH 579 0
DWIDTH 16 0
BBX 16 20 0 0
BITMAP
1AD00000
1BD00000
03D00000
7FFFE000
07D00000
03D00000
03D1BE00
03DBFF80
03E80BC0
03E003D0
03D003D0
03D002E0
03D002E0
03D002E0
03D002E0
03D002E0
03D002E0
07D002E0
0BE007F4
3FFD2FFE
ENDCHAR
STARTCHAR uni045C
ENCODING 1116
SWIDTH 521 0
DWIDTH 15 0
BBX 14 20 1 0
BITMAP
00068000
000B8000
001F0000
002C0000
00340000
00000000
FFF01F80
2F803FD0
1F40A680
0F40D000
0F41C000
0F474000
0FFF0000
0F5F8000
0F47D000
0F42F000
0F41F800
1F40BD00
2F803F40
FFF02FE0
ENDCHAR
STARTCHAR uni045D
ENCODING 1117
SWIDTH 609 0
DWIDTH 17 0
BBX 15 20 1 0
BITMAP
00A40000
00BC0000
002D0000
000B0000
00034000
00000000
FFF03FFC
2F800BE0
0F4007D0
0F400BD0
0F402BD0
0F40A7D0
0F4287D0
0F4A07D0
0F5C07D0
0FB007D0
0FC007D0
1F4007D0
2F800BE0
FFF03FFC
ENDCHAR
STARTCHAR uni045E
ENCODING 1118
SWIDTH 483 0
DWIDTH 14 0
BBX 15 27 -1 -6
BITMAP
00500500
01F40F80
01F00BC0
00F40B80
002FF900
00000000
00000000
7FF80FF8
1FD002E0
07D002C0
03E00380
02F00340
00F40600
00BC0900
007D0C00
002E1800
001F6400
000FB000
0007E000
0003D000
00028000
00034000
00070000
000E0000
1A6C0000
2FF40000
1F900000
ENDCHAR
STARTCHAR uni045F
ENCODING 1119
SWIDTH 587 0
DWIDTH 16 0
BBX 15 20 1 -6
BITMAP
FFF0BFF8
2F801FD0
1F400B80
0F400B80
0F400B80
0F400B80
0F400B80
0F400B80
0F400B80
0F400B80
0F400B80
0F400B80
1F801F80
FFFFFFF4
00060000
000B0000
000F4000
000F8000
000F8000
00050000
ENDCHAR
STARTCHAR uni0462
ENCODING 1122
SWIDTH 727 0
DWIDTH 20 0
BBX 20 21 0 0
BITMAP
00FFFF0000
001BF50000
0007E00000
0007D00000
7FFFFFFFE0
7947D016E0
7007D000A0
6007D00060
9007D00060
0007D00000
0007D00000
0007FFFA40
0007E15FE0
0007D002F8
0007D000FC
0007D000BD
0007D000BC
0007D000FC
0007D001F4
000BD05BD0
00BFFFFA00
ENDCHAR
STARTCHAR uni0463
ENCODING 1123
SWIDTH 561 0
DWIDTH 16 0
BBX 15 21 0 0
BITMAP
00040000
01BD0000
02BD0000
003D0000
003D0000
003D0000
003D0000
BFFFFF40
B43D1B40
A03D0240
903D0180
803D0040
003D0000
003FFE80
003D56F4
003D00FC
003D00BC
003D00BC
003D00F8
007D16F0
02FFFE40
ENDCHAR
STARTCHAR uni046A
ENCODING 1130
SWIDTH 881 0
DWIDTH 25 0
BBX 26 19 -1 0
BITMAP
002FFFFFFF8000
000FD0000B4000
0007F0000E0000
0002F800280000
0000BD00740000
00003F00D00000
00001F82800000
00000BD7000000
000002FD000000
00006FFFE40000
0002F4F9BE0000
000BD0F82F4000
001F80F80FC000
002F00F807D000
007E00F803F000
00FC00F801F800
02F800F800FD00
07F401FD00BF40
7FE00FFF803FF0
ENDCHAR
STARTCHAR uni046B
ENCODING 1131
SWIDTH 667 0
DWIDTH 19 0
BBX 20 14 -1 0
BITMAP
00FFFFFF40
007E000E00
002F402C00
000BC07400
0003E0E000
0001F68000
0000BF4000
001FBEF800
003E2D3E00
00BC2D1F40
00F42D0B80
02F02D07D0
07D03E02F4
7FC1FFC1FF
ENDCHAR
STARTCHAR uni0472
ENCODING 1138
SWIDTH 737 0
DWIDTH 21 0
BBX 19 19 1 0
BITMAP
001AFE8000
00BD46F800
03E0003E00
0B80000F80
1F40000BD0
3E000003E0
7E000003F0
7D2F9002F0
BEFFFD07F4
BE46FFFEF4
BD002F92F4
7D000002F0
7E000003E0
3F000003E0
2F40000BC0
0F80000F40
07E0002E00
00BD45F400
001BFE4000
ENDCHAR
STARTCHAR uni0473
ENCODING 1139
SWIDTH 514 0
DWIDTH 14 0
BBX 13 14 1 0
BITMAP
01BF9000
0B91F400
2E007D00
7C002E00
B8001F00
F9E41F40
F97D1F40
F80B9F40
F8001F40
B8001F00
7C002E00
2E003C00
0F91F400
01BF8000
ENDCHAR
STARTCHAR uni0474
ENCODING 1140
SWIDTH 705 0
DWIDTH 20 0
BBX 22 19 -1 0
BITMAP
7FFF40002F80
1BF90000BFD0
03F40000FFD0
01F80002D140
00FC00038000
00BD00074000
003F000B0000
002F400E0000
001F801D0000
000FC0280000
0007D0340000
0003F0700000
0002F4A00000
0001F8D00000
0000BEC00000
00007F800000
00003F000000
00002E000000
00000D000000
ENDCHAR
STARTCHAR uni0475
ENCODING 1141
SWIDTH 520 0
DWIDTH 15 0
BBX 17 14 -1 0
BITMAP
7FF8007E00
1FD001FF40
07D0029A00
03E0034000
02F00A0000
01F40D0000
00B81C0000
007C280000
003D340000
002E300000
001FA00000
000FD00000
000BC00000
0003800000
ENDCHAR
STARTCHAR uni0490
ENCODING 1168
SWIDTH 525 0
DWIDTH 15 0
BBX 14 24 1 0
BITMAP
00000050
000000A0
00000090
000000D0
000006D0
BFFFFFD0
0BD55540
07D00000
07D00000
07D00000
07D00000
07D00000
07D00000
07D00000
07D00000
07D00000
07D00000
07D00000
07D00000
07D00000
07D00000
07D00000
1BF40000
BFFF4000
ENDCHAR
STARTCHAR uni0491
ENCODING 1169
SWIDTH 404 0
DWIDTH 11 0
BBX 11 18 1 0
BITMAP
000010
000034
000070
0001B0
FFFFF0
1F4000
0F4000
0F4000
0F4000
0F4000
0F4000
0F4000
0F4000
0F4000
0F4000
1F4000
2F9000
FFF800
ENDCHAR
STARTCHAR uni1D00
ENCODING 7424
SWIDTH 511 0
DWIDTH 14 0
BBX 16 14 -1 0
BITMAP
0003C000
0007D000
000BF000
000DF400
0028F800
0034BC00
00707E00
00A03F00
01D02F40
02FFFF80
03400BD0
0B0007E0
1E0007F4
BFC01FFE
ENDCHAR
STARTCHAR uni1D07
ENCODING 7431
SWIDTH 495 0
DWIDTH 14 0
BBX 12 14 1 0
BITMAP
FFFFFD
1F406D
1F4009
0F4004
0F4060
0F40A0
0FFFE0
0F41A0
0F4060
0F4001
0F4007
1F400A
1F406E
FFFFFD
ENDCHAR
STARTCHAR uni1D1C
ENCODING 7452
SWIDTH 584 0
DWIDTH 16 0
BBX 16 14 0 0
BITMAP
BFFC07FF
1BD001B4
07C00070
07C00070
07C00070
07C00070
07C00070
07C00070
07C00070
07C00060
07C000A0
03D000D0
01F50680
006FF900
ENDCHAR
STARTCHAR uni1D81
ENCODING 7553
SWIDTH 539 0
DWIDTH 15 0
BBX 14 26 1 -6
BITMAP
00006D00
0002BD00
00003D00
00003D00
00003D00
00003D00
01BFBD00
0B91FD00
2D007D00
7C003D00
B8003D00
F4003D00
F4003D00
F4003D00
F8003D00
F8003D00
BD003D00
7F41BD00
2FFF7F40
06F93ED0
000000D0
000000D0
000000D0
000180C0
0001E680
0000BE00
ENDCHAR
STARTCHAR uni1D84
ENCODING 7556
SWIDTH 542 0
DWIDTH 15 0
BBX 14 26 1 -6
BITMAP
6B000000
AF000000
1F000000
1F000000
1F000000
1F000000
1F03FFC0
1F00BD00
1F00E000
1F038000
1F0E0000
1F740000
1FFC0000
1F7E0000
1F1F8000
1F07E000
1F02F400
1F00BD00
2F807F40
FFF4FFF0
00000030
00000030
00000070
00006060
0000B990
00006F40
ENDCHAR
STARTCHAR uni1D85
ENCODING 7557
SWIDTH 283 0
DWIDTH 8 0
BBX 8 26 0 -6
BITMAP
16C0
6FC0
07C0
07C0
07C0
07C0
07C0
07C0
07C0
07C0
07C0
07C0
07C0
07C0
07C0
07C0
07C0
07C0
0BE0
3FFD
000D
000D
000D
180C
2E28
0BE0
ENDCHAR
STARTCHAR uni1D8A
ENCODING 7562
SWIDTH 395 0
DWIDTH 11 0
BBX 10 20 1 -6
BITMAP
0BFA40
791F40
B40340
F40240
BD0140
7F8000
1FF400
06FE00
006F80
800BD0
D007D0
E003C0
F91B80
9BFA80
000280
000280
000240
064340
07DB00
02F800
ENDCHAR
STARTCHAR uni1D8D
ENCODING 7565
SWIDTH 479 0
DWIDTH 13 0
BBX 14 20 0 -6
BITMAP
BFF4BFC0
1FD02E40
07D02800
02F07000
00F4D000
007E4000
002F0000
002F8000
0077D000
01D2F000
0380F800
0B007D00
6E007F40
FF81FFE0
000000A0
00000090
00000090
000190D0
0001F680
0000BE00
ENDCHAR
STARTCHAR uni1D8E
ENCODING 7566
SWIDTH 458 0
DWIDTH 13 0
BBX 11 20 1 -6
BITMAP
BFFFF8
B502F4
A007E0
900BC0
401F40
003E00
00BC00
01F400
03E000
0BC008
1F4018
3E0028
BD01B8
FFFFF8
000028
000028
000028
002424
007D70
002F80
ENDCHAR
STARTCHAR uni1D98
ENCODING 7576
SWIDTH 368 0
DWIDTH 10 0
BBX 14 27 0 -6
BITMAP
0000BE40
00039BD0
000B03D0
000F0000
001F0000
001F0000
001F0000
001F0000
001F0000
001F0000
001F0000
001F0000
001F0000
001F0000
001F0000
001F0000
001F0000
001F0000
741E0000
BD2D0000
BFF40000
A0000000
A0000000
A0000000
60700000
35F40000
1BD00000
ENDCHAR
STARTCHAR uni1D9B
ENCODING 7579
SWIDTH 462 0
DWIDTH 13 0
BBX 12 11 0 7
BITMAP
6F1BE0
6FBFFC
0F807D
0F002E
0F001F
0F001F
0F001E
0F001D
0F002C
0F80B4
0DBF80
ENDCHAR
STARTCHAR uni1DA3
ENCODING 7587
SWIDTH 488 0
DWIDTH 14 0
BBX 13 16 0 2
BITMAP
7FF1FF80
0F803D00
0B402D00
0B402D00
0B402D00
0B402D00
0B402D00
0B802D00
07C0BD00
03FFAD00
01BD2D00
00002D00
00002D00
00002D00
00002E40
00002E80
ENDCHAR
STARTCHAR uni1E00
ENCODING 7680
SWIDTH 718 0
DWIDTH 20 0
BBX 20 26 0 -7
BITMAP
0000380000
00007C0000
0000BE0000
0000FF0000
0002DF4000
00038FC000
00074BD000
000A07E000
001D03F000
002C02F800
003800FC00
007400BD00
00FFFFFF00
01E0007F40
02C0002F80
0780000FD0
0B40000BE0
2F40001BF8
FFF000BFFF
0000000000
0001B80000
00035A0000
0007030000
0006034000
0007470000
0001FD0000
ENDCHAR
STARTCHAR uni1E01
ENCODING 7681
SWIDTH 480 0
DWIDTH 13 0
BBX 12 21 1 -7
BITMAP
06FE40
2E1BC0
7C03E0
7C02E0
2402E0
0002E0
006FE0
0B92E0
3D02E0
B802E0
F802E0
B803F1
7D19FF
1FE0B8
000000
01B800
039B00
070340
070340
034700
01FD00
ENDCHAR
STARTCHAR uni1E02
ENCODING 7682
SWIDTH 618 0
DWIDTH 17 0
BBX 16 23 1 0
BITMAP
000B4000
001F8000
000B4000
00000000
FFFFF900
0BD46FD0
07D007F0
07D002F4
07D001F4
07D001F4
07D002F0
07D003D0
07D01900
07FFFE40
07D05BE0
07D002F8
07D000FC
07D000BD
07D000BD
07D000BC
07D001F8
0BD01BE0
FFFFFE40
ENDCHAR
STARTCHAR uni1E03
ENCODING 7683
SWIDTH 522 0
DWIDTH 15 0
BBX 14 24 0 0
BITMAP
000F4000
001F8000
000F4000
00000000
1B800000
AF800000
0B800000
0B800000
0B800000
0B800000
0B86F800
0B9FFF00
0BA42F80
0B800BD0
0B8007D0
0B8003E0
0B8003E0
0B8003E0
0B8003D0
0B8003C0
0B800780
0B800F00
0BE46D00
01BF9000
ENDCHAR
STARTCHAR uni1E04
ENCODING 7684
SWIDTH 618 0
DWIDTH 17 0
BBX 16 24 1 -5
BITMAP
FFFFF900
0BD46FD0
07D007F0
07D002F4
07D001F4
07D001F4
07D002F0
07D003D0
07D01900
07FFFE40
07D05BE0
07D002F8
07D000FC
07D000BD
07D000BD
07D000BC
07D001F8
0BD01BE0
FFFFFE40
00000000
00000000
000B4000
001F8000
000B4000
ENDCHAR
STARTCHAR uni1E05
ENCODING 7685
SWIDTH 522 0
DWIDTH 15 0
BBX 14 25 0 -5
BITMAP
1B800000
AF800000
0B800000
0B800000
0B800000
0B800000
0B86F800
0B9FFF00
0BA42F80
0B800BD0
0B8007D0
0B8003E0
0B8003E0
0B8003E0
0B8003D0
0B8003C0
0B800780
0B800F00
0BE46D00
01BF9000
00000000
00000000
000F4000
001F8000
000F4000
ENDCHAR
STARTCHAR uni1E06
ENCODING 7686
SWIDTH 618 0
DWIDTH 17 0
BBX 16 23 1 -4
BITMAP
FFFFF900
0BD46FD0
07D007F0
07D002F4
07D001F4
07D001F4
07D002F0
07D003D0
07D01900
07FFFE40
07D05BE0
07D002F8
07D000FC
07D000BD
07D000BD
07D000BC
07D001F8
0BD01BE0
FFFFFE40
00000000
00000000
00000000
02FFFD00
ENDCHAR
STARTCHAR uni1E07
ENCODING 7687
SWIDTH 522 0
DWIDTH 15 0
BBX 14 24 0 -4
BITMAP
1B800000
AF800000
0B800000
0B800000
0B800000
0B800000
0B86F800
0B9FFF00
0BA42F80
0B800BD0
0B8007D0
0B8003E0
0B8003E0
0B8003E0
0B8003D0
0B8003C0
0B800780
0B800F00
0BE46D00
01BF9000
00000000
00000000
00000000
03FFFC00
ENDCHAR
STARTCHAR uni1E08
ENCODING 7688
SWIDTH 670 0
DWIDTH 19 0
BBX 17 30 1 -6
BITMAP
00001A4000
00003E4000
0000B40000
0002800000
0000000000
001AFF9700
00BD45FF00
03E0002F00
0B80000F00
1F40000B00
3F00000700
7E00000300
7D00000000
BD00000000
BD00000000
BD00000000
7E00000000
7E00000000
3F00000000
2F80000000
0FE0000740
07F9006E00
00BFFFF400
001BFE4000
0000800000
0001800000
0001F80000
00001E0000
00001D0000
0007F80000
ENDCHAR
STARTCHAR uni1E09
ENCODING 7689
SWIDTH 446 0
DWIDTH 12 0
BBX 11 26 1 -6
BITMAP
000640
001F40
002D00
003800
00A000
000000
01BF80
0B47F0
2C01F4
7800F4
B40010
F00000
F00000
F40000
F40000
F80004
BD0018
3F91B0
1FFFD0
06FE40
002000
007E00
001740
000380
014740
00BD00
ENDCHAR
STARTCHAR uni1E0A
ENCODING 7690
SWIDTH 730 0
DWIDTH 20 0
BBX 18 23 1 0
BITMAP
0001E00000
0003F00000
0001E00000
0000000000
FFFFFA4000
0BD55BF400
07D001FD00
07D0002F40
07D0000FC0
07D0000BD0
07D00007E0
07D00003F0
07D00003F0
07D00003F0
07D00003F0
07D00003F0
07D00003E0
07D00007D0
07D0000BC0
07D0001F40
07D0007D00
0BD05BF400
FFFFFA4000
ENDCHAR
STARTCHAR uni1E0B
ENCODING 7691
SWIDTH 539 0
DWIDTH 15 0
BBX 13 24 1 0
BITMAP
002E0000
003F0000
002E0000
00000000
00006D00
0002BD00
00003D00
00003D00
00003D00
00003D00
01BFBD00
0B91FD00
2D007D00
7C003D00
B8003D00
F4003D00
F4003D00
F4003D00
F8003D00
F8003D00
BD003D00
7F41BD00
2FFF7F40
06F93E80
ENDCHAR
STARTCHAR uni1E0C
ENCODING 7692
SWIDTH 730 0
DWIDTH 20 0
BBX 18 24 1 -5
BITMAP
FFFFFA4000
0BD55BF400
07D001FD00
07D0002F40
07D0000FC0
07D0000BD0
07D00007E0
07D00003F0
07D00003F0
07D00003F0
07D00003F0
07D00003F0
07D00003E0
07D00007D0
07D0000BC0
07D0001F40
07D0007D00
0BD05BF400
FFFFFA4000
0000000000
0000000000
0007D00000
000BE00000
0007D00000
ENDCHAR
STARTCHAR uni1E0D
ENCODING 7693
SWIDTH 539 0
DWIDTH 15 0
BBX 13 25 1 -5
BITMAP
00006D00
0002BD00
00003D00
00003D00
00003D00
00003D00
01BFBD00
0B91FD00
2D007D00
7C003D00
B8003D00
F4003D00
F4003D00
F4003D00
F8003D00
F8003D00
BD003D00
7F41BD00
2FFF7F40
06F93E80
00000000
00000000
002E0000
003F0000
002E0000
ENDCHAR
STARTCHAR uni1E0E
ENCODING 7694
SWIDTH 730 0
DWIDTH 20 0
BBX 18 23 1 -4
BITMAP
FFFFFA4000
0BD55BF400
07D001FD00
07D0002F40
07D0000FC0
07D0000BD0
07D00007E0
07D00003F0
07D00003F0
07D00003F0
07D00003F0
07D00003F0
07D00003E0
07D00007D0
07D0000BC0
07D0001F40
07D0007D00
0BD05BF400
FFFFFA4000
0000000000
0000000000
0000000000
00FFFF0000
ENDCHAR
STARTCHAR uni1E0F
ENCODING 7695
SWIDTH 539 0
DWIDTH 15 0
BBX 13 24 1 -4
BITMAP
00006D00
0002BD00
00003D00
00003D00
00003D00
00003D00
01BFBD00
0B91FD00
2D007D00
7C003D00
B8003D00
F4003D00
F4003D00
F4003D00
F8003D00
F8003D00
BD003D00
7F41BD00
2FFF7F40
06F93E80
00000000
00000000
00000000
0BFFF800
ENDCHAR
STARTCHAR uni1E10
ENCODING 7696
SWIDTH 730 0
DWIDTH 20 0
BBX 18 27 1 -8
BITMAP
FFFFFA4000
0BD55BF400
07D001FD00
07D0002F40
07D0000FC0
07D0000BD0
07D00007E0
07D00003F0
07D00003F0
07D00003F0
07D00003F0
07D00003F0
07D00003E0
07D00007D0
07D0000BC0
07D0001F40
07D0007D00
0BD05BF400
FFFFFA4000
0000000000
0000000000
0007D00000
000BE00000
0007F00000
0000A00000
0000D00000
0007400000
ENDCHAR
STARTCHAR uni1E11
ENCODING 7697
SWIDTH 539 0
DWIDTH 15 0
BBX 13 28 1 -8
BITMAP
00006D00
0002BD00
00003D00
00003D00
00003D00
00003D00
01BFBD00
0B91FD00
2D007D00
7C003D00
B8003D00
F4003D00
F4003D00
F4003D00
F8003D00
F8003D00
BD003D00
7F41BD00
2FFF7F40
06F93E80
00000000
00000000
002E0000
007F4000
002F4000
00034000
000A0000
00280000
ENDCHAR
STARTCHAR uni1E12
ENCODING 7698
SWIDTH 730 0
DWIDTH 20 0
BBX 18 25 1 -6
BITMAP
FFFFFA4000
0BD55BF400
07D001FD00
07D0002F40
07D0000FC0
07D0000BD0
07D00007E0
07D00003F0
07D00003F0
07D00003F0
07D00003F0
07D00003F0
07D00003E0
07D00007D0
07D0000BC0
07D0001F40
07D0007D00
0BD05BF400
FFFFFA4000
0000000000
0001400000
000BE00000
001EB40000
00382C0000
00A00A0000
ENDCHAR
STARTCHAR uni1E13
ENCODING 7699
SWIDTH 539 0
DWIDTH 15 0
BBX 13 26 1 -6
BITMAP
00006D00
0002BD00
00003D00
00003D00
00003D00
00003D00
01BFBD00
0B91FD00
2D007D00
7C003D00
B8003D00
F4003D00
F4003D00
F4003D00
F8003D00
F8003D00
BD003D00
7F41BD00
2FFF7F40
06F93E80
00000000
00190000
003F0000
00B78000
01D1D000
03407400
ENDCHAR
STARTCHAR uni1E14
ENCODING 7700
SWIDTH 626 0
DWIDTH 18 0
BBX 16 27 1 0
BITMAP
00290000
001F8000
0002D000
00007400
00000000
00FFFF00
00000000
00000000
FFFFFFF8
0BD555B8
07D00028
07D0001C
07D00000
07D00180
07D00180
07D00280
07D00780
07FFFF80
07D01680
07D00180
07D00000
07D00006
07D0000A
07D0000D
07D0002D
0BD555BC
FFFFFFFC
ENDCHAR
STARTCHAR uni1E15
ENCODING 7701
SWIDTH 464 0
DWIDTH 13 0
BBX 11 24 1 0
BITMAP
029000
02E000
00F400
007800
001C00
000000
000000
1FFFE0
000000
000000
01BE40
0E47D0
2C01F0
7800B8
B400BC
FFFFFC
F40000
F40000
F80000
BC0000
7E0018
2F91B4
0FFFE0
01BE40
ENDCHAR
STARTCHAR uni1E16
ENCODING 7702
SWIDTH 626 0
DWIDTH 18 0
BBX 16 27 1 0
BITMAP
00006800
0002F400
00078000
001D0000
00000000
00FFFF00
00000000
00000000
FFFFFFF8
0BD555B8
07D00028
07D0001C
07D00000
07D00180
07D00180
07D00280
07D00780
07FFFF80
07D01680
07D00180
07D00000
07D00006
07D0000A
07D0000D
07D0002D
0BD555BC
FFFFFFFC
ENDCHAR
ENDFONT
